ISO-10303-21;
HEADER;
FILE_DESCRIPTION (( 'STEP AP214' ),
    '1' );
FILE_NAME ('Ball.STEP',
    '2025-08-25T10:06:52',
    ( '' ),
    ( '' ),
    'SwSTEP 2.0',
    'SolidWorks 2025',
    '' );
FILE_SCHEMA (( 'AUTOMOTIVE_DESIGN' ));
ENDSEC;

DATA;
#1 = SURFACE_STYLE_USAGE ( .BOTH. , #113 ) ;
#2 = DIRECTION ( 'NONE',  ( 1.000000000000000000, 0.000000000000000000, 0.000000000000000000 ) ) ;
#3 = CARTESIAN_POINT ( 'NONE',  ( 0.000000000000000000, 0.000000000000000000, 48.98979485566356828 ) ) ;
#4 = DIRECTION ( 'NONE',  ( 0.000000000000000000, 0.000000000000000000, 1.000000000000000000 ) ) ;
#5 = APPLICATION_CONTEXT ( 'automotive_design' ) ;
#6 = ORIENTED_EDGE ( 'NONE', *, *, #50, .F. ) ;
#7 = EDGE_CURVE ( 'NONE', #26, #37, #52, .T. ) ;
#8 = CARTESIAN_POINT ( 'NONE',  ( 0.000000000000000000, 0.000000000000000000, 0.000000000000000000 ) ) ;
#9 = ORIENTED_EDGE ( 'NONE', *, *, #153, .T. ) ;
#10 = AXIS2_PLACEMENT_3D ( 'NONE', #95, #11, #23 ) ;
#11 = DIRECTION ( 'NONE',  ( 1.224646799147353207E-16, 0.000000000000000000, -1.000000000000000000 ) ) ;
#12 = CARTESIAN_POINT ( 'NONE',  ( 10.00000000000000000, 0.000000000000000000, 40.00000000000000000 ) ) ;
#13 = CARTESIAN_POINT ( 'NONE',  ( 0.000000000000000000, 0.000000000000000000, 40.00000000000000000 ) ) ;
#14 = CYLINDRICAL_SURFACE ( 'NONE', #22, 10.00000000000000000 ) ;
#15 =( GEOMETRIC_REPRESENTATION_CONTEXT ( 3 ) GLOBAL_UNCERTAINTY_ASSIGNED_CONTEXT ( ( #29 ) ) GLOBAL_UNIT_ASSIGNED_CONTEXT ( ( #126, #79, #119 ) ) REPRESENTATION_CONTEXT ( 'NONE', 'WORKASPACE' ) );
#16 = FACE_OUTER_BOUND ( 'NONE', #24, .T. ) ;
#17 = CARTESIAN_POINT ( 'NONE',  ( 0.000000000000000000, 0.000000000000000000, 0.000000000000000000 ) ) ;
#18 = VECTOR ( 'NONE', #101, 1000.000000000000000 ) ;
#19 = FACE_OUTER_BOUND ( 'NONE', #125, .T. ) ;
#20 = CARTESIAN_POINT ( 'NONE',  ( 0.000000000000000000, 0.000000000000000000, 0.000000000000000000 ) ) ;
#21 = DIRECTION ( 'NONE',  ( 0.000000000000000000, 0.000000000000000000, 1.000000000000000000 ) ) ;
#22 = AXIS2_PLACEMENT_3D ( 'NONE', #13, #102, #51 ) ;
#23 = DIRECTION ( 'NONE',  ( -1.000000000000000000, 0.000000000000000000, -1.224646799147353207E-16 ) ) ;
#24 = EDGE_LOOP ( 'NONE', ( #152, #9, #75, #41 ) ) ;
#25 = PRODUCT ( 'Ball', 'Ball', '', ( #31 ) ) ;
#26 = VERTEX_POINT ( 'NONE', #72 ) ;
#27 = ORIENTED_EDGE ( 'NONE', *, *, #118, .T. ) ;
#28 = DIRECTION ( 'NONE',  ( 1.000000000000000000, 0.000000000000000000, 0.000000000000000000 ) ) ;
#29 = UNCERTAINTY_MEASURE_WITH_UNIT (LENGTH_MEASURE( 1.000000000000000082E-05 ), #126, 'distance_accuracy_value', 'NONE');
#30 = DIRECTION ( 'NONE',  ( 1.000000000000000000, 0.000000000000000000, 0.000000000000000000 ) ) ;
#31 = PRODUCT_CONTEXT ( 'NONE', #143, 'mechanical' ) ;
#32 = ADVANCED_FACE ( 'NONE', ( #84 ), #60, .T. ) ;
#33 = FACE_OUTER_BOUND ( 'NONE', #134, .T. ) ;
#34 = EDGE_CURVE ( 'NONE', #26, #37, #56, .T. ) ;
#35 = DIRECTION ( 'NONE',  ( 1.000000000000000000, 0.000000000000000000, 0.000000000000000000 ) ) ;
#36 = CARTESIAN_POINT ( 'NONE',  ( 10.00000000000000000, 0.000000000000000000, 40.00000000000000000 ) ) ;
#37 = VERTEX_POINT ( 'NONE', #127 ) ;
#38 = AXIS2_PLACEMENT_3D ( 'NONE', #17, #4, #2 ) ;
#39 = PRODUCT_DEFINITION_SHAPE ( 'NONE', 'NONE',  #86 ) ;
#40 = EDGE_LOOP ( 'NONE', ( #96, #124 ) ) ;
#41 = ORIENTED_EDGE ( 'NONE', *, *, #118, .F. ) ;
#42 = MECHANICAL_DESIGN_GEOMETRIC_PRESENTATION_REPRESENTATION (  '', ( #135 ), #77 ) ;
#43 = CARTESIAN_POINT ( 'NONE',  ( 0.000000000000000000, 0.000000000000000000, 40.00000000000000000 ) ) ;
#44 = CARTESIAN_POINT ( 'NONE',  ( -10.00000000000000000, 1.224646799147353256E-15, 48.98979485566356828 ) ) ;
#45 = FILL_AREA_STYLE ('',( #63 ) ) ;
#46 = AXIS2_PLACEMENT_3D ( 'NONE', #20, #74, #35 ) ;
#47 = PRESENTATION_STYLE_ASSIGNMENT (( #1 ) ) ;
#48 = AXIS2_PLACEMENT_3D ( 'NONE', #112, #132, #140 ) ;
#49 = VERTEX_POINT ( 'NONE', #142 ) ;
#50 = EDGE_CURVE ( 'NONE', #123, #49, #57, .T. ) ;
#51 = DIRECTION ( 'NONE',  ( 1.000000000000000000, 0.000000000000000000, 0.000000000000000000 ) ) ;
#52 = CIRCLE ( 'NONE', #10, 50.00000000000000000 ) ;
#53 = EDGE_CURVE ( 'NONE', #99, #151, #154, .T. ) ;
#54 = MANIFOLD_SOLID_BREP ( '\X2\cef7\X0\-\X2\b3cccd9c\X0\1', #111 ) ;
#55 = APPLICATION_PROTOCOL_DEFINITION ( 'draft international standard', 'automotive_design', 1998, #143 ) ;
#56 = CIRCLE ( 'NONE', #139, 50.00000000000000000 ) ;
#57 = CIRCLE ( 'NONE', #131, 10.00000000000000000 ) ;
#58 = FACE_OUTER_BOUND ( 'NONE', #136, .T. ) ;
#59 = AXIS2_PLACEMENT_3D ( 'NONE', #3, #147, #69 ) ;
#60 = SPHERICAL_SURFACE ( 'NONE', #121, 50.00000000000000000 ) ;
#61 = ORIENTED_EDGE ( 'NONE', *, *, #50, .T. ) ;
#62 = LINE ( 'NONE', #100, #18 ) ;
#63 = FILL_AREA_STYLE_COLOUR ( '', #70 ) ;
#64 = ADVANCED_FACE ( 'NONE', ( #16 ), #14, .F. ) ;
#65 = DIRECTION ( 'NONE',  ( 0.000000000000000000, 0.000000000000000000, 1.000000000000000000 ) ) ;
#66 = DIRECTION ( 'NONE',  ( 1.000000000000000000, 0.000000000000000000, 0.000000000000000000 ) ) ;
#67 = CIRCLE ( 'NONE', #115, 10.00000000000000000 ) ;
#68 = SHAPE_DEFINITION_REPRESENTATION ( #39, #145 ) ;
#69 = DIRECTION ( 'NONE',  ( -1.000000000000000000, 0.000000000000000000, 0.000000000000000000 ) ) ;
#70 = COLOUR_RGB ( '',0.7921568627450980005, 0.8196078431372548767, 0.9333333333333333481 ) ;
#71 = DIRECTION ( 'NONE',  ( -0.000000000000000000, -0.000000000000000000, 1.000000000000000000 ) ) ;
#72 = CARTESIAN_POINT ( 'NONE',  ( 3.061616997868383043E-15, -50.00000000000000000, 0.000000000000000000 ) ) ;
#73 = ORIENTED_EDGE ( 'NONE', *, *, #7, .T. ) ;
#74 = DIRECTION ( 'NONE',  ( 0.000000000000000000, 0.000000000000000000, -1.000000000000000000 ) ) ;
#75 = ORIENTED_EDGE ( 'NONE', *, *, #93, .T. ) ;
#76 = CARTESIAN_POINT ( 'NONE',  ( 0.000000000000000000, 0.000000000000000000, 48.98979485566356828 ) ) ;
#77 =( GEOMETRIC_REPRESENTATION_CONTEXT ( 3 ) GLOBAL_UNCERTAINTY_ASSIGNED_CONTEXT ( ( #87 ) ) GLOBAL_UNIT_ASSIGNED_CONTEXT ( ( #92, #130, #78 ) ) REPRESENTATION_CONTEXT ( 'NONE', 'WORKASPACE' ) );
#78 =( NAMED_UNIT ( * ) SI_UNIT ( $, .STERADIAN. ) SOLID_ANGLE_UNIT ( ) );
#79 =( NAMED_UNIT ( * ) PLANE_ANGLE_UNIT ( ) SI_UNIT ( $, .RADIAN. ) );
#80 = CARTESIAN_POINT ( 'NONE',  ( 0.000000000000000000, 0.000000000000000000, 40.00000000000000000 ) ) ;
#81 = SPHERICAL_SURFACE ( 'NONE', #46, 50.00000000000000000 ) ;
#82 = PRODUCT_RELATED_PRODUCT_CATEGORY ( 'part', '', ( #25 ) ) ;
#83 = VECTOR ( 'NONE', #71, 1000.000000000000000 ) ;
#84 = FACE_OUTER_BOUND ( 'NONE', #94, .T. ) ;
#85 = ORIENTED_EDGE ( 'NONE', *, *, #91, .T. ) ;
#86 = PRODUCT_DEFINITION ( 'UNKNOWN', '', #89, #117 ) ;
#87 = UNCERTAINTY_MEASURE_WITH_UNIT (LENGTH_MEASURE( 1.000000000000000082E-05 ), #92, 'distance_accuracy_value', 'NONE');
#88 = APPLICATION_PROTOCOL_DEFINITION ( 'draft international standard', 'automotive_design', 1998, #5 ) ;
#89 = PRODUCT_DEFINITION_FORMATION_WITH_SPECIFIED_SOURCE ( 'ANY', '', #25, .NOT_KNOWN. ) ;
#90 = DIRECTION ( 'NONE',  ( -1.000000000000000000, 0.000000000000000000, 0.000000000000000000 ) ) ;
#91 = EDGE_CURVE ( 'NONE', #49, #123, #67, .T. ) ;
#92 =( LENGTH_UNIT ( ) NAMED_UNIT ( * ) SI_UNIT ( .MILLI., .METRE. ) );
#93 = EDGE_CURVE ( 'NONE', #151, #99, #148, .T. ) ;
#94 = EDGE_LOOP ( 'NONE', ( #97, #73 ) ) ;
#95 = CARTESIAN_POINT ( 'NONE',  ( 0.000000000000000000, 0.000000000000000000, 0.000000000000000000 ) ) ;
#96 = ORIENTED_EDGE ( 'NONE', *, *, #53, .F. ) ;
#97 = ORIENTED_EDGE ( 'NONE', *, *, #34, .F. ) ;
#98 = DIRECTION ( 'NONE',  ( 0.000000000000000000, 0.000000000000000000, -1.000000000000000000 ) ) ;
#99 = VERTEX_POINT ( 'NONE', #120 ) ;
#100 = CARTESIAN_POINT ( 'NONE',  ( -10.00000000000000000, 1.224646799147353256E-15, 40.00000000000000000 ) ) ;
#101 = DIRECTION ( 'NONE',  ( -0.000000000000000000, -0.000000000000000000, 1.000000000000000000 ) ) ;
#102 = DIRECTION ( 'NONE',  ( -0.000000000000000000, -0.000000000000000000, 1.000000000000000000 ) ) ;
#103 = ADVANCED_FACE ( 'NONE', ( #33 ), #122, .T. ) ;
#104 = AXIS2_PLACEMENT_3D ( 'NONE', #80, #21, #107 ) ;
#105 = CARTESIAN_POINT ( 'NONE',  ( 0.000000000000000000, 0.000000000000000000, 40.00000000000000000 ) ) ;
#106 = DIRECTION ( 'NONE',  ( 0.000000000000000000, 0.000000000000000000, 1.000000000000000000 ) ) ;
#107 = DIRECTION ( 'NONE',  ( 1.000000000000000000, 0.000000000000000000, -0.000000000000000000 ) ) ;
#108 = ADVANCED_FACE ( 'NONE', ( #19, #109 ), #81, .T. ) ;
#109 = FACE_BOUND ( 'NONE', #40, .T. ) ;
#110 = ADVANCED_FACE ( 'NONE', ( #58 ), #149, .F. ) ;
#111 = CLOSED_SHELL ( 'NONE', ( #64, #32, #108, #110, #103 ) ) ;
#112 = CARTESIAN_POINT ( 'NONE',  ( 0.000000000000000000, 0.000000000000000000, 40.00000000000000000 ) ) ;
#113 = SURFACE_SIDE_STYLE ('',( #129 ) ) ;
#114 = LINE ( 'NONE', #36, #83 ) ;
#115 = AXIS2_PLACEMENT_3D ( 'NONE', #43, #65, #144 ) ;
#116 = CARTESIAN_POINT ( 'NONE',  ( 0.000000000000000000, 0.000000000000000000, 0.000000000000000000 ) ) ;
#117 = PRODUCT_DEFINITION_CONTEXT ( 'detailed design', #5, 'design' ) ;
#118 = EDGE_CURVE ( 'NONE', #123, #99, #114, .T. ) ;
#119 =( NAMED_UNIT ( * ) SI_UNIT ( $, .STERADIAN. ) SOLID_ANGLE_UNIT ( ) );
#120 = CARTESIAN_POINT ( 'NONE',  ( 10.00000000000000000, 0.000000000000000000, 48.98979485566356828 ) ) ;
#121 = AXIS2_PLACEMENT_3D ( 'NONE', #116, #98, #66 ) ;
#122 = PLANE ( 'NONE',  #104 ) ;
#123 = VERTEX_POINT ( 'NONE', #12 ) ;
#124 = ORIENTED_EDGE ( 'NONE', *, *, #93, .F. ) ;
#125 = EDGE_LOOP ( 'NONE', ( #133, #150 ) ) ;
#126 =( LENGTH_UNIT ( ) NAMED_UNIT ( * ) SI_UNIT ( .MILLI., .METRE. ) );
#127 = CARTESIAN_POINT ( 'NONE',  ( 3.061616997868383043E-15, 50.00000000000000000, 0.000000000000000000 ) ) ;
#128 = PRESENTATION_LAYER_ASSIGNMENT (  '', '', ( #135 ) ) ;
#129 = SURFACE_STYLE_FILL_AREA ( #45 ) ;
#130 =( NAMED_UNIT ( * ) PLANE_ANGLE_UNIT ( ) SI_UNIT ( $, .RADIAN. ) );
#131 = AXIS2_PLACEMENT_3D ( 'NONE', #105, #155, #28 ) ;
#132 = DIRECTION ( 'NONE',  ( -0.000000000000000000, -0.000000000000000000, 1.000000000000000000 ) ) ;
#133 = ORIENTED_EDGE ( 'NONE', *, *, #7, .F. ) ;
#134 = EDGE_LOOP ( 'NONE', ( #61, #85 ) ) ;
#135 = STYLED_ITEM ( 'NONE', ( #47 ), #54 ) ;
#136 = EDGE_LOOP ( 'NONE', ( #138, #6, #27, #137 ) ) ;
#137 = ORIENTED_EDGE ( 'NONE', *, *, #53, .T. ) ;
#138 = ORIENTED_EDGE ( 'NONE', *, *, #153, .F. ) ;
#139 = AXIS2_PLACEMENT_3D ( 'NONE', #8, #106, #30 ) ;
#140 = DIRECTION ( 'NONE',  ( 1.000000000000000000, 0.000000000000000000, 0.000000000000000000 ) ) ;
#141 = DIRECTION ( 'NONE',  ( -0.000000000000000000, -0.000000000000000000, 1.000000000000000000 ) ) ;
#142 = CARTESIAN_POINT ( 'NONE',  ( -10.00000000000000000, 1.224646799147353256E-15, 40.00000000000000000 ) ) ;
#143 = APPLICATION_CONTEXT ( 'automotive_design' ) ;
#144 = DIRECTION ( 'NONE',  ( 1.000000000000000000, 0.000000000000000000, 0.000000000000000000 ) ) ;
#145 = ADVANCED_BREP_SHAPE_REPRESENTATION ( 'Ball', ( #54, #38 ), #15 ) ;
#146 = AXIS2_PLACEMENT_3D ( 'NONE', #76, #141, #90 ) ;
#147 = DIRECTION ( 'NONE',  ( -0.000000000000000000, -0.000000000000000000, 1.000000000000000000 ) ) ;
#148 = CIRCLE ( 'NONE', #59, 10.00000000000000000 ) ;
#149 = CYLINDRICAL_SURFACE ( 'NONE', #48, 10.00000000000000000 ) ;
#150 = ORIENTED_EDGE ( 'NONE', *, *, #34, .T. ) ;
#151 = VERTEX_POINT ( 'NONE', #44 ) ;
#152 = ORIENTED_EDGE ( 'NONE', *, *, #91, .F. ) ;
#153 = EDGE_CURVE ( 'NONE', #49, #151, #62, .T. ) ;
#154 = CIRCLE ( 'NONE', #146, 10.00000000000000000 ) ;
#155 = DIRECTION ( 'NONE',  ( 0.000000000000000000, 0.000000000000000000, 1.000000000000000000 ) ) ;
ENDSEC;
END-ISO-10303-21;
