ISO-10303-21;
HEADER;
FILE_DESCRIPTION (( 'STEP AP214' ),
    '1' );
FILE_NAME ('Cylinder.STEP',
    '2025-09-09T08:40:51',
    ( '' ),
    ( '' ),
    'SwSTEP 2.0',
    'SolidWorks 2025',
    '' );
FILE_SCHEMA (( 'AUTOMOTIVE_DESIGN' ));
ENDSEC;

DATA;
#1 = ORIENTED_EDGE ( 'NONE', *, *, #110, .F. ) ;
#2 = DIRECTION ( 'NONE',  ( -0.000000000000000000, -0.000000000000000000, -1.000000000000000000 ) ) ;
#3 =( NAMED_UNIT ( * ) SI_UNIT ( $, .STERADIAN. ) SOLID_ANGLE_UNIT ( ) );
#4 = DIRECTION ( 'NONE',  ( 0.000000000000000000, 0.000000000000000000, 1.000000000000000000 ) ) ;
#5 = AXIS2_PLACEMENT_3D ( 'NONE', #148, #164, #133 ) ;
#6 = DIRECTION ( 'NONE',  ( -0.000000000000000000, -0.000000000000000000, -1.000000000000000000 ) ) ;
#7 = EDGE_LOOP ( 'NONE', ( #76, #29 ) ) ;
#8 = ADVANCED_FACE ( 'NONE', ( #112 ), #129, .F. ) ;
#9 = CYLINDRICAL_SURFACE ( 'NONE', #50, 47.62395451156050541 ) ;
#10 = AXIS2_PLACEMENT_3D ( 'NONE', #73, #12, #74 ) ;
#11 = FACE_BOUND ( 'NONE', #62, .T. ) ;
#12 = DIRECTION ( 'NONE',  ( 0.000000000000000000, 0.000000000000000000, 1.000000000000000000 ) ) ;
#13 = EDGE_CURVE ( 'NONE', #30, #158, #150, .T. ) ;
#14 = CARTESIAN_POINT ( 'NONE',  ( -24.72345276809268100, 0.000000000000000000, 100.0000000000000000 ) ) ;
#15 = FACE_OUTER_BOUND ( 'NONE', #33, .T. ) ;
#16 = CARTESIAN_POINT ( 'NONE',  ( 0.000000000000000000, 0.000000000000000000, 0.000000000000000000 ) ) ;
#17 = DIRECTION ( 'NONE',  ( -1.000000000000000000, 0.000000000000000000, 0.000000000000000000 ) ) ;
#18 = DIRECTION ( 'NONE',  ( 1.000000000000000000, 0.000000000000000000, 0.000000000000000000 ) ) ;
#19 = EDGE_CURVE ( 'NONE', #158, #30, #55, .T. ) ;
#20 = FACE_BOUND ( 'NONE', #140, .T. ) ;
#21 = PRESENTATION_STYLE_ASSIGNMENT (( #68 ) ) ;
#22 = ORIENTED_EDGE ( 'NONE', *, *, #72, .T. ) ;
#23 = CARTESIAN_POINT ( 'NONE',  ( 0.000000000000000000, 0.000000000000000000, 100.0000000000000000 ) ) ;
#24 = CARTESIAN_POINT ( 'NONE',  ( 24.72345276809268100, 3.027749729631546730E-15, 0.000000000000000000 ) ) ;
#25 = CARTESIAN_POINT ( 'NONE',  ( 0.000000000000000000, 0.000000000000000000, 100.0000000000000000 ) ) ;
#26 = PLANE ( 'NONE',  #156 ) ;
#27 = DIRECTION ( 'NONE',  ( -0.000000000000000000, -0.000000000000000000, -1.000000000000000000 ) ) ;
#28 = APPLICATION_PROTOCOL_DEFINITION ( 'draft international standard', 'automotive_design', 1998, #86 ) ;
#29 = ORIENTED_EDGE ( 'NONE', *, *, #19, .T. ) ;
#30 = VERTEX_POINT ( 'NONE', #101 ) ;
#31 = PRODUCT_DEFINITION_FORMATION_WITH_SPECIFIED_SOURCE ( 'ANY', '', #118, .NOT_KNOWN. ) ;
#32 = EDGE_CURVE ( 'NONE', #78, #159, #170, .T. ) ;
#33 = EDGE_LOOP ( 'NONE', ( #54, #77, #38, #83 ) ) ;
#34 = MANIFOLD_SOLID_BREP ( '\X2\bcf4c2a4\X0\-\X2\b3cccd9c\X0\1', #189 ) ;
#35 = CARTESIAN_POINT ( 'NONE',  ( 24.72345276809268100, 3.027749729631546730E-15, 100.0000000000000000 ) ) ;
#36 = AXIS2_PLACEMENT_3D ( 'NONE', #43, #197, #42 ) ;
#37 =( LENGTH_UNIT ( ) NAMED_UNIT ( * ) SI_UNIT ( .MILLI., .METRE. ) );
#38 = ORIENTED_EDGE ( 'NONE', *, *, #183, .F. ) ;
#39 = LINE ( 'NONE', #143, #181 ) ;
#40 = DIRECTION ( 'NONE',  ( 1.000000000000000000, 0.000000000000000000, 0.000000000000000000 ) ) ;
#41 = CARTESIAN_POINT ( 'NONE',  ( 24.72345276809268100, 3.027749729631546730E-15, 100.0000000000000000 ) ) ;
#42 = DIRECTION ( 'NONE',  ( 1.000000000000000000, 0.000000000000000000, 0.000000000000000000 ) ) ;
#43 = CARTESIAN_POINT ( 'NONE',  ( 0.000000000000000000, 0.000000000000000000, 0.000000000000000000 ) ) ;
#44 = AXIS2_PLACEMENT_3D ( 'NONE', #58, #27, #87 ) ;
#45 = DIRECTION ( 'NONE',  ( -0.000000000000000000, -0.000000000000000000, -1.000000000000000000 ) ) ;
#46 = ADVANCED_FACE ( 'NONE', ( #52, #20 ), #53, .T. ) ;
#47 = ORIENTED_EDGE ( 'NONE', *, *, #106, .T. ) ;
#48 = EDGE_CURVE ( 'NONE', #30, #98, #39, .T. ) ;
#49 = ORIENTED_EDGE ( 'NONE', *, *, #48, .T. ) ;
#50 = AXIS2_PLACEMENT_3D ( 'NONE', #176, #107, #165 ) ;
#51 = ORIENTED_EDGE ( 'NONE', *, *, #179, .F. ) ;
#52 = FACE_OUTER_BOUND ( 'NONE', #7, .T. ) ;
#53 = PLANE ( 'NONE',  #134 ) ;
#54 = ORIENTED_EDGE ( 'NONE', *, *, #173, .T. ) ;
#55 = CIRCLE ( 'NONE', #64, 47.62395451156050541 ) ;
#56 = DIRECTION ( 'NONE',  ( 1.000000000000000000, 0.000000000000000000, 0.000000000000000000 ) ) ;
#57 = UNCERTAINTY_MEASURE_WITH_UNIT (LENGTH_MEASURE( 1.000000000000000082E-05 ), #149, 'distance_accuracy_value', 'NONE');
#58 = CARTESIAN_POINT ( 'NONE',  ( 0.000000000000000000, 0.000000000000000000, 100.0000000000000000 ) ) ;
#59 = DIRECTION ( 'NONE',  ( 0.000000000000000000, 0.000000000000000000, 1.000000000000000000 ) ) ;
#60 = ADVANCED_BREP_SHAPE_REPRESENTATION ( 'Cylinder', ( #34, #195 ), #120 ) ;
#61 = CIRCLE ( 'NONE', #198, 24.72345276809268100 ) ;
#62 = EDGE_LOOP ( 'NONE', ( #123, #47 ) ) ;
#63 = UNCERTAINTY_MEASURE_WITH_UNIT (LENGTH_MEASURE( 1.000000000000000082E-05 ), #37, 'distance_accuracy_value', 'NONE');
#64 = AXIS2_PLACEMENT_3D ( 'NONE', #187, #188, #56 ) ;
#65 = EDGE_LOOP ( 'NONE', ( #138, #155, #22, #169 ) ) ;
#66 = SURFACE_SIDE_STYLE ('',( #174 ) ) ;
#67 = VECTOR ( 'NONE', #45, 1000.000000000000000 ) ;
#68 = SURFACE_STYLE_USAGE ( .BOTH. , #66 ) ;
#69 = FILL_AREA_STYLE_COLOUR ( '', #178 ) ;
#70 = CARTESIAN_POINT ( 'NONE',  ( 0.000000000000000000, 0.000000000000000000, 100.0000000000000000 ) ) ;
#71 = CYLINDRICAL_SURFACE ( 'NONE', #172, 24.72345276809268100 ) ;
#72 = EDGE_CURVE ( 'NONE', #115, #98, #142, .T. ) ;
#73 = CARTESIAN_POINT ( 'NONE',  ( 0.000000000000000000, 0.000000000000000000, 0.000000000000000000 ) ) ;
#74 = DIRECTION ( 'NONE',  ( 1.000000000000000000, 0.000000000000000000, 0.000000000000000000 ) ) ;
#75 = DIRECTION ( 'NONE',  ( 1.000000000000000000, 0.000000000000000000, -0.000000000000000000 ) ) ;
#76 = ORIENTED_EDGE ( 'NONE', *, *, #13, .T. ) ;
#77 = ORIENTED_EDGE ( 'NONE', *, *, #32, .T. ) ;
#78 = VERTEX_POINT ( 'NONE', #41 ) ;
#79 = MECHANICAL_DESIGN_GEOMETRIC_PRESENTATION_REPRESENTATION (  '', ( #167 ), #130 ) ;
#80 = CARTESIAN_POINT ( 'NONE',  ( 0.000000000000000000, 0.000000000000000000, 100.0000000000000000 ) ) ;
#81 = DIRECTION ( 'NONE',  ( -0.000000000000000000, -0.000000000000000000, -1.000000000000000000 ) ) ;
#82 = ADVANCED_FACE ( 'NONE', ( #103 ), #9, .T. ) ;
#83 = ORIENTED_EDGE ( 'NONE', *, *, #193, .F. ) ;
#84 = VECTOR ( 'NONE', #81, 1000.000000000000000 ) ;
#85 = EDGE_LOOP ( 'NONE', ( #199, #157, #141, #111 ) ) ;
#86 = APPLICATION_CONTEXT ( 'automotive_design' ) ;
#87 = DIRECTION ( 'NONE',  ( -1.000000000000000000, 0.000000000000000000, 0.000000000000000000 ) ) ;
#88 = DIRECTION ( 'NONE',  ( 0.000000000000000000, 0.000000000000000000, 1.000000000000000000 ) ) ;
#89 = DIRECTION ( 'NONE',  ( 1.000000000000000000, 0.000000000000000000, 0.000000000000000000 ) ) ;
#90 = DIRECTION ( 'NONE',  ( 0.000000000000000000, 0.000000000000000000, 1.000000000000000000 ) ) ;
#91 = ADVANCED_FACE ( 'NONE', ( #117, #11 ), #26, .F. ) ;
#92 = ORIENTED_EDGE ( 'NONE', *, *, #72, .F. ) ;
#93 = SHAPE_DEFINITION_REPRESENTATION ( #127, #60 ) ;
#94 = FILL_AREA_STYLE ('',( #69 ) ) ;
#95 = CIRCLE ( 'NONE', #10, 24.72345276809268100 ) ;
#96 = DIRECTION ( 'NONE',  ( 0.000000000000000000, 0.000000000000000000, 1.000000000000000000 ) ) ;
#97 = PRODUCT_DEFINITION ( 'UNKNOWN', '', #31, #166 ) ;
#98 = VERTEX_POINT ( 'NONE', #146 ) ;
#99 = APPLICATION_CONTEXT ( 'automotive_design' ) ;
#100 = AXIS2_PLACEMENT_3D ( 'NONE', #175, #2, #17 ) ;
#101 = CARTESIAN_POINT ( 'NONE',  ( -47.62395451156050541, 0.000000000000000000, 100.0000000000000000 ) ) ;
#102 = CARTESIAN_POINT ( 'NONE',  ( 47.62395451156050541, 5.832252345532172302E-15, 100.0000000000000000 ) ) ;
#103 = FACE_OUTER_BOUND ( 'NONE', #185, .T. ) ;
#104 = CIRCLE ( 'NONE', #125, 24.72345276809268100 ) ;
#105 = CARTESIAN_POINT ( 'NONE',  ( 47.62395451156050541, 5.832252345532172302E-15, 100.0000000000000000 ) ) ;
#106 = EDGE_CURVE ( 'NONE', #159, #153, #95, .T. ) ;
#107 = DIRECTION ( 'NONE',  ( -0.000000000000000000, -0.000000000000000000, -1.000000000000000000 ) ) ;
#108 = ORIENTED_EDGE ( 'NONE', *, *, #144, .F. ) ;
#109 = ORIENTED_EDGE ( 'NONE', *, *, #13, .F. ) ;
#110 = EDGE_CURVE ( 'NONE', #158, #115, #161, .T. ) ;
#111 = ORIENTED_EDGE ( 'NONE', *, *, #106, .F. ) ;
#112 = FACE_OUTER_BOUND ( 'NONE', #85, .T. ) ;
#113 = AXIS2_PLACEMENT_3D ( 'NONE', #70, #96, #40 ) ;
#114 = DIRECTION ( 'NONE',  ( 1.000000000000000000, 0.000000000000000000, -0.000000000000000000 ) ) ;
#115 = VERTEX_POINT ( 'NONE', #132 ) ;
#116 = DIRECTION ( 'NONE',  ( 1.000000000000000000, 0.000000000000000000, 0.000000000000000000 ) ) ;
#117 = FACE_OUTER_BOUND ( 'NONE', #145, .T. ) ;
#118 = PRODUCT ( 'Cylinder', 'Cylinder', '', ( #182 ) ) ;
#119 = DIRECTION ( 'NONE',  ( -0.000000000000000000, -0.000000000000000000, -1.000000000000000000 ) ) ;
#120 =( GEOMETRIC_REPRESENTATION_CONTEXT ( 3 ) GLOBAL_UNCERTAINTY_ASSIGNED_CONTEXT ( ( #57 ) ) GLOBAL_UNIT_ASSIGNED_CONTEXT ( ( #149, #190, #180 ) ) REPRESENTATION_CONTEXT ( 'NONE', 'WORKASPACE' ) );
#121 = VECTOR ( 'NONE', #119, 1000.000000000000000 ) ;
#122 = ORIENTED_EDGE ( 'NONE', *, *, #144, .T. ) ;
#123 = ORIENTED_EDGE ( 'NONE', *, *, #183, .T. ) ;
#124 =( NAMED_UNIT ( * ) PLANE_ANGLE_UNIT ( ) SI_UNIT ( $, .RADIAN. ) );
#125 = AXIS2_PLACEMENT_3D ( 'NONE', #147, #90, #89 ) ;
#126 = CARTESIAN_POINT ( 'NONE',  ( 0.000000000000000000, 0.000000000000000000, 0.000000000000000000 ) ) ;
#127 = PRODUCT_DEFINITION_SHAPE ( 'NONE', 'NONE',  #97 ) ;
#128 = PRODUCT_RELATED_PRODUCT_CATEGORY ( 'part', '', ( #118 ) ) ;
#129 = CYLINDRICAL_SURFACE ( 'NONE', #100, 24.72345276809268100 ) ;
#130 =( GEOMETRIC_REPRESENTATION_CONTEXT ( 3 ) GLOBAL_UNCERTAINTY_ASSIGNED_CONTEXT ( ( #63 ) ) GLOBAL_UNIT_ASSIGNED_CONTEXT ( ( #37, #124, #3 ) ) REPRESENTATION_CONTEXT ( 'NONE', 'WORKASPACE' ) );
#131 = DIRECTION ( 'NONE',  ( -0.000000000000000000, -0.000000000000000000, -1.000000000000000000 ) ) ;
#132 = CARTESIAN_POINT ( 'NONE',  ( 47.62395451156050541, 5.832252345532172302E-15, 0.000000000000000000 ) ) ;
#133 = DIRECTION ( 'NONE',  ( 1.000000000000000000, 0.000000000000000000, 0.000000000000000000 ) ) ;
#134 = AXIS2_PLACEMENT_3D ( 'NONE', #80, #4, #114 ) ;
#135 = DIRECTION ( 'NONE',  ( 0.000000000000000000, 0.000000000000000000, 1.000000000000000000 ) ) ;
#136 = CARTESIAN_POINT ( 'NONE',  ( -24.72345276809268100, 0.000000000000000000, 0.000000000000000000 ) ) ;
#137 = CIRCLE ( 'NONE', #36, 47.62395451156050541 ) ;
#138 = ORIENTED_EDGE ( 'NONE', *, *, #19, .F. ) ;
#139 = ADVANCED_FACE ( 'NONE', ( #177 ), #151, .T. ) ;
#140 = EDGE_LOOP ( 'NONE', ( #184, #51 ) ) ;
#141 = ORIENTED_EDGE ( 'NONE', *, *, #193, .T. ) ;
#142 = CIRCLE ( 'NONE', #186, 47.62395451156050541 ) ;
#143 = CARTESIAN_POINT ( 'NONE',  ( -47.62395451156050541, 0.000000000000000000, 100.0000000000000000 ) ) ;
#144 = EDGE_CURVE ( 'NONE', #98, #115, #137, .T. ) ;
#145 = EDGE_LOOP ( 'NONE', ( #108, #92 ) ) ;
#146 = CARTESIAN_POINT ( 'NONE',  ( -47.62395451156050541, 0.000000000000000000, 0.000000000000000000 ) ) ;
#147 = CARTESIAN_POINT ( 'NONE',  ( 0.000000000000000000, 0.000000000000000000, 100.0000000000000000 ) ) ;
#148 = CARTESIAN_POINT ( 'NONE',  ( 0.000000000000000000, 0.000000000000000000, 0.000000000000000000 ) ) ;
#149 =( LENGTH_UNIT ( ) NAMED_UNIT ( * ) SI_UNIT ( .MILLI., .METRE. ) );
#150 = CIRCLE ( 'NONE', #113, 47.62395451156050541 ) ;
#151 = CYLINDRICAL_SURFACE ( 'NONE', #44, 47.62395451156050541 ) ;
#152 = APPLICATION_PROTOCOL_DEFINITION ( 'draft international standard', 'automotive_design', 1998, #99 ) ;
#153 = VERTEX_POINT ( 'NONE', #136 ) ;
#154 = CIRCLE ( 'NONE', #5, 24.72345276809268100 ) ;
#155 = ORIENTED_EDGE ( 'NONE', *, *, #110, .T. ) ;
#156 = AXIS2_PLACEMENT_3D ( 'NONE', #191, #135, #75 ) ;
#157 = ORIENTED_EDGE ( 'NONE', *, *, #179, .T. ) ;
#158 = VERTEX_POINT ( 'NONE', #105 ) ;
#159 = VERTEX_POINT ( 'NONE', #24 ) ;
#160 = DIRECTION ( 'NONE',  ( 1.000000000000000000, 0.000000000000000000, 0.000000000000000000 ) ) ;
#161 = LINE ( 'NONE', #102, #121 ) ;
#162 = ADVANCED_FACE ( 'NONE', ( #15 ), #71, .F. ) ;
#163 = DIRECTION ( 'NONE',  ( -1.000000000000000000, 0.000000000000000000, 0.000000000000000000 ) ) ;
#164 = DIRECTION ( 'NONE',  ( 0.000000000000000000, 0.000000000000000000, 1.000000000000000000 ) ) ;
#165 = DIRECTION ( 'NONE',  ( -1.000000000000000000, 0.000000000000000000, 0.000000000000000000 ) ) ;
#166 = PRODUCT_DEFINITION_CONTEXT ( 'detailed design', #99, 'design' ) ;
#167 = STYLED_ITEM ( 'NONE', ( #21 ), #34 ) ;
#168 = DIRECTION ( 'NONE',  ( 0.000000000000000000, 0.000000000000000000, 1.000000000000000000 ) ) ;
#169 = ORIENTED_EDGE ( 'NONE', *, *, #48, .F. ) ;
#170 = LINE ( 'NONE', #35, #84 ) ;
#171 = VERTEX_POINT ( 'NONE', #196 ) ;
#172 = AXIS2_PLACEMENT_3D ( 'NONE', #23, #131, #163 ) ;
#173 = EDGE_CURVE ( 'NONE', #171, #78, #61, .T. ) ;
#174 = SURFACE_STYLE_FILL_AREA ( #94 ) ;
#175 = CARTESIAN_POINT ( 'NONE',  ( 0.000000000000000000, 0.000000000000000000, 100.0000000000000000 ) ) ;
#176 = CARTESIAN_POINT ( 'NONE',  ( 0.000000000000000000, 0.000000000000000000, 100.0000000000000000 ) ) ;
#177 = FACE_OUTER_BOUND ( 'NONE', #65, .T. ) ;
#178 = COLOUR_RGB ( '',0.7921568627450980005, 0.8196078431372548767, 0.9333333333333333481 ) ;
#179 = EDGE_CURVE ( 'NONE', #78, #171, #104, .T. ) ;
#180 =( NAMED_UNIT ( * ) SI_UNIT ( $, .STERADIAN. ) SOLID_ANGLE_UNIT ( ) );
#181 = VECTOR ( 'NONE', #6, 1000.000000000000000 ) ;
#182 = PRODUCT_CONTEXT ( 'NONE', #86, 'mechanical' ) ;
#183 = EDGE_CURVE ( 'NONE', #153, #159, #154, .T. ) ;
#184 = ORIENTED_EDGE ( 'NONE', *, *, #173, .F. ) ;
#185 = EDGE_LOOP ( 'NONE', ( #1, #109, #49, #122 ) ) ;
#186 = AXIS2_PLACEMENT_3D ( 'NONE', #126, #59, #160 ) ;
#187 = CARTESIAN_POINT ( 'NONE',  ( 0.000000000000000000, 0.000000000000000000, 100.0000000000000000 ) ) ;
#188 = DIRECTION ( 'NONE',  ( 0.000000000000000000, 0.000000000000000000, 1.000000000000000000 ) ) ;
#189 = CLOSED_SHELL ( 'NONE', ( #162, #139, #46, #91, #82, #8 ) ) ;
#190 =( NAMED_UNIT ( * ) PLANE_ANGLE_UNIT ( ) SI_UNIT ( $, .RADIAN. ) );
#191 = CARTESIAN_POINT ( 'NONE',  ( 0.000000000000000000, 0.000000000000000000, 0.000000000000000000 ) ) ;
#192 = LINE ( 'NONE', #14, #67 ) ;
#193 = EDGE_CURVE ( 'NONE', #171, #153, #192, .T. ) ;
#194 = PRESENTATION_LAYER_ASSIGNMENT (  '', '', ( #167 ) ) ;
#195 = AXIS2_PLACEMENT_3D ( 'NONE', #16, #168, #18 ) ;
#196 = CARTESIAN_POINT ( 'NONE',  ( -24.72345276809268100, 0.000000000000000000, 100.0000000000000000 ) ) ;
#197 = DIRECTION ( 'NONE',  ( 0.000000000000000000, 0.000000000000000000, 1.000000000000000000 ) ) ;
#198 = AXIS2_PLACEMENT_3D ( 'NONE', #25, #88, #116 ) ;
#199 = ORIENTED_EDGE ( 'NONE', *, *, #32, .F. ) ;
ENDSEC;
END-ISO-10303-21;
