ISO-10303-21;
HEADER;
FILE_DESCRIPTION (( 'STEP AP203' ),
    '1' );
FILE_NAME ('Part1.STEP',
    '2025-09-09T05:48:33',
    ( '' ),
    ( '' ),
    'SwSTEP 2.0',
    'SolidWorks 2025',
    '' );
FILE_SCHEMA (( 'CONFIG_CONTROL_DESIGN' ));
ENDSEC;

DATA;
#1 = CARTESIAN_POINT ( 'NONE',  ( -98.84565917565217319, 28.52790124928645810, 1.133426042044547222 ) ) ;
#2 = CARTESIAN_POINT ( 'NONE',  ( -72.98556875635384245, 38.27202591283862887, 129.5527071677994400 ) ) ;
#3 = CARTESIAN_POINT ( 'NONE',  ( 115.5650913302279719, 38.27202591283862887, 146.3993978960106119 ) ) ;
#4 = CARTESIAN_POINT ( 'NONE',  ( -94.20098806882438680, 28.27202591283862887, 93.00000000000002842 ) ) ;
#5 = PERSON_AND_ORGANIZATION ( #395, #490 ) ;
#6 = CARTESIAN_POINT ( 'NONE',  ( -102.1126572281436466, 34.39589531508330822, 96.81073115083015068 ) ) ;
#7 = CARTESIAN_POINT ( 'NONE',  ( -99.91062897440454549, 29.50120413906449457, 1.779869012335829170 ) ) ;
#8 = CARTESIAN_POINT ( 'NONE',  ( 104.2009880688243868, 28.27202591283862176, 93.00000000000002842 ) ) ;
#9 = APPROVAL ( #364, 'UNSPECIFIED' ) ;
#10 = PLANE ( 'NONE',  #574 ) ;
#11 = CARTESIAN_POINT ( 'NONE',  ( 104.2009880688243868, -6.727974087161338268, 93.00000000000002842 ) ) ;
#12 = DIRECTION ( 'NONE',  ( -0.000000000000000000, -0.000000000000000000, -1.000000000000000000 ) ) ;
#13 = CARTESIAN_POINT ( 'NONE',  ( -104.2009880688243868, -38.27202591283863597, 93.00000000000002842 ) ) ;
#14 = APPROVAL_PERSON_ORGANIZATION ( #544, #587, #109 ) ;
#15 = CARTESIAN_POINT ( 'NONE',  ( -104.2014880688244034, -10.65251149685989773, 0.000000000000000000 ) ) ;
#16 = CARTESIAN_POINT ( 'NONE',  ( 103.3793965663899144, 32.24870307314596118, 89.13937936524335726 ) ) ;
#17 = CARTESIAN_POINT ( 'NONE',  ( -101.1561822680898928, 35.46798919013481566, 7.705071681212897872 ) ) ;
#18 = ORIENTED_EDGE ( 'NONE', *, *, #576, .T. ) ;
#19 = DIRECTION ( 'NONE',  ( 0.000000000000000000, -0.000000000000000000, 1.000000000000000000 ) ) ;
#20 = LINE ( 'NONE', #15, #260 ) ;
#21 = EDGE_LOOP ( 'NONE', ( #522, #561, #316, #18 ) ) ;
#22 = B_SPLINE_CURVE_WITH_KNOTS ( 'NONE', 3,
 ( #612, #413, #358, #90, #346, #500, #293, #553, #33, #307, #459, #77, #663, #299, #610, #516, #562, #195, #39, #411, #556, #513, #254, #453 ),
 .UNSPECIFIED., .F., .F.,
 ( 4, 2, 2, 2, 2, 2, 2, 2, 2, 2, 2, 4 ),
 ( 1.405810660122837687E-17, 0.002024587762668907630, 0.003036881644003334123, 0.004049175525337760616, 0.006073763288006613602, 0.007086057169341040962, 0.008098351050675467455, 0.009110644932009893948, 0.01012293881334432218, 0.01214752657601317863, 0.01417211433868203335, 0.01619670210135088981 ),
 .UNSPECIFIED. ) ;
#23 = DIRECTION ( 'NONE',  ( 0.000000000000000000, 0.000000000000000000, -1.000000000000000000 ) ) ;
#24 = VECTOR ( 'NONE', #331, 1000.000000000000000 ) ;
#25 = VECTOR ( 'NONE', #139, 1000.000000000000000 ) ;
#26 = EDGE_CURVE ( 'NONE', #124, #40, #514, .T. ) ;
#27 = AXIS2_PLACEMENT_3D ( 'NONE', #270, #422, #621 ) ;
#28 = CARTESIAN_POINT ( 'NONE',  ( 100.8601981204458440, 30.51626690254665064, 2.528950483355911771 ) ) ;
#29 = VERTEX_POINT ( 'NONE', #526 ) ;
#30 = CARTESIAN_POINT ( 'NONE',  ( 94.20098806882437259, 38.27202591283863597, 93.00000000000002842 ) ) ;
#31 = CARTESIAN_POINT ( 'NONE',  ( -94.76626782438867735, 38.25977359112541620, 12.84852418171192490 ) ) ;
#32 = VERTEX_POINT ( 'NONE', #91 ) ;
#33 = CARTESIAN_POINT ( 'NONE',  ( 99.36161799489485702, -10.97020259098981576, 1.408152054712231482 ) ) ;
#34 = CARTESIAN_POINT ( 'NONE',  ( -101.1016434075264385, 35.53261427921366788, 98.50872421635939702 ) ) ;
#35 = ORIENTED_EDGE ( 'NONE', *, *, #255, .F. ) ;
#36 = LINE ( 'NONE', #599, #138 ) ;
#37 = VECTOR ( 'NONE', #437, 1000.000000000000000 ) ;
#38 = CARTESIAN_POINT ( 'NONE',  ( -104.2009880688243868, -14.22500207576443643, 9.999999999999994671 ) ) ;
#39 = CARTESIAN_POINT ( 'NONE',  ( 103.2864424547761928, -12.32502441475665833, 5.774192879329882011 ) ) ;
#40 = VERTEX_POINT ( 'NONE', #370 ) ;
#41 = VERTEX_POINT ( 'NONE', #256 ) ;
#42 = MANIFOLD_SOLID_BREP ( '\X2\d544b81b\X0\1', #372 ) ;
#43 = PLANE ( 'NONE',  #671 ) ;
#44 = EDGE_CURVE ( 'NONE', #29, #238, #313, .T. ) ;
#45 = VECTOR ( 'NONE', #560, 1000.000000000000000 ) ;
#46 = CIRCLE ( 'NONE', #196, 38.43443754699585924 ) ;
#47 = CARTESIAN_POINT ( 'NONE',  ( -102.4819958853412061, -11.83498998959631443, 4.384870172919455911 ) ) ;
#48 = DIRECTION ( 'NONE',  ( 0.000000000000000000, 0.000000000000000000, 1.000000000000000000 ) ) ;
#49 = B_SPLINE_CURVE_WITH_KNOTS ( 'NONE', 3,
 ( #366, #624, #572, #102, #167, #533, #476, #276, #108, #380, #374, #227, #431, #438, #390, #105, #632, #581, #322, #212 ),
 .UNSPECIFIED., .F., .F.,
 ( 4, 2, 2, 2, 2, 2, 2, 2, 2, 4 ),
 ( 0.000000000000000000, 0.0008356513724280760893, 0.001671302744856152179, 0.003342605489712301755, 0.004178256862140374700, 0.005013908234568447211, 0.006685210979424566213, 0.008356513724280683481, 0.01002781646913680075, 0.01337042195884903702 ),
 .UNSPECIFIED. ) ;
#50 = CARTESIAN_POINT ( 'NONE',  ( -80.24489150500637891, 38.27202591283862887, 139.2084604945643491 ) ) ;
#51 = CARTESIAN_POINT ( 'NONE',  ( -103.7373433372163447, -12.80550053962065959, 6.974042266690020142 ) ) ;
#52 = PERSON_AND_ORGANIZATION_ROLE ( 'creator' ) ;
#53 = CARTESIAN_POINT ( 'NONE',  ( -104.0402811978501916, 30.07064404016630377, 93.30875945433722052 ) ) ;
#54 = FACE_OUTER_BOUND ( 'NONE', #362, .T. ) ;
#55 = DIRECTION ( 'NONE',  ( -1.000000000000000000, 0.000000000000000000, 0.000000000000000000 ) ) ;
#56 = EDGE_CURVE ( 'NONE', #40, #387, #334, .T. ) ;
#57 = CARTESIAN_POINT ( 'NONE',  ( 74.09547789218596847, -6.727974087161338268, 90.39077530319674736 ) ) ;
#58 = CARTESIAN_POINT ( 'NONE',  ( -98.05843724876288547, 27.92309366137485327, 0.7637026213592189583 ) ) ;
#59 = VECTOR ( 'NONE', #353, 1000.000000000000000 ) ;
#60 = EDGE_LOOP ( 'NONE', ( #517, #461, #246, #659 ) ) ;
#61 = DIRECTION ( 'NONE',  ( 0.000000000000000000, 0.000000000000000000, -1.000000000000000000 ) ) ;
#62 = CARTESIAN_POINT ( 'NONE',  ( 104.2009880688243868, -6.727974087161338268, 93.00000000000002842 ) ) ;
#63 = PERSON_AND_ORGANIZATION ( #395, #490 ) ;
#64 = CARTESIAN_POINT ( 'NONE',  ( 103.8089990886390552, 31.04954349276046344, 91.15806183362833792 ) ) ;
#65 = LINE ( 'NONE', #488, #112 ) ;
#66 = CARTESIAN_POINT ( 'NONE',  ( -94.20098806882438680, -10.65251149685989773, 0.000000000000000000 ) ) ;
#67 = ADVANCED_FACE ( 'NONE', ( #420 ), #620, .T. ) ;
#68 = CARTESIAN_POINT ( 'NONE',  ( -102.8717410537641967, 33.25379695074850162, 5.018228962090123702 ) ) ;
#69 = ORIENTED_EDGE ( 'NONE', *, *, #530, .T. ) ;
#70 = CALENDAR_DATE ( 2025, 9, 9 ) ;
#71 = CARTESIAN_POINT ( 'NONE',  ( 102.8714042293210014, 33.26990202424894250, 86.75234676695670544 ) ) ;
#72 = CARTESIAN_POINT ( 'NONE',  ( 94.20098806882437259, -10.65251149685989773, 0.000000000000000000 ) ) ;
#73 = EDGE_LOOP ( 'NONE', ( #35, #609, #400, #76, #412, #555 ) ) ;
#74 = DIRECTION ( 'NONE',  ( 0.000000000000000000, 0.000000000000000000, -1.000000000000000000 ) ) ;
#75 = CARTESIAN_POINT ( 'NONE',  ( -96.09241552408087728, 38.09501668665041052, 12.44475264681733151 ) ) ;
#76 = ORIENTED_EDGE ( 'NONE', *, *, #442, .T. ) ;
#77 = CARTESIAN_POINT ( 'NONE',  ( 100.9652242453770015, -11.29399193815401148, 2.627285800251536241 ) ) ;
#78 = CARTESIAN_POINT ( 'NONE',  ( -96.33921199000889146, 38.04377250373956088, 12.32288557188787337 ) ) ;
#79 = ORIENTED_EDGE ( 'NONE', *, *, #289, .F. ) ;
#80 = CARTESIAN_POINT ( 'NONE',  ( -94.20098806882438680, 26.52638630666649533, 0.000000000000000000 ) ) ;
#81 = VECTOR ( 'NONE', #494, 1000.000000000000000 ) ;
#82 = VECTOR ( 'NONE', #656, 1000.000000000000000 ) ;
#83 = CC_DESIGN_SECURITY_CLASSIFICATION ( #430, ( #653 ) ) ;
#84 = CARTESIAN_POINT ( 'NONE',  ( 98.26705946680833392, 28.08305363491977147, 0.8614084926946795617 ) ) ;
#85 = ADVANCED_BREP_SHAPE_REPRESENTATION ( 'Part1', ( #42, #27 ), #596 ) ;
#86 = ORIENTED_EDGE ( 'NONE', *, *, #266, .F. ) ;
#87 = DIRECTION ( 'NONE',  ( 0.000000000000000000, 0.000000000000000000, 1.000000000000000000 ) ) ;
#88 = CARTESIAN_POINT ( 'NONE',  ( -103.6170424130554295, 31.66033121551262752, 94.10998669442420805 ) ) ;
#89 = ORIENTED_EDGE ( 'NONE', *, *, #214, .T. ) ;
#90 = CARTESIAN_POINT ( 'NONE',  ( 96.54934987995379458, -10.71028161629909903, 0.2737972606928359420 ) ) ;
#91 = CARTESIAN_POINT ( 'NONE',  ( 94.20098806882438680, 38.27202591283863597, 46.01046051088484745 ) ) ;
#92 = CARTESIAN_POINT ( 'NONE',  ( 104.2009880688243868, 28.27202591283862887, 93.00000000000002842 ) ) ;
#93 = CARTESIAN_POINT ( 'NONE',  ( -103.9786036741572559, -13.19674024256273093, 7.880349071407147576 ) ) ;
#94 =( NAMED_UNIT ( * ) SI_UNIT ( $, .STERADIAN. ) SOLID_ANGLE_UNIT ( ) );
#95 = CARTESIAN_POINT ( 'NONE',  ( -100.4807553708923678, -11.17169513149514337, 2.188860474383803378 ) ) ;
#96 = CARTESIAN_POINT ( 'NONE',  ( 74.09547789218596847, 38.27202591283862887, 90.39077530319674736 ) ) ;
#97 = EDGE_CURVE ( 'NONE', #505, #168, #49, .T. ) ;
#98 = CARTESIAN_POINT ( 'NONE',  ( -99.01501899332784262, 37.04164793706144820, 101.6904968865626557 ) ) ;
#99 = ORIENTED_EDGE ( 'NONE', *, *, #626, .F. ) ;
#100 = CARTESIAN_POINT ( 'NONE',  ( -102.8717410537641967, 33.25379695074850162, 5.018228962090123702 ) ) ;
#101 = CARTESIAN_POINT ( 'NONE',  ( -103.9043925826839967, 30.69810434117394138, 93.56774914364306994 ) ) ;
#102 = CARTESIAN_POINT ( 'NONE',  ( 95.30599061012129880, 38.21453106735775407, 12.73572705953785977 ) ) ;
#103 = COORDINATED_UNIVERSAL_TIME_OFFSET ( 9, 0, .AHEAD. ) ;
#104 = CARTESIAN_POINT ( 'NONE',  ( -38.55635006125898201, 38.27202591283862887, 79.77748446683965255 ) ) ;
#105 = CARTESIAN_POINT ( 'NONE',  ( 100.8745560285042728, 35.73009918894716463, 8.082403257923393980 ) ) ;
#106 = CALENDAR_DATE ( 2025, 9, 9 ) ;
#107 = CARTESIAN_POINT ( 'NONE',  ( -104.2009880688243868, -6.727974087161338268, 93.00000000000002842 ) ) ;
#108 = CARTESIAN_POINT ( 'NONE',  ( 97.69801113166867879, 37.64324944554930141, 11.42990488420862860 ) ) ;
#109 = APPROVAL_ROLE ( '' ) ;
#110 = LINE ( 'NONE', #11, #216 ) ;
#111 = CARTESIAN_POINT ( 'NONE',  ( -94.20098806882438680, 26.52638630666649533, 0.000000000000000000 ) ) ;
#112 = VECTOR ( 'NONE', #12, 1000.000000000000000 ) ;
#113 = CARTESIAN_POINT ( 'NONE',  ( -104.2014880688244034, 15.38152787385269171, 21.95921669282208910 ) ) ;
#114 = CARTESIAN_POINT ( 'NONE',  ( -104.2009880688243868, 28.27202591283862887, 9.999999999999994671 ) ) ;
#115 = ORIENTED_EDGE ( 'NONE', *, *, #392, .F. ) ;
#116 = PERSON_AND_ORGANIZATION_ROLE ( 'classification_officer' ) ;
#117 = CARTESIAN_POINT ( 'NONE',  ( -104.2009880688243868, -6.727974087161338268, 93.00000000000002842 ) ) ;
#118 = EDGE_CURVE ( 'NONE', #436, #495, #224, .T. ) ;
#119 = CARTESIAN_POINT ( 'NONE',  ( -100.8660881024127605, 30.52288367098038435, 2.534027537097660154 ) ) ;
#120 = APPROVAL_ROLE ( '' ) ;
#121 = CARTESIAN_POINT ( 'NONE',  ( 103.6697555304875493, 31.49156437239764728, 90.50376276619167015 ) ) ;
#122 = PRODUCT_DEFINITION ( 'UNKNOWN', '', #653, #368 ) ;
#123 = CARTESIAN_POINT ( 'NONE',  ( 102.8717410537641825, 33.25379695074850162, 5.018228962090125478 ) ) ;
#124 = VERTEX_POINT ( 'NONE', #114 ) ;
#125 = CALENDAR_DATE ( 2025, 9, 9 ) ;
#126 = AXIS2_PLACEMENT_3D ( 'NONE', #113, #333, #74 ) ;
#127 = DIRECTION ( 'NONE',  ( 0.000000000000000000, 1.000000000000000000, 0.000000000000000000 ) ) ;
#128 = CARTESIAN_POINT ( 'NONE',  ( -99.92601301696761595, 36.48120710421795820, 9.254448142003896649 ) ) ;
#129 = EDGE_CURVE ( 'NONE', #136, #548, #175, .T. ) ;
#130 = VERTEX_POINT ( 'NONE', #543 ) ;
#131 = CARTESIAN_POINT ( 'NONE',  ( -94.20098806882691633, 38.27202591283863597, 107.6054873098967590 ) ) ;
#132 = FACE_OUTER_BOUND ( 'NONE', #458, .T. ) ;
#133 = VERTEX_POINT ( 'NONE', #62 ) ;
#134 = CARTESIAN_POINT ( 'NONE',  ( -104.2009880688243868, -38.27202591283863597, 93.00000000000002842 ) ) ;
#135 = CARTESIAN_POINT ( 'NONE',  ( 98.85411614327456675, 28.53506658944011676, 1.137970631602141847 ) ) ;
#136 = VERTEX_POINT ( 'NONE', #484 ) ;
#137 = CARTESIAN_POINT ( 'NONE',  ( 101.1761090711319895, 35.46030038721358579, 78.78623288881375686 ) ) ;
#138 = VECTOR ( 'NONE', #509, 1000.000000000000000 ) ;
#139 = DIRECTION ( 'NONE',  ( -0.000000000000000000, -1.000000000000000000, -0.000000000000000000 ) ) ;
#140 = ORIENTED_EDGE ( 'NONE', *, *, #487, .T. ) ;
#141 = CARTESIAN_POINT ( 'NONE',  ( 98.58054143173211514, 37.27454401964408248, 66.58978007998891258 ) ) ;
#142 = EDGE_CURVE ( 'NONE', #168, #130, #550, .T. ) ;
#143 = DIRECTION ( 'NONE',  ( 0.000000000000000000, -1.000000000000000000, 0.000000000000000000 ) ) ;
#144 = DIRECTION ( 'NONE',  ( -1.000000000000000000, 0.000000000000000000, 0.000000000000000000 ) ) ;
#145 = CARTESIAN_POINT ( 'NONE',  ( -99.36869767972406464, -10.97783553147845659, 1.432059872348032892 ) ) ;
#146 = FACE_OUTER_BOUND ( 'NONE', #605, .T. ) ;
#147 = VECTOR ( 'NONE', #306, 1000.000000000000000 ) ;
#148 = CC_DESIGN_APPROVAL ( #434, ( #122 ) ) ;
#149 = CARTESIAN_POINT ( 'NONE',  ( -100.9839520597822826, -11.28985980782643139, 2.622219591438773811 ) ) ;
#150 = B_SPLINE_CURVE_WITH_KNOTS ( 'NONE', 3,
 ( #207, #2, #213, #518, #96, #311, #361, #467, #259, #618 ),
 .UNSPECIFIED., .F., .F.,
 ( 4, 1, 1, 1, 3, 4 ),
 ( 0.04841104337506711708, 0.3525559577306667802, 0.5589688659501962364, 0.7205665511229608633, 1.000000000000000000, 1.081963777357923151 ),
 .UNSPECIFIED. ) ;
#151 = ADVANCED_FACE ( 'NONE', ( #435 ), #10, .T. ) ;
#152 = DATE_AND_TIME ( #106, #617 ) ;
#153 = CARTESIAN_POINT ( 'NONE',  ( 74.09547789218596847, -6.727974087161338268, 90.39077530319674736 ) ) ;
#154 = DIRECTION ( 'NONE',  ( 0.000000000000000000, -0.000000000000000000, -1.000000000000000000 ) ) ;
#155 = MECHANICAL_CONTEXT ( 'NONE', #445, 'mechanical' ) ;
#156 = CARTESIAN_POINT ( 'NONE',  ( -99.75222079744493442, 36.60920001153247227, 100.6176294448536623 ) ) ;
#157 = CARTESIAN_POINT ( 'NONE',  ( -98.77685737052317450, -10.89762602155241744, 1.101896787102081721 ) ) ;
#158 = PERSON_AND_ORGANIZATION_ROLE ( 'design_owner' ) ;
#159 = CARTESIAN_POINT ( 'NONE',  ( -94.20098806882691633, 38.27202591283863597, 107.6054873098967590 ) ) ;
#160 = CARTESIAN_POINT ( 'NONE',  ( -95.25943022537006755, 26.61203647946962292, 0.04299510418900400616 ) ) ;
#161 = CARTESIAN_POINT ( 'NONE',  ( 94.20098806882438680, -38.27202591283863597, 9.999999999999994671 ) ) ;
#162 = EDGE_CURVE ( 'NONE', #193, #130, #529, .T. ) ;
#163 = DIRECTION ( 'NONE',  ( -1.000000000000000000, 0.000000000000000000, 0.000000000000000000 ) ) ;
#164 = SECURITY_CLASSIFICATION_LEVEL ( 'unclassified' ) ;
#165 = CARTESIAN_POINT ( 'NONE',  ( -103.7432487075220422, 31.29078802722540331, 93.87281964145539348 ) ) ;
#166 = CC_DESIGN_PERSON_AND_ORGANIZATION_ASSIGNMENT ( #637, #225, ( #653 ) ) ;
#167 = CARTESIAN_POINT ( 'NONE',  ( 95.57468021041810857, 38.18067958245689653, 12.65189542069014905 ) ) ;
#168 = VERTEX_POINT ( 'NONE', #538 ) ;
#169 = CARTESIAN_POINT ( 'NONE',  ( 103.9395774761508591, 30.55148737795252956, 91.77164366326942968 ) ) ;
#170 = CARTESIAN_POINT ( 'NONE',  ( -96.26485967960037726, 26.93570880101661658, 0.2122630618673791714 ) ) ;
#171 = ADVANCED_FACE ( 'NONE', ( #54 ), #478, .T. ) ;
#172 = PLANE ( 'NONE',  #503 ) ;
#173 = CARTESIAN_POINT ( 'NONE',  ( 104.2009880688243868, 28.27202591283862887, 9.999999999999994671 ) ) ;
#174 = ORIENTED_EDGE ( 'NONE', *, *, #44, .F. ) ;
#175 = B_SPLINE_CURVE_WITH_KNOTS ( 'NONE', 3,
 ( #111, #328, #160, #589, #170, #636, #335, #279, #58, #1, #378, #7, #536, #119, #642, #386, #269, #68 ),
 .UNSPECIFIED., .F., .F.,
 ( 4, 2, 2, 2, 2, 2, 2, 2, 4 ),
 ( 0.000000000000000000, 0.001587053597681183786, 0.002380580396521775680, 0.003174107195362367573, 0.004761160793043515797, 0.006348214390724664889, 0.007935267988405813114, 0.009522321586086960471, 0.01269642878144925865 ),
 .UNSPECIFIED. ) ;
#176 = DIRECTION ( 'NONE',  ( -1.000000000000000000, 0.000000000000000000, 0.000000000000000000 ) ) ;
#177 = CARTESIAN_POINT ( 'NONE',  ( -102.6675344253166173, 33.60921778797336401, 5.393188022292692452 ) ) ;
#178 = ORIENTED_EDGE ( 'NONE', *, *, #118, .F. ) ;
#179 = CALENDAR_DATE ( 2025, 9, 9 ) ;
#180 = CARTESIAN_POINT ( 'NONE',  ( 0.000000000000000000, 0.000000000000000000, 93.00000000000002842 ) ) ;
#181 = EDGE_CURVE ( 'NONE', #464, #495, #65, .T. ) ;
#182 = CARTESIAN_POINT ( 'NONE',  ( -99.23801168201781309, 36.92043383625957631, 10.01421198387537004 ) ) ;
#183 = EDGE_LOOP ( 'NONE', ( #539, #258 ) ) ;
#184 = PRODUCT ( 'Part1', 'Part1', '', ( #155 ) ) ;
#185 = DIRECTION ( 'NONE',  ( 1.000000000000000000, 0.000000000000000000, 0.000000000000000000 ) ) ;
#186 = CARTESIAN_POINT ( 'NONE',  ( -95.57544307210014267, 38.18058377989775209, 12.65165794066610161 ) ) ;
#187 = ORIENTED_EDGE ( 'NONE', *, *, #658, .T. ) ;
#188 = CARTESIAN_POINT ( 'NONE',  ( -94.20098806882438680, 38.27202591283863597, 12.87955993846415126 ) ) ;
#189 = LINE ( 'NONE', #645, #45 ) ;
#190 = ORIENTED_EDGE ( 'NONE', *, *, #658, .F. ) ;
#191 = CARTESIAN_POINT ( 'NONE',  ( 97.26914352328395807, 37.80053212200101598, 60.42758169949215130 ) ) ;
#192 = CARTESIAN_POINT ( 'NONE',  ( 104.2009880688243868, -48.28583607341271033, -7.806335303441103157 ) ) ;
#193 = VERTEX_POINT ( 'NONE', #440 ) ;
#194 = ADVANCED_FACE ( 'NONE', ( #132 ), #491, .F. ) ;
#195 = CARTESIAN_POINT ( 'NONE',  ( 102.9982615771260299, -12.11438214947998127, 5.200343100771777749 ) ) ;
#196 = AXIS2_PLACEMENT_3D ( 'NONE', #326, #391, #593 ) ;
#197 = EDGE_LOOP ( 'NONE', ( #394, #407, #280, #481, #512 ) ) ;
#198 = CARTESIAN_POINT ( 'NONE',  ( 94.20098806882438680, 38.27202591283863597, 46.01046051088484745 ) ) ;
#199 = ORIENTED_EDGE ( 'NONE', *, *, #223, .T. ) ;
#200 = CARTESIAN_POINT ( 'NONE',  ( -104.2014880688244034, 38.27202591283863597, 12.87955993846415126 ) ) ;
#201 = EDGE_CURVE ( 'NONE', #602, #565, #344, .T. ) ;
#202 = CARTESIAN_POINT ( 'NONE',  ( -103.2885470851871617, -12.32644562914444819, 5.778146998138938173 ) ) ;
#203 = APPLICATION_PROTOCOL_DEFINITION ( 'international standard', 'config_control_design', 1994, #253 ) ;
#204 = AXIS2_PLACEMENT_3D ( 'NONE', #4, #217, #163 ) ;
#205 = CARTESIAN_POINT ( 'NONE',  ( -38.55635006125898201, -6.727974087161338268, 79.77748446683965255 ) ) ;
#206 = CARTESIAN_POINT ( 'NONE',  ( -94.20098806882438680, -10.65251149685989773, 0.000000000000000000 ) ) ;
#207 = CARTESIAN_POINT ( 'NONE',  ( -94.20098806882691633, 38.27202591283863597, 107.6054873098967590 ) ) ;
#208 = CARTESIAN_POINT ( 'NONE',  ( -97.98236456046679166, 37.53396135250974197, 103.1242424964932098 ) ) ;
#209 = DIRECTION ( 'NONE',  ( 0.000000000000000000, -1.000000000000000000, 0.000000000000000000 ) ) ;
#210 = PERSON_AND_ORGANIZATION ( #395, #490 ) ;
#211 = CARTESIAN_POINT ( 'NONE',  ( -102.3047732089895021, 34.14031075449137376, 96.47811509629117666 ) ) ;
#212 = CARTESIAN_POINT ( 'NONE',  ( 102.8717410537641825, 33.25379695074850162, 5.018228962090125478 ) ) ;
#213 = CARTESIAN_POINT ( 'NONE',  ( -34.50449800251620047, 38.27202591283862887, 82.00394103843495941 ) ) ;
#214 = EDGE_CURVE ( 'NONE', #548, #602, #323, .T. ) ;
#215 = CARTESIAN_POINT ( 'NONE',  ( -94.84192840297446025, 38.27202591283864308, 106.9424385049439081 ) ) ;
#216 = VECTOR ( 'NONE', #127, 1000.000000000000000 ) ;
#217 = DIRECTION ( 'NONE',  ( 0.000000000000000000, 0.000000000000000000, -1.000000000000000000 ) ) ;
#218 = CARTESIAN_POINT ( 'NONE',  ( -96.61850400791566074, 37.99355978412898338, 104.8877198895732192 ) ) ;
#219 =( BOUNDED_CURVE ( )  B_SPLINE_CURVE ( 3, ( #100, #629, #566, #267 ),
 .UNSPECIFIED., .F., .T. ) 
 B_SPLINE_CURVE_WITH_KNOTS ( ( 4, 4 ),
 ( 1.049301174528338709, 1.570796326794896558 ),
 .UNSPECIFIED. ) 
 CURVE ( )  GEOMETRIC_REPRESENTATION_ITEM ( )  RATIONAL_B_SPLINE_CURVE ( ( 1.000000000000000000, 0.9774650138828550050, 0.9774650138828550050, 1.000000000000000000 ) ) 
 REPRESENTATION_ITEM ( '' )  );
#220 = CARTESIAN_POINT ( 'NONE',  ( 104.2009880688243584, 30.03033559764638483, 8.241690315192242267 ) ) ;
#221 = VERTEX_POINT ( 'NONE', #498 ) ;
#222 = LINE ( 'NONE', #535, #664 ) ;
#223 = EDGE_CURVE ( 'NONE', #387, #238, #20, .T. ) ;
#224 = LINE ( 'NONE', #480, #607 ) ;
#225 = PERSON_AND_ORGANIZATION_ROLE ( 'creator' ) ;
#226 = CARTESIAN_POINT ( 'NONE',  ( 104.1898809794479632, 28.80708829376373359, 92.94780829851370640 ) ) ;
#227 = CARTESIAN_POINT ( 'NONE',  ( 98.88385465037325162, 37.11803794020448066, 10.37904524284744667 ) ) ;
#228 = APPROVAL_DATE_TIME ( #336, #9 ) ;
#229 = DIRECTION ( 'NONE',  ( -1.000000000000000000, -0.000000000000000000, -0.000000000000000000 ) ) ;
#230 = DIRECTION ( 'NONE',  ( 1.000000000000000000, -0.000000000000000000, -0.000000000000000000 ) ) ;
#231 = CARTESIAN_POINT ( 'NONE',  ( -104.2009880688243868, -38.27202591283863597, 93.00000000000002842 ) ) ;
#232 = CARTESIAN_POINT ( 'NONE',  ( -100.8665684232882853, 35.73717942111509416, 8.092841696864512713 ) ) ;
#233 = ORIENTED_EDGE ( 'NONE', *, *, #582, .T. ) ;
#234 = CARTESIAN_POINT ( 'NONE',  ( 104.2009880688243868, -38.27202591283863597, 93.00000000000002842 ) ) ;
#235 = EDGE_CURVE ( 'NONE', #41, #611, #189, .T. ) ;
#236 = CARTESIAN_POINT ( 'NONE',  ( 102.4672961152419504, 32.58654248527106034, 4.314294130230237556 ) ) ;
#237 = AXIS2_PLACEMENT_3D ( 'NONE', #424, #209, #154 ) ;
#238 = VERTEX_POINT ( 'NONE', #72 ) ;
#239 = AXIS2_PLACEMENT_3D ( 'NONE', #161, #623, #532 ) ;
#240 = CARTESIAN_POINT ( 'NONE',  ( 104.2009880688243868, -38.27202591283863597, 29.30066667222257948 ) ) ;
#241 = CARTESIAN_POINT ( 'NONE',  ( 97.42524104960429554, 27.51714831325497812, 0.5311351897950178369 ) ) ;
#242 = EDGE_LOOP ( 'NONE', ( #432, #233, #292, #263 ) ) ;
#243 = LINE ( 'NONE', #80, #82 ) ;
#244 = LINE ( 'NONE', #557, #25 ) ;
#245 = EDGE_CURVE ( 'NONE', #168, #29, #251, .T. ) ;
#246 = ORIENTED_EDGE ( 'NONE', *, *, #181, .F. ) ;
#247 = CARTESIAN_POINT ( 'NONE',  ( 95.95544389574943978, 38.15867947380018421, 54.25456764700503953 ) ) ;
#248 = FACE_OUTER_BOUND ( 'NONE', #381, .T. ) ;
#249 = ORIENTED_EDGE ( 'NONE', *, *, #142, .T. ) ;
#250 = CARTESIAN_POINT ( 'NONE',  ( 95.07866047554935562, 38.27202591283864308, 50.13460273231585518 ) ) ;
#251 = B_SPLINE_CURVE_WITH_KNOTS ( 'NONE', 3,
 ( #123, #236, #444, #354, #28, #287, #451, #295, #135, #84, #502, #661, #241, #300, #507, #547, #454, #657, #406, #351 ),
 .UNSPECIFIED., .F., .F.,
 ( 4, 2, 2, 2, 2, 2, 2, 2, 2, 4 ),
 ( 0.009548875533027231799, 0.01270457918238612413, 0.01428243100706555815, 0.01586028283174498871, 0.01743813465642442273, 0.01822706056876411893, 0.01901598648110381859, 0.01980491239344351478, 0.02059383830578321445, 0.02217169013046260684 ),
 .UNSPECIFIED. ) ;
#252 = CARTESIAN_POINT ( 'NONE',  ( -103.9083197482372611, -13.06316215254374136, 7.577975294380277838 ) ) ;
#253 = APPLICATION_CONTEXT ( 'configuration controlled 3d designs of mechanical parts and assemblies' ) ;
#254 = CARTESIAN_POINT ( 'NONE',  ( 104.2009880688243726, -13.90833848747768009, 9.394270312788602695 ) ) ;
#255 = EDGE_CURVE ( 'NONE', #221, #41, #244, .T. ) ;
#256 = CARTESIAN_POINT ( 'NONE',  ( -104.2009880688243868, -6.727974087161338268, 93.00000000000002842 ) ) ;
#257 = PLANE ( 'NONE',  #652 ) ;
#258 = ORIENTED_EDGE ( 'NONE', *, *, #468, .F. ) ;
#259 = CARTESIAN_POINT ( 'NONE',  ( 97.53432140215771540, 38.27202591283862887, 61.67364034058990541 ) ) ;
#260 = VECTOR ( 'NONE', #230, 1000.000000000000000 ) ;
#261 = CARTESIAN_POINT ( 'NONE',  ( -104.2009880688243868, -38.27202591283863597, 93.00000000000002842 ) ) ;
#262 = VECTOR ( 'NONE', #55, 1000.000000000000000 ) ;
#263 = ORIENTED_EDGE ( 'NONE', *, *, #44, .T. ) ;
#264 = CARTESIAN_POINT ( 'NONE',  ( -104.2009880688243868, 28.27202591283862887, 93.00000000000002842 ) ) ;
#265 = ORIENTED_EDGE ( 'NONE', *, *, #235, .T. ) ;
#266 = EDGE_CURVE ( 'NONE', #193, #495, #284, .T. ) ;
#267 = CARTESIAN_POINT ( 'NONE',  ( -104.2009880688243868, 28.27202591283862887, 9.999999999999994671 ) ) ;
#268 = CARTESIAN_POINT ( 'NONE',  ( 21.75280380284546666, 38.27202591283862887, 112.9168266741539099 ) ) ;
#269 = CARTESIAN_POINT ( 'NONE',  ( -102.4663693364248047, 32.58501348281521359, 4.312681075327871483 ) ) ;
#270 = CARTESIAN_POINT ( 'NONE',  ( 0.000000000000000000, 0.000000000000000000, 0.000000000000000000 ) ) ;
#271 = CARTESIAN_POINT ( 'NONE',  ( -104.0778937467435554, 29.85194082509211455, 93.23670556044916680 ) ) ;
#272 = DIRECTION ( 'NONE',  ( 1.000000000000000000, -0.000000000000000000, -0.000000000000000000 ) ) ;
#273 = ORIENTED_EDGE ( 'NONE', *, *, #255, .T. ) ;
#274 = DATE_AND_TIME ( #179, #298 ) ;
#275 = DIRECTION ( 'NONE',  ( -0.000000000000000000, -0.000000000000000000, -1.000000000000000000 ) ) ;
#276 = CARTESIAN_POINT ( 'NONE',  ( 97.48404847237881654, 37.72061363730081496, 11.59534052224328526 ) ) ;
#277 = COORDINATED_UNIVERSAL_TIME_OFFSET ( 9, 0, .AHEAD. ) ;
#278 = PLANE ( 'NONE',  #385 ) ;
#279 = CARTESIAN_POINT ( 'NONE',  ( -97.63624766128219790, 27.63517214143070078, 0.5969785072592380670 ) ) ;
#280 = ORIENTED_EDGE ( 'NONE', *, *, #142, .F. ) ;
#281 = DATE_TIME_ROLE ( 'classification_date' ) ;
#282 = FACE_OUTER_BOUND ( 'NONE', #60, .T. ) ;
#283 = CARTESIAN_POINT ( 'NONE',  ( -96.81125125116341223, 37.92839992655800074, 12.05594603227475403 ) ) ;
#284 = CIRCLE ( 'NONE', #297, 38.43443754699585924 ) ;
#285 = ORIENTED_EDGE ( 'NONE', *, *, #162, .F. ) ;
#286 = CARTESIAN_POINT ( 'NONE',  ( 102.4518129087812639, 33.93583836396707909, 84.78070647437743901 ) ) ;
#287 = CARTESIAN_POINT ( 'NONE',  ( 100.2388967193288352, 29.83700950328921664, 2.018438841935273675 ) ) ;
#288 = ORIENTED_EDGE ( 'NONE', *, *, #214, .F. ) ;
#289 = EDGE_CURVE ( 'NONE', #565, #221, #573, .T. ) ;
#290 = DIRECTION ( 'NONE',  ( 0.000000000000000000, -0.000000000000000000, -1.000000000000000000 ) ) ;
#291 = CARTESIAN_POINT ( 'NONE',  ( -98.10431734820612348, 37.48867629408474755, 11.10329312223352183 ) ) ;
#292 = ORIENTED_EDGE ( 'NONE', *, *, #414, .F. ) ;
#293 = CARTESIAN_POINT ( 'NONE',  ( 97.84610562970740943, -10.80017784842025641, 0.6819016852571129217 ) ) ;
#294 = B_SPLINE_CURVE_WITH_KNOTS ( 'NONE', 3,
 ( #570, #460, #205, #670, #57, #479, #419 ),
 .UNSPECIFIED., .F., .F.,
 ( 4, 1, 1, 1, 4 ),
 ( 0.000000000000000000, 0.3525559577306667802, 0.5589688659501962364, 0.7205665511229608633, 1.000000000000000000 ),
 .UNSPECIFIED. ) ;
#295 = CARTESIAN_POINT ( 'NONE',  ( 99.21950846388457990, 28.85178602173984785, 1.340740173989395156 ) ) ;
#296 = ORIENTED_EDGE ( 'NONE', *, *, #442, .F. ) ;
#297 = AXIS2_PLACEMENT_3D ( 'NONE', #192, #409, #608 ) ;
#298 = LOCAL_TIME ( 14, 48, 33.00000000000000000, #277 ) ;
#299 = CARTESIAN_POINT ( 'NONE',  ( 101.6617370231384996, -11.50025983468786883, 3.333204424866594628 ) ) ;
#300 = CARTESIAN_POINT ( 'NONE',  ( 96.97695998376750026, 27.26476764582718459, 0.3901515097555545708 ) ) ;
#301 = ORIENTED_EDGE ( 'NONE', *, *, #377, .T. ) ;
#302 = CYLINDRICAL_SURFACE ( 'NONE', #341, 9.999999999999994671 ) ;
#303 = CARTESIAN_POINT ( 'NONE',  ( -80.24489150500637891, -6.727974087161338268, 139.2084604945643491 ) ) ;
#304 = VERTEX_POINT ( 'NONE', #525 ) ;
#305 = CYLINDRICAL_SURFACE ( 'NONE', #594, 10.00000000000000178 ) ;
#306 = DIRECTION ( 'NONE',  ( 0.000000000000000000, -1.000000000000000000, -0.000000000000000000 ) ) ;
#307 = CARTESIAN_POINT ( 'NONE',  ( 100.1893032843671421, -11.11877062414685824, 1.984198794474784977 ) ) ;
#308 = LOCAL_TIME ( 14, 48, 33.00000000000000000, #382 ) ;
#309 = CARTESIAN_POINT ( 'NONE',  ( -101.6704211153954134, -11.50317183855209358, 3.342851133729372481 ) ) ;
#310 = CARTESIAN_POINT ( 'NONE',  ( -99.65669127472020250, -11.02287772297003876, 1.612649581460813497 ) ) ;
#311 = CARTESIAN_POINT ( 'NONE',  ( 115.5650913302279719, 38.27202591283862887, 146.3993978960106119 ) ) ;
#312 = CYLINDRICAL_SURFACE ( 'NONE', #239, 10.00000000000000000 ) ;
#313 = LINE ( 'NONE', #563, #147 ) ;
#314 = CARTESIAN_POINT ( 'NONE',  ( -98.76202893067231514, 37.17588713373771725, 102.0505359030520225 ) ) ;
#315 = ADVANCED_FACE ( 'NONE', ( #575 ), #340, .T. ) ;
#316 = ORIENTED_EDGE ( 'NONE', *, *, #635, .T. ) ;
#317 = DATE_AND_TIME ( #375, #504 ) ;
#318 = CARTESIAN_POINT ( 'NONE',  ( -97.17678922880475056, 37.83621079692495925, 104.1876041056348896 ) ) ;
#319 = CARTESIAN_POINT ( 'NONE',  ( 103.7476906801093435, 31.72921005594896116, 6.542815856889664161 ) ) ;
#320 = DATE_TIME_ROLE ( 'creation_date' ) ;
#321 = CARTESIAN_POINT ( 'NONE',  ( 93.40895738485541244, 38.27202591283862887, 42.28874480078981435 ) ) ;
#322 = CARTESIAN_POINT ( 'NONE',  ( 102.4623163760377196, 33.96639899919474459, 5.770004227913312356 ) ) ;
#323 = B_SPLINE_CURVE_WITH_KNOTS ( 'NONE', 3,
 ( #393, #177, #554, #604, #457, #17, #232, #597, #128, #182, #339, #291, #654, #551, #283, #78, #75, #186, #591, #31, #398, #600 ),
 .UNSPECIFIED., .F., .F.,
 ( 4, 2, 2, 2, 2, 2, 2, 2, 2, 2, 4 ),
 ( 0.008583550695181713097, 0.01024120100800710552, 0.01189885132083249794, 0.01355650163365789036, 0.01521415194648328278, 0.01687180225930867694, 0.01852945257213407110, 0.01935827772854677858, 0.02018710288495948954, 0.02101592804137220050, 0.02184475319778490798 ),
 .UNSPECIFIED. ) ;
#324 = SHAPE_DEFINITION_REPRESENTATION ( #384, #85 ) ;
#325 = ADVANCED_FACE ( 'NONE', ( #248 ), #312, .T. ) ;
#326 = CARTESIAN_POINT ( 'NONE',  ( -104.2009880688243868, -48.28583607341271033, -7.806335303441103157 ) ) ;
#327 = CC_DESIGN_APPROVAL ( #587, ( #430 ) ) ;
#328 = CARTESIAN_POINT ( 'NONE',  ( -94.73916268109925909, 26.52638630666648822, -3.811648262644349985E-18 ) ) ;
#329 = ORIENTED_EDGE ( 'NONE', *, *, #468, .T. ) ;
#330 = CARTESIAN_POINT ( 'NONE',  ( 104.2009880688244010, 28.54361443184779645, 93.00000000000004263 ) ) ;
#331 = DIRECTION ( 'NONE',  ( 0.000000000000000000, 1.000000000000000000, 0.000000000000000000 ) ) ;
#332 = EDGE_LOOP ( 'NONE', ( #415, #89, #665, #633, #355, #662 ) ) ;
#333 = DIRECTION ( 'NONE',  ( 1.000000000000000000, -0.000000000000000000, -0.000000000000000000 ) ) ;
#334 = B_SPLINE_CURVE_WITH_KNOTS ( 'NONE', 3,
 ( #38, #567, #669, #93, #252, #51, #466, #202, #614, #47, #667, #616, #309, #149, #95, #310, #145, #157, #474, #360, #519, #469, #672, #206 ),
 .UNSPECIFIED., .F., .F.,
 ( 4, 2, 2, 2, 2, 2, 2, 2, 2, 2, 2, 4 ),
 ( 0.000000000000000000, 0.002024324244696319719, 0.003036486367044478277, 0.004048648489392636836, 0.006072972734088969565, 0.007085134856437146772, 0.008097296978785322244, 0.01012162122348167319, 0.01113378334582986601, 0.01214594546817805709, 0.01417026971287440804, 0.01619459395757075551 ),
 .UNSPECIFIED. ) ;
#335 = CARTESIAN_POINT ( 'NONE',  ( -96.96820088588654585, 27.26023581970117959, 0.3876647665504002194 ) ) ;
#336 = DATE_AND_TIME ( #125, #308 ) ;
#337 = CARTESIAN_POINT ( 'NONE',  ( 103.4780445829867972, 32.01533834260312261, 89.60292185238364482 ) ) ;
#338 = EDGE_CURVE ( 'NONE', #41, #133, #294, .T. ) ;
#339 = CARTESIAN_POINT ( 'NONE',  ( -98.87638836829390243, 37.12206861065220664, 10.38657756787785580 ) ) ;
#340 = B_SPLINE_SURFACE_WITH_KNOTS ( 'NONE', 3, 1, ( 
 ( #107, #365 ),
 ( #303, #50 ),
 ( #510, #104 ),
 ( #477, #268 ),
 ( #153, #426 ),
 ( #627, #3 ),
 ( #579, #676 ),
 ( #429, #634 ),
 ( #631, #569 ),
 ( #376, #321 ) ),
 .UNSPECIFIED., .F., .F., .F.,
 ( 4, 1, 1, 1, 3, 4 ),
 ( 2, 2 ),
 ( 0.000000000000000000, 0.3525559577306667802, 0.5589688659501962364, 0.7205665511229608633, 1.000000000000000000, 1.088455560022070667 ),
 ( 0.000000000000000000, 1.000000000000000000 ),
 .UNSPECIFIED. ) ;
#341 = AXIS2_PLACEMENT_3D ( 'NONE', #456, #23, #144 ) ;
#342 = ORIENTED_EDGE ( 'NONE', *, *, #392, .T. ) ;
#343 = CARTESIAN_POINT ( 'NONE',  ( -104.2009880688243868, -38.27202591283863597, 93.00000000000002842 ) ) ;
#344 = LINE ( 'NONE', #402, #81 ) ;
#345 = ORIENTED_EDGE ( 'NONE', *, *, #377, .F. ) ;
#346 = CARTESIAN_POINT ( 'NONE',  ( 96.87685871617766509, -10.72854972143052521, 0.3586603242559794347 ) ) ;
#347 = DIRECTION ( 'NONE',  ( 1.000000000000000000, -0.000000000000000000, -0.000000000000000000 ) ) ;
#348 = ORIENTED_EDGE ( 'NONE', *, *, #421, .T. ) ;
#349 = ADVANCED_FACE ( 'NONE', ( #521 ), #43, .F. ) ;
#350 = DIRECTION ( 'NONE',  ( 0.000000000000000000, 0.000000000000000000, -1.000000000000000000 ) ) ;
#351 = CARTESIAN_POINT ( 'NONE',  ( 94.20098806882437259, 26.52638630666649533, 0.000000000000000000 ) ) ;
#352 = ORIENTED_EDGE ( 'NONE', *, *, #26, .F. ) ;
#353 = DIRECTION ( 'NONE',  ( -0.000000000000000000, -0.000000000000000000, 1.000000000000000000 ) ) ;
#354 = CARTESIAN_POINT ( 'NONE',  ( 101.1555839653849773, 30.86259240736088216, 2.803113444602020277 ) ) ;
#355 = ORIENTED_EDGE ( 'NONE', *, *, #245, .T. ) ;
#356 = CARTESIAN_POINT ( 'NONE',  ( -102.8717410537641967, 33.25379695074850162, 5.018228962090123702 ) ) ;
#357 = ORIENTED_EDGE ( 'NONE', *, *, #56, .T. ) ;
#358 = CARTESIAN_POINT ( 'NONE',  ( 95.55804153886046493, -10.66674927782200299, 0.06955703063695856114 ) ) ;
#359 = ADVANCED_FACE ( 'NONE', ( #646 ), #278, .F. ) ;
#360 = CARTESIAN_POINT ( 'NONE',  ( -97.54747896888288494, -10.77037633702588160, 0.5525666322482776227 ) ) ;
#361 = CARTESIAN_POINT ( 'NONE',  ( 104.2009880688243868, 38.27202591283862887, 93.00000000000002842 ) ) ;
#362 = EDGE_LOOP ( 'NONE', ( #79, #417, #288, #187, #452 ) ) ;
#363 = CC_DESIGN_PERSON_AND_ORGANIZATION_ASSIGNMENT ( #63, #116, ( #430 ) ) ;
#364 = APPROVAL_STATUS ( 'not_yet_approved' ) ;
#365 = CARTESIAN_POINT ( 'NONE',  ( -104.2009880688243868, 38.27202591283862887, 93.00000000000002842 ) ) ;
#366 = CARTESIAN_POINT ( 'NONE',  ( 94.20098806882437259, 38.27202591283863597, 12.87955993846415126 ) ) ;
#367 = ADVANCED_FACE ( 'NONE', ( #489 ), #446, .F. ) ;
#368 = DESIGN_CONTEXT ( 'detailed design', #253, 'design' ) ;
#369 = CARTESIAN_POINT ( 'NONE',  ( -103.3345895622777846, 32.36103752891737173, 94.63402092719522329 ) ) ;
#370 = CARTESIAN_POINT ( 'NONE',  ( -104.2009880688243868, -14.22500207576443643, 9.999999999999994671 ) ) ;
#371 = APPROVAL_STATUS ( 'not_yet_approved' ) ;
#372 = CLOSED_SHELL ( 'NONE', ( #675, #349, #367, #403, #359, #151, #315, #67, #194, #462, #511, #171, #613, #325 ) ) ;
#373 = CARTESIAN_POINT ( 'NONE',  ( -102.8479174979063373, 33.30717882452927370, 95.51859875281466827 ) ) ;
#374 = CARTESIAN_POINT ( 'NONE',  ( 98.30739260573869842, 37.39248280004727576, 10.91506784181421175 ) ) ;
#375 = CALENDAR_DATE ( 2025, 9, 9 ) ;
#376 = CARTESIAN_POINT ( 'NONE',  ( 93.40895738485541244, -6.727974087161338268, 42.28874480078981435 ) ) ;
#377 = EDGE_CURVE ( 'NONE', #464, #133, #222, .T. ) ;
#378 = CARTESIAN_POINT ( 'NONE',  ( -99.21339180910156585, 28.84623670264195638, 1.337069694988523905 ) ) ;
#379 = CARTESIAN_POINT ( 'NONE',  ( -98.24555344383543343, 37.42207123030776472, 102.7675881910481621 ) ) ;
#380 = CARTESIAN_POINT ( 'NONE',  ( 98.10926762119694899, 37.47932474271276959, 11.09008480286202492 ) ) ;
#381 = EDGE_LOOP ( 'NONE', ( #99, #174, #448, #249, #285 ) ) ;
#382 = COORDINATED_UNIVERSAL_TIME_OFFSET ( 9, 0, .AHEAD. ) ;
#383 = DIRECTION ( 'NONE',  ( 0.000000000000000000, -1.000000000000000000, 0.000000000000000000 ) ) ;
#384 = PRODUCT_DEFINITION_SHAPE ( 'NONE', 'NONE',  #122 ) ;
#385 = AXIS2_PLACEMENT_3D ( 'NONE', #180, #580, #583 ) ;
#386 = CARTESIAN_POINT ( 'NONE',  ( -101.9881180710525115, 31.90217640936462118, 3.675597807321285604 ) ) ;
#387 = VERTEX_POINT ( 'NONE', #66 ) ;
#388 = DATE_AND_TIME ( #70, #630 ) ;
#389 = LINE ( 'NONE', #541, #534 ) ;
#390 = CARTESIAN_POINT ( 'NONE',  ( 100.2588033409927846, 36.23834503979774269, 8.858702070151311503 ) ) ;
#391 = DIRECTION ( 'NONE',  ( 1.000000000000000000, 0.000000000000000000, 0.000000000000000000 ) ) ;
#392 = EDGE_CURVE ( 'NONE', #133, #304, #110, .T. ) ;
#393 = CARTESIAN_POINT ( 'NONE',  ( -102.8717410537641967, 33.25379695074850162, 5.018228962090123702 ) ) ;
#394 = ORIENTED_EDGE ( 'NONE', *, *, #487, .F. ) ;
#395 = PERSON ( 'UNSPECIFIED', 'UNSPECIFIED', 'UNSPECIFIED', ('UNSPECIFIED'), ('UNSPECIFIED'), ('UNSPECIFIED') ) ;
#396 = CARTESIAN_POINT ( 'NONE',  ( -104.2009880688243868, 38.27202591283863597, 93.00000000000002842 ) ) ;
#397 = CC_DESIGN_PERSON_AND_ORGANIZATION_ASSIGNMENT ( #5, #485, ( #653 ) ) ;
#398 = CARTESIAN_POINT ( 'NONE',  ( -94.48403369018819831, 38.27202591283863597, 12.87955993846414060 ) ) ;
#399 = VECTOR ( 'NONE', #350, 1000.000000000000000 ) ;
#400 = ORIENTED_EDGE ( 'NONE', *, *, #26, .T. ) ;
#401 = CARTESIAN_POINT ( 'NONE',  ( 99.88364813004388054, 36.51624601029156025, 72.71301844587408425 ) ) ;
#402 = CARTESIAN_POINT ( 'NONE',  ( -94.20098806882438680, 38.27202591283863597, 93.00000000000002842 ) ) ;
#403 = ADVANCED_FACE ( 'NONE', ( #282 ), #172, .F. ) ;
#404 = ORIENTED_EDGE ( 'NONE', *, *, #635, .F. ) ;
#405 = CARTESIAN_POINT ( 'NONE',  ( 97.70712540170295313, 37.64927609212419668, 62.48563837664086407 ) ) ;
#406 = CARTESIAN_POINT ( 'NONE',  ( 94.74053244315435052, 26.52638630666648467, -4.503203606691527252E-15 ) ) ;
#407 = ORIENTED_EDGE ( 'NONE', *, *, #530, .F. ) ;
#408 = LINE ( 'NONE', #30, #399 ) ;
#409 = DIRECTION ( 'NONE',  ( 1.000000000000000000, 0.000000000000000000, 0.000000000000000000 ) ) ;
#410 = EDGE_LOOP ( 'NONE', ( #301, #329, #265, #348 ) ) ;
#411 = CARTESIAN_POINT ( 'NONE',  ( 103.7478470931453529, -12.79418391089997975, 6.956907824258701467 ) ) ;
#412 = ORIENTED_EDGE ( 'NONE', *, *, #450, .F. ) ;
#413 = CARTESIAN_POINT ( 'NONE',  ( 94.88555698583554943, -10.65251149685989773, -0.000000000000000000 ) ) ;
#414 = EDGE_CURVE ( 'NONE', #29, #136, #389, .T. ) ;
#415 = ORIENTED_EDGE ( 'NONE', *, *, #129, .T. ) ;
#416 = APPROVAL_DATE_TIME ( #317, #434 ) ;
#417 = ORIENTED_EDGE ( 'NONE', *, *, #201, .F. ) ;
#418 = PERSON_AND_ORGANIZATION ( #395, #490 ) ;
#419 = CARTESIAN_POINT ( 'NONE',  ( 104.2009880688243868, -6.727974087161338268, 93.00000000000002842 ) ) ;
#420 = FACE_OUTER_BOUND ( 'NONE', #183, .T. ) ;
#421 = EDGE_CURVE ( 'NONE', #611, #464, #588, .T. ) ;
#422 = DIRECTION ( 'NONE',  ( 0.000000000000000000, 0.000000000000000000, 1.000000000000000000 ) ) ;
#423 = CARTESIAN_POINT ( 'NONE',  ( -101.5203054537395388, 35.11400913321871542, 97.81877203769109030 ) ) ;
#424 = CARTESIAN_POINT ( 'NONE',  ( 10.59303534076463649, -6.727974087161338268, 103.7037296495863785 ) ) ;
#425 = APPLICATION_PROTOCOL_DEFINITION ( 'international standard', 'config_control_design', 1994, #445 ) ;
#426 = CARTESIAN_POINT ( 'NONE',  ( 74.09547789218596847, 38.27202591283862887, 90.39077530319674736 ) ) ;
#427 = CARTESIAN_POINT ( 'NONE',  ( 0.000000000000000000, 0.000000000000000000, 0.000000000000000000 ) ) ;
#428 = LINE ( 'NONE', #200, #262 ) ;
#429 = CARTESIAN_POINT ( 'NONE',  ( 100.6036445075014001, -6.727974087161338268, 76.09624826692996180 ) ) ;
#430 = SECURITY_CLASSIFICATION ( '', '', #164 ) ;
#431 = CARTESIAN_POINT ( 'NONE',  ( 99.24455597457003364, 36.91660016288717117, 10.00730819765931123 ) ) ;
#432 = ORIENTED_EDGE ( 'NONE', *, *, #223, .F. ) ;
#433 = CARTESIAN_POINT ( 'NONE',  ( -102.6727375590063218, 33.59532950706793741, 95.83144329759353752 ) ) ;
#434 = APPROVAL ( #371, 'UNSPECIFIED' ) ;
#435 = FACE_OUTER_BOUND ( 'NONE', #242, .T. ) ;
#436 = VERTEX_POINT ( 'NONE', #486 ) ;
#437 = DIRECTION ( 'NONE',  ( 1.000000000000000000, 0.000000000000000000, 0.000000000000000000 ) ) ;
#438 = CARTESIAN_POINT ( 'NONE',  ( 99.93156990668123285, 36.47730914890642140, 9.247982780814268722 ) ) ;
#439 = CARTESIAN_POINT ( 'NONE',  ( 103.7630031551291410, 31.20304154311268974, 90.94192906022792044 ) ) ;
#440 = CARTESIAN_POINT ( 'NONE',  ( 104.2009880688243868, -14.22500207576443643, 9.999999999999994671 ) ) ;
#441 = APPROVAL_STATUS ( 'not_yet_approved' ) ;
#442 = EDGE_CURVE ( 'NONE', #40, #436, #46, .T. ) ;
#443 = CARTESIAN_POINT ( 'NONE',  ( 104.1499362632030454, 29.31255614159588063, 92.76010991637632230 ) ) ;
#444 = CARTESIAN_POINT ( 'NONE',  ( 101.9884070818929445, 31.90212318512185163, 3.675252904835992318 ) ) ;
#445 = APPLICATION_CONTEXT ( 'configuration controlled 3d designs of mechanical parts and assemblies' ) ;
#446 = PLANE ( 'NONE',  #472 ) ;
#447 = CARTESIAN_POINT ( 'NONE',  ( -104.2014880688244034, -48.28583607341271033, -7.806335303441103157 ) ) ;
#448 = ORIENTED_EDGE ( 'NONE', *, *, #245, .F. ) ;
#449 = LINE ( 'NONE', #117, #524 ) ;
#450 = EDGE_CURVE ( 'NONE', #611, #436, #497, .T. ) ;
#451 = CARTESIAN_POINT ( 'NONE',  ( 99.91198773821213308, 29.50267917716530519, 1.780948323179263548 ) ) ;
#452 = ORIENTED_EDGE ( 'NONE', *, *, #496, .F. ) ;
#453 = CARTESIAN_POINT ( 'NONE',  ( 104.2009880688243868, -14.22500207576443643, 9.999999999999994671 ) ) ;
#454 = CARTESIAN_POINT ( 'NONE',  ( 96.02317450722200931, 26.84425323155749155, 0.1640661748710945389 ) ) ;
#455 = ORIENTED_EDGE ( 'NONE', *, *, #181, .T. ) ;
#456 = CARTESIAN_POINT ( 'NONE',  ( 94.20098806882437259, 28.27202591283863597, 93.00000000000002842 ) ) ;
#457 = CARTESIAN_POINT ( 'NONE',  ( -101.7030929485088535, 34.89584929604459518, 6.931314721693080827 ) ) ;
#458 = EDGE_LOOP ( 'NONE', ( #296, #357, #199, #655, #643, #178 ) ) ;
#459 = CARTESIAN_POINT ( 'NONE',  ( 100.4576179323196783, -11.17394815150866094, 2.191902378006891361 ) ) ;
#460 = CARTESIAN_POINT ( 'NONE',  ( -80.24489150500637891, -6.727974087161338268, 139.2084604945643491 ) ) ;
#461 = ORIENTED_EDGE ( 'NONE', *, *, #118, .T. ) ;
#462 = ADVANCED_FACE ( 'NONE', ( #549 ), #482, .T. ) ;
#463 = CARTESIAN_POINT ( 'NONE',  ( -94.20098806882438680, -38.27202591283863597, 9.999999999999994671 ) ) ;
#464 = VERTEX_POINT ( 'NONE', #234 ) ;
#465 = CARTESIAN_POINT ( 'NONE',  ( 99.01596646786693157, 37.05130682891483929, 68.63582227298942939 ) ) ;
#466 = CARTESIAN_POINT ( 'NONE',  ( -103.6359380906628616, -12.68076045316262679, 6.670786730065247916 ) ) ;
#467 = CARTESIAN_POINT ( 'NONE',  ( 100.8676547354910582, 38.27202591283862887, 77.33682017029497047 ) ) ;
#468 = EDGE_CURVE ( 'NONE', #133, #41, #449, .T. ) ;
#469 = CARTESIAN_POINT ( 'NONE',  ( -95.56424105309247352, -10.66678029046558684, 0.06975912490953406486 ) ) ;
#470 = AXIS2_PLACEMENT_3D ( 'NONE', #447, #347, #648 ) ;
#471 =( NAMED_UNIT ( * ) PLANE_ANGLE_UNIT ( ) SI_UNIT ( $, .RADIAN. ) );
#472 = AXIS2_PLACEMENT_3D ( 'NONE', #396, #383, #290 ) ;
#473 = CARTESIAN_POINT ( 'NONE',  ( -95.45103336351962753, 38.21134132626706759, 106.2651287439684182 ) ) ;
#474 = CARTESIAN_POINT ( 'NONE',  ( -98.47433265460354335, -10.86255146851482678, 0.9528028817338850542 ) ) ;
#475 = CARTESIAN_POINT ( 'NONE',  ( -104.1685550936490614, 29.19137090114158539, 93.06269226311557929 ) ) ;
#476 = CARTESIAN_POINT ( 'NONE',  ( 96.81856569961955472, 37.93460681794568501, 12.06517017507688294 ) ) ;
#477 = CARTESIAN_POINT ( 'NONE',  ( 21.75280380284546666, -6.727974087161338268, 112.9168266741539099 ) ) ;
#478 = CYLINDRICAL_SURFACE ( 'NONE', #204, 9.999999999999994671 ) ;
#479 = CARTESIAN_POINT ( 'NONE',  ( 115.5650913302279719, -6.727974087161338268, 146.3993978960106119 ) ) ;
#480 = CARTESIAN_POINT ( 'NONE',  ( -104.2014880688244034, -38.27202591283863597, 29.30066667222257948 ) ) ;
#481 = ORIENTED_EDGE ( 'NONE', *, *, #97, .F. ) ;
#482 = CYLINDRICAL_SURFACE ( 'NONE', #126, 24.62549628433460214 ) ;
#483 = PRODUCT_RELATED_PRODUCT_CATEGORY ( 'detail', '', ( #184 ) ) ;
#484 = CARTESIAN_POINT ( 'NONE',  ( -94.20098806882438680, 26.52638630666649533, 0.000000000000000000 ) ) ;
#485 = PERSON_AND_ORGANIZATION_ROLE ( 'design_supplier' ) ;
#486 = CARTESIAN_POINT ( 'NONE',  ( -104.2009880688243868, -38.27202591283863597, 29.30066667222257948 ) ) ;
#487 = EDGE_CURVE ( 'NONE', #304, #32, #528, .T. ) ;
#488 = CARTESIAN_POINT ( 'NONE',  ( 104.2009880688243868, -38.27202591283863597, 93.00000000000002842 ) ) ;
#489 = FACE_OUTER_BOUND ( 'NONE', #21, .T. ) ;
#490 = ORGANIZATION ( 'UNSPECIFIED', 'UNSPECIFIED', '' ) ;
#491 = CYLINDRICAL_SURFACE ( 'NONE', #470, 38.43443754699585924 ) ;
#492 = APPROVAL_DATE_TIME ( #388, #587 ) ;
#493 = CARTESIAN_POINT ( 'NONE',  ( 103.6222983023703392, 31.62731351030769034, 90.28076343672621817 ) ) ;
#494 = DIRECTION ( 'NONE',  ( -0.000000000000000000, -0.000000000000000000, 1.000000000000000000 ) ) ;
#495 = VERTEX_POINT ( 'NONE', #240 ) ;
#496 = EDGE_CURVE ( 'NONE', #221, #124, #36, .T. ) ;
#497 = LINE ( 'NONE', #231, #546 ) ;
#498 = CARTESIAN_POINT ( 'NONE',  ( -104.2009880688243868, 28.27202591283862887, 93.00000000000002842 ) ) ;
#499 = EDGE_LOOP ( 'NONE', ( #558, #352, #190, #592, #586 ) ) ;
#500 = CARTESIAN_POINT ( 'NONE',  ( 97.52585060301714748, -10.77350854828073423, 0.5627862378155268352 ) ) ;
#501 = CC_DESIGN_DATE_AND_TIME_ASSIGNMENT ( #152, #320, ( #122 ) ) ;
#502 = CARTESIAN_POINT ( 'NONE',  ( 98.06481062651228342, 27.93628404943554955, 0.7738446040274070681 ) ) ;
#503 = AXIS2_PLACEMENT_3D ( 'NONE', #343, #537, #19 ) ;
#504 = LOCAL_TIME ( 14, 48, 33.00000000000000000, #103 ) ;
#505 = VERTEX_POINT ( 'NONE', #564 ) ;
#506 = DIRECTION ( 'NONE',  ( -0.000000000000000000, 1.000000000000000000, 0.000000000000000000 ) ) ;
#507 = CARTESIAN_POINT ( 'NONE',  ( 96.74654964559364601, 27.14788954654902753, 0.3263246680436858727 ) ) ;
#508 = ORIENTED_EDGE ( 'NONE', *, *, #162, .T. ) ;
#509 = DIRECTION ( 'NONE',  ( 0.000000000000000000, 0.000000000000000000, -1.000000000000000000 ) ) ;
#510 = CARTESIAN_POINT ( 'NONE',  ( -38.55635006125898201, -6.727974087161338268, 79.77748446683965255 ) ) ;
#511 = ADVANCED_FACE ( 'NONE', ( #666 ), #305, .T. ) ;
#512 = ORIENTED_EDGE ( 'NONE', *, *, #576, .F. ) ;
#513 = CARTESIAN_POINT ( 'NONE',  ( 104.1463840478270413, -13.61133709198919561, 8.786811768174056070 ) ) ;
#514 = LINE ( 'NONE', #674, #651 ) ;
#515 = CC_DESIGN_PERSON_AND_ORGANIZATION_ASSIGNMENT ( #210, #158, ( #184 ) ) ;
#516 = CARTESIAN_POINT ( 'NONE',  ( 102.2818535484405231, -11.74114596506004027, 4.100195717637123316 ) ) ;
#517 = ORIENTED_EDGE ( 'NONE', *, *, #450, .T. ) ;
#518 = CARTESIAN_POINT ( 'NONE',  ( 21.75280380284546666, 38.27202591283862887, 112.9168266741539099 ) ) ;
#519 = CARTESIAN_POINT ( 'NONE',  ( -96.90407765250776606, -10.72610592431795595, 0.3479821156912673019 ) ) ;
#520 = DIRECTION ( 'NONE',  ( -1.000000000000000000, 0.000000000000000000, 0.000000000000000000 ) ) ;
#521 = FACE_OUTER_BOUND ( 'NONE', #73, .T. ) ;
#522 = ORIENTED_EDGE ( 'NONE', *, *, #647, .T. ) ;
#523 = CARTESIAN_POINT ( 'NONE',  ( 104.2009880688243868, -38.27202591283863597, 93.00000000000002842 ) ) ;
#524 = VECTOR ( 'NONE', #229, 1000.000000000000000 ) ;
#525 = CARTESIAN_POINT ( 'NONE',  ( 104.2009880688243868, 28.27202591283862176, 93.00000000000002842 ) ) ;
#526 = CARTESIAN_POINT ( 'NONE',  ( 94.20098806882437259, 26.52638630666649533, 0.000000000000000000 ) ) ;
#527 = CARTESIAN_POINT ( 'NONE',  ( -103.9533780391208779, 30.49409843958179778, 93.47457241117496096 ) ) ;
#528 = B_SPLINE_CURVE_WITH_KNOTS ( 'NONE', 3,
 ( #8, #330, #226, #443, #638, #644, #650, #169, #590, #64, #439, #121, #493, #337, #16, #545, #71, #286, #668, #603, #137, #660, #401, #465, #141, #405, #191, #247, #250, #198 ),
 .UNSPECIFIED., .F., .F.,
 ( 4, 2, 2, 2, 2, 2, 2, 2, 2, 2, 2, 2, 2, 2, 4 ),
 ( 1.387778780781445676E-17, 0.0008019118083542082099, 0.001603823616708402542, 0.002405735425062596657, 0.003207647233416791206, 0.004009559041770985321, 0.004811470850125173365, 0.006415294466833561596, 0.009622941700250318975, 0.01283058893366707635, 0.01924588340050059632, 0.02566117786733411107, 0.03207647233416763277, 0.03849176680100114406, 0.05132235573466818745 ),
 .UNSPECIFIED. ) ;
#529 = LINE ( 'NONE', #585, #24 ) ;
#530 = EDGE_CURVE ( 'NONE', #130, #304, #559, .T. ) ;
#531 = PERSON_AND_ORGANIZATION ( #395, #490 ) ;
#532 = DIRECTION ( 'NONE',  ( 0.000000000000000000, 0.000000000000000000, -1.000000000000000000 ) ) ;
#533 = CARTESIAN_POINT ( 'NONE',  ( 96.34903487901657115, 38.05260286302341655, 12.34218239608677159 ) ) ;
#534 = VECTOR ( 'NONE', #176, 1000.000000000000000 ) ;
#535 = CARTESIAN_POINT ( 'NONE',  ( 104.2009880688243868, -38.27202591283863597, 93.00000000000002842 ) ) ;
#536 = CARTESIAN_POINT ( 'NONE',  ( -100.2399583615324161, 29.83799477588410909, 2.019076426982525874 ) ) ;
#537 = DIRECTION ( 'NONE',  ( 0.000000000000000000, 1.000000000000000000, 0.000000000000000000 ) ) ;
#538 = CARTESIAN_POINT ( 'NONE',  ( 102.8717410537641825, 33.25379695074850162, 5.018228962090125478 ) ) ;
#539 = ORIENTED_EDGE ( 'NONE', *, *, #338, .F. ) ;
#540 = COORDINATED_UNIVERSAL_TIME_OFFSET ( 9, 0, .AHEAD. ) ;
#541 = CARTESIAN_POINT ( 'NONE',  ( -104.2014880688244034, 26.52638630666649533, 0.000000000000000000 ) ) ;
#542 = CC_DESIGN_PERSON_AND_ORGANIZATION_ASSIGNMENT ( #418, #52, ( #122 ) ) ;
#543 = CARTESIAN_POINT ( 'NONE',  ( 104.2009880688243868, 28.27202591283862887, 9.999999999999994671 ) ) ;
#544 = PERSON_AND_ORGANIZATION ( #395, #490 ) ;
#545 = CARTESIAN_POINT ( 'NONE',  ( 103.0786491393949973, 32.89973690835741849, 87.72618105554073509 ) ) ;
#546 = VECTOR ( 'NONE', #275, 1000.000000000000000 ) ;
#547 = CARTESIAN_POINT ( 'NONE',  ( 96.27035632615768179, 26.93785175199081650, 0.2133972602968421117 ) ) ;
#548 = VERTEX_POINT ( 'NONE', #356 ) ;
#549 = FACE_OUTER_BOUND ( 'NONE', #332, .T. ) ;
#550 =( BOUNDED_CURVE ( )  B_SPLINE_CURVE ( 3, ( #577, #319, #220, #173 ),
 .UNSPECIFIED., .F., .T. ) 
 B_SPLINE_CURVE_WITH_KNOTS ( ( 4, 4 ),
 ( 1.049301174528338709, 1.570796326794896780 ),
 .UNSPECIFIED. ) 
 CURVE ( )  GEOMETRIC_REPRESENTATION_ITEM ( )  RATIONAL_B_SPLINE_CURVE ( ( 1.000000000000000000, 0.9774650138828550050, 0.9774650138828550050, 1.000000000000000000 ) ) 
 REPRESENTATION_ITEM ( '' )  );
#551 = CARTESIAN_POINT ( 'NONE',  ( -97.03743736285895238, 37.86407268207513965, 11.91038791738549918 ) ) ;
#552 = EDGE_LOOP ( 'NONE', ( #404, #598, #273, #649, #342, #140 ) ) ;
#553 = CARTESIAN_POINT ( 'NONE',  ( 98.77577443871591356, -10.89232784304127399, 1.082226588809150902 ) ) ;
#554 = CARTESIAN_POINT ( 'NONE',  ( -102.4422291840290029, 33.95033719370410097, 5.776967337606722985 ) ) ;
#555 = ORIENTED_EDGE ( 'NONE', *, *, #235, .F. ) ;
#556 = CARTESIAN_POINT ( 'NONE',  ( 103.9210116120438556, -13.05495190970754926, 7.570212111260930854 ) ) ;
#557 = CARTESIAN_POINT ( 'NONE',  ( -104.2009880688243868, -38.27202591283863597, 93.00000000000002842 ) ) ;
#558 = ORIENTED_EDGE ( 'NONE', *, *, #56, .F. ) ;
#559 = LINE ( 'NONE', #92, #59 ) ;
#560 = DIRECTION ( 'NONE',  ( -0.000000000000000000, -1.000000000000000000, -0.000000000000000000 ) ) ;
#561 = ORIENTED_EDGE ( 'NONE', *, *, #201, .T. ) ;
#562 = CARTESIAN_POINT ( 'NONE',  ( 102.4725382189208460, -11.83024082161507096, 4.370733618224926786 ) ) ;
#563 = CARTESIAN_POINT ( 'NONE',  ( 94.20098806882438680, -10.65251149685989773, 0.000000000000000000 ) ) ;
#564 = CARTESIAN_POINT ( 'NONE',  ( 94.20098806882437259, 38.27202591283863597, 12.87955993846415126 ) ) ;
#565 = VERTEX_POINT ( 'NONE', #131 ) ;
#566 = CARTESIAN_POINT ( 'NONE',  ( -104.2009880688243726, 30.03033559764638127, 8.241690315192242267 ) ) ;
#567 = CARTESIAN_POINT ( 'NONE',  ( -104.2009880688244010, -13.90826267594015597, 9.394125296750708287 ) ) ;
#568 =( LENGTH_UNIT ( ) NAMED_UNIT ( * ) SI_UNIT ( .MILLI., .METRE. ) );
#569 = CARTESIAN_POINT ( 'NONE',  ( 97.00630094617839916, 38.27202591283862887, 59.19249653385988097 ) ) ;
#570 = CARTESIAN_POINT ( 'NONE',  ( -104.2009880688243868, -6.727974087161338268, 93.00000000000002842 ) ) ;
#571 = CARTESIAN_POINT ( 'NONE',  ( -100.2176371352097419, 36.28046655640098095, 99.90803479476268478 ) ) ;
#572 = CARTESIAN_POINT ( 'NONE',  ( 94.76221604504890195, 38.25999179797335614, 12.84907485404571048 ) ) ;
#573 = B_SPLINE_CURVE_WITH_KNOTS ( 'NONE', 3,
 ( #159, #215, #473, #218, #318, #208, #379, #314, #98, #156, #571, #34, #423, #6, #211, #433, #373, #619, #369, #88, #165, #101, #527, #53, #271, #475, #673, #264 ),
 .UNSPECIFIED., .F., .F.,
 ( 4, 2, 2, 2, 2, 2, 2, 2, 2, 2, 2, 2, 2, 4 ),
 ( 2.592584715281538101E-16, 0.002726485734985006296, 0.005452971469969753252, 0.006816214337462113936, 0.008179457204954476354, 0.01090594293993914221, 0.01363242867492380807, 0.01499567154241614707, 0.01635891440990848433, 0.01772215727740082333, 0.01908540014489315886, 0.01976702157863934051, 0.02044864301238552562, 0.02181188587987787850 ),
 .UNSPECIFIED. ) ;
#574 = AXIS2_PLACEMENT_3D ( 'NONE', #427, #639, #628 ) ;
#575 = FACE_OUTER_BOUND ( 'NONE', #552, .T. ) ;
#576 = EDGE_CURVE ( 'NONE', #32, #505, #408, .T. ) ;
#577 = CARTESIAN_POINT ( 'NONE',  ( 102.8717410537641825, 33.25379695074850162, 5.018228962090125478 ) ) ;
#578 = COORDINATED_UNIVERSAL_TIME_OFFSET ( 9, 0, .AHEAD. ) ;
#579 = CARTESIAN_POINT ( 'NONE',  ( 104.2009880688243868, -6.727974087161338268, 93.00000000000002842 ) ) ;
#580 = DIRECTION ( 'NONE',  ( 0.000000000000000000, 0.000000000000000000, -1.000000000000000000 ) ) ;
#581 = CARTESIAN_POINT ( 'NONE',  ( 101.9823582178286046, 34.60250673601863980, 6.535434664870575006 ) ) ;
#582 = EDGE_CURVE ( 'NONE', #387, #136, #243, .T. ) ;
#583 = DIRECTION ( 'NONE',  ( -1.000000000000000000, 0.000000000000000000, -0.000000000000000000 ) ) ;
#584 = CC_DESIGN_APPROVAL ( #9, ( #653 ) ) ;
#585 = CARTESIAN_POINT ( 'NONE',  ( 104.2009880688243868, 26.52638630666649533, 9.999999999999994671 ) ) ;
#586 = ORIENTED_EDGE ( 'NONE', *, *, #582, .F. ) ;
#587 = APPROVAL ( #441, 'UNSPECIFIED' ) ;
#588 = LINE ( 'NONE', #13, #37 ) ;
#589 = CARTESIAN_POINT ( 'NONE',  ( -96.01812415252076960, 26.84251119223518600, 0.1631520278689905235 ) ) ;
#590 = CARTESIAN_POINT ( 'NONE',  ( 103.8972476197962749, 30.72376618942621462, 91.57273761759513775 ) ) ;
#591 = CARTESIAN_POINT ( 'NONE',  ( -95.31077230834668512, 38.21400880504287301, 12.73443161897113818 ) ) ;
#592 = ORIENTED_EDGE ( 'NONE', *, *, #129, .F. ) ;
#593 = DIRECTION ( 'NONE',  ( 0.000000000000000000, 0.000000000000000000, -1.000000000000000000 ) ) ;
#594 = AXIS2_PLACEMENT_3D ( 'NONE', #463, #506, #87 ) ;
#595 = APPROVAL_PERSON_ORGANIZATION ( #625, #434, #615 ) ;
#596 =( GEOMETRIC_REPRESENTATION_CONTEXT ( 3 ) GLOBAL_UNCERTAINTY_ASSIGNED_CONTEXT ( ( #622 ) ) GLOBAL_UNIT_ASSIGNED_CONTEXT ( ( #568, #471, #94 ) ) REPRESENTATION_CONTEXT ( 'NONE', 'WORKASPACE' ) );
#597 = CARTESIAN_POINT ( 'NONE',  ( -100.2520496123873102, 36.24342055618436831, 8.866839553701799659 ) ) ;
#598 = ORIENTED_EDGE ( 'NONE', *, *, #289, .T. ) ;
#599 = CARTESIAN_POINT ( 'NONE',  ( -104.2009880688243868, 28.27202591283862887, 93.00000000000002842 ) ) ;
#600 = CARTESIAN_POINT ( 'NONE',  ( -94.20098806882438680, 38.27202591283863597, 12.87955993846415126 ) ) ;
#601 = CC_DESIGN_DATE_AND_TIME_ASSIGNMENT ( #274, #281, ( #430 ) ) ;
#602 = VERTEX_POINT ( 'NONE', #188 ) ;
#603 = CARTESIAN_POINT ( 'NONE',  ( 101.6040980897051043, 35.02915756456592078, 80.79733357772887814 ) ) ;
#604 = CARTESIAN_POINT ( 'NONE',  ( -101.9603543147784279, 34.59290477439668621, 6.545298588180012977 ) ) ;
#605 = EDGE_LOOP ( 'NONE', ( #86, #508, #69, #115, #345, #455 ) ) ;
#606 = FACE_OUTER_BOUND ( 'NONE', #197, .T. ) ;
#607 = VECTOR ( 'NONE', #272, 1000.000000000000000 ) ;
#608 = DIRECTION ( 'NONE',  ( 0.000000000000000000, 0.000000000000000000, -1.000000000000000000 ) ) ;
#609 = ORIENTED_EDGE ( 'NONE', *, *, #496, .T. ) ;
#610 = CARTESIAN_POINT ( 'NONE',  ( 101.8769102511198668, -11.57641811465075854, 3.582189148846519178 ) ) ;
#611 = VERTEX_POINT ( 'NONE', #134 ) ;
#612 = CARTESIAN_POINT ( 'NONE',  ( 94.20098806882437259, -10.65251149685989773, 0.000000000000000000 ) ) ;
#613 = ADVANCED_FACE ( 'NONE', ( #606 ), #302, .T. ) ;
#614 = CARTESIAN_POINT ( 'NONE',  ( -103.0006873163901844, -12.11644098342157960, 5.205796533195660380 ) ) ;
#615 = APPROVAL_ROLE ( '' ) ;
#616 = CARTESIAN_POINT ( 'NONE',  ( -101.8889828834016384, -11.58087614079437699, 3.596586838825674093 ) ) ;
#617 = LOCAL_TIME ( 14, 48, 33.00000000000000000, #578 ) ;
#618 = CARTESIAN_POINT ( 'NONE',  ( 94.20098806882438680, 38.27202591283863597, 46.01046051088484745 ) ) ;
#619 = CARTESIAN_POINT ( 'NONE',  ( -103.1783505472083675, 32.69120189115562169, 94.92081350509978677 ) ) ;
#620 = PLANE ( 'NONE',  #237 ) ;
#621 = DIRECTION ( 'NONE',  ( 1.000000000000000000, 0.000000000000000000, 0.000000000000000000 ) ) ;
#622 = UNCERTAINTY_MEASURE_WITH_UNIT (LENGTH_MEASURE( 1.000000000000000082E-05 ), #568, 'distance_accuracy_value', 'NONE');
#623 = DIRECTION ( 'NONE',  ( 0.000000000000000000, -1.000000000000000000, 0.000000000000000000 ) ) ;
#624 = CARTESIAN_POINT ( 'NONE',  ( 94.48480297422615592, 38.27202591283864308, 12.87955993846415303 ) ) ;
#625 = PERSON_AND_ORGANIZATION ( #395, #490 ) ;
#626 = EDGE_CURVE ( 'NONE', #238, #193, #22, .T. ) ;
#627 = CARTESIAN_POINT ( 'NONE',  ( 115.5650913302279719, -6.727974087161338268, 146.3993978960106119 ) ) ;
#628 = DIRECTION ( 'NONE',  ( -1.000000000000000000, 0.000000000000000000, -0.000000000000000000 ) ) ;
#629 = CARTESIAN_POINT ( 'NONE',  ( -103.7476906801093577, 31.72921005594896116, 6.542815856889664161 ) ) ;
#630 = LOCAL_TIME ( 14, 48, 33.00000000000000000, #540 ) ;
#631 = CARTESIAN_POINT ( 'NONE',  ( 97.00630094617839916, -6.727974087161338268, 59.19249653385988097 ) ) ;
#632 = CARTESIAN_POINT ( 'NONE',  ( 101.1640262450544867, 35.46036901597985036, 7.694357459624162843 ) ) ;
#633 = ORIENTED_EDGE ( 'NONE', *, *, #97, .T. ) ;
#634 = CARTESIAN_POINT ( 'NONE',  ( 100.6036445075014001, 38.27202591283862887, 76.09624826692996180 ) ) ;
#635 = EDGE_CURVE ( 'NONE', #565, #32, #150, .T. ) ;
#636 = CARTESIAN_POINT ( 'NONE',  ( -96.73906457458345187, 27.14431416536949726, 0.3243848750187198759 ) ) ;
#637 = PERSON_AND_ORGANIZATION ( #395, #490 ) ;
#638 = CARTESIAN_POINT ( 'NONE',  ( 104.1222005333545724, 29.54402597613221459, 92.62978099907891760 ) ) ;
#639 = DIRECTION ( 'NONE',  ( 0.000000000000000000, 0.000000000000000000, -1.000000000000000000 ) ) ;
#640 = DIRECTION ( 'NONE',  ( 0.000000000000000000, 1.000000000000000000, 0.000000000000000000 ) ) ;
#641 = APPROVAL_PERSON_ORGANIZATION ( #531, #9, #120 ) ;
#642 = CARTESIAN_POINT ( 'NONE',  ( -101.1615091185352355, 30.86978336966557990, 2.808997920447888319 ) ) ;
#643 = ORIENTED_EDGE ( 'NONE', *, *, #266, .T. ) ;
#644 = CARTESIAN_POINT ( 'NONE',  ( 104.0566287810281665, 29.97930066498562951, 92.32166235454786829 ) ) ;
#645 = CARTESIAN_POINT ( 'NONE',  ( -104.2009880688243868, -38.27202591283863597, 93.00000000000002842 ) ) ;
#646 = FACE_OUTER_BOUND ( 'NONE', #410, .T. ) ;
#647 = EDGE_CURVE ( 'NONE', #505, #602, #428, .T. ) ;
#648 = DIRECTION ( 'NONE',  ( 0.000000000000000000, 0.000000000000000000, -1.000000000000000000 ) ) ;
#649 = ORIENTED_EDGE ( 'NONE', *, *, #338, .T. ) ;
#650 = CARTESIAN_POINT ( 'NONE',  ( 104.0191051159385296, 30.18007357068093910, 92.14534038029722751 ) ) ;
#651 = VECTOR ( 'NONE', #143, 1000.000000000000000 ) ;
#652 = AXIS2_PLACEMENT_3D ( 'NONE', #523, #520, #48 ) ;
#653 = PRODUCT_DEFINITION_FORMATION_WITH_SPECIFIED_SOURCE ( 'ANY', '', #184, .NOT_KNOWN. ) ;
#654 = CARTESIAN_POINT ( 'NONE',  ( -97.69385911271201905, 37.65344772161428466, 11.44772261288064819 ) ) ;
#655 = ORIENTED_EDGE ( 'NONE', *, *, #626, .T. ) ;
#656 = DIRECTION ( 'NONE',  ( -0.000000000000000000, 1.000000000000000000, -0.000000000000000000 ) ) ;
#657 = CARTESIAN_POINT ( 'NONE',  ( 95.26224501555341817, 26.61248109623051761, 0.04321516716367699434 ) ) ;
#658 = EDGE_CURVE ( 'NONE', #548, #124, #219, .T. ) ;
#659 = ORIENTED_EDGE ( 'NONE', *, *, #421, .F. ) ;
#660 = CARTESIAN_POINT ( 'NONE',  ( 100.3159233669717594, 36.20494272919660972, 74.74425987745262034 ) ) ;
#661 = CARTESIAN_POINT ( 'NONE',  ( 97.64408894842046038, 27.65337449560962213, 0.6087208282973102236 ) ) ;
#662 = ORIENTED_EDGE ( 'NONE', *, *, #414, .T. ) ;
#663 = CARTESIAN_POINT ( 'NONE',  ( 101.2058927262532251, -11.35904615983393384, 2.855754137751910005 ) ) ;
#664 = VECTOR ( 'NONE', #640, 1000.000000000000000 ) ;
#665 = ORIENTED_EDGE ( 'NONE', *, *, #647, .F. ) ;
#666 = FACE_OUTER_BOUND ( 'NONE', #499, .T. ) ;
#667 = CARTESIAN_POINT ( 'NONE',  ( -102.2945368002419428, -11.74678692392078361, 4.117531698866864431 ) ) ;
#668 = CARTESIAN_POINT ( 'NONE',  ( 102.2405804004569916, 34.22863330934914927, 83.78813464524868948 ) ) ;
#669 = CARTESIAN_POINT ( 'NONE',  ( -104.1463433863501251, -13.61202795880821270, 8.788119004566121717 ) ) ;
#670 = CARTESIAN_POINT ( 'NONE',  ( 21.75280380284546666, -6.727974087161338268, 112.9168266741539099 ) ) ;
#671 = AXIS2_PLACEMENT_3D ( 'NONE', #261, #185, #61 ) ;
#672 = CARTESIAN_POINT ( 'NONE',  ( -94.88610177989728811, -10.65251149685989951, -5.627686901557572242E-15 ) ) ;
#673 = CARTESIAN_POINT ( 'NONE',  ( -104.2009880688243868, 28.73882672375367875, 93.00000000000004263 ) ) ;
#674 = CARTESIAN_POINT ( 'NONE',  ( -104.2009880688243868, -10.65251149685989773, 9.999999999999994671 ) ) ;
#675 = ADVANCED_FACE ( 'NONE', ( #146 ), #257, .F. ) ;
#676 = CARTESIAN_POINT ( 'NONE',  ( 104.2009880688243868, 38.27202591283862887, 93.00000000000002842 ) ) ;
ENDSEC;
END-ISO-10303-21;
