ISO-10303-21;
HEADER;
FILE_DESCRIPTION (( 'STEP AP203' ),
    '1' );
FILE_NAME ('Part2.STEP',
    '2025-09-09T11:50:52',
    ( '' ),
    ( '' ),
    'SwSTEP 2.0',
    'SolidWorks 2025',
    '' );
FILE_SCHEMA (( 'CONFIG_CONTROL_DESIGN' ));
ENDSEC;

DATA;
#1 = VERTEX_POINT ( 'NONE', #362 ) ;
#2 = CARTESIAN_POINT ( 'NONE',  ( -11.50348221976128826, 0.000000000000000000, 20.00000000000000000 ) ) ;
#3 = ORIENTED_EDGE ( 'NONE', *, *, #316, .T. ) ;
#4 = PERSON_AND_ORGANIZATION ( #46, #201 ) ;
#5 = SECURITY_CLASSIFICATION ( '', '', #390 ) ;
#6 = DIRECTION ( 'NONE',  ( -0.000000000000000000, -0.000000000000000000, -1.000000000000000000 ) ) ;
#7 = VECTOR ( 'NONE', #64, 1000.000000000000000 ) ;
#8 = VECTOR ( 'NONE', #277, 1000.000000000000000 ) ;
#9 = DATE_AND_TIME ( #113, #66 ) ;
#10 = ORIENTED_EDGE ( 'NONE', *, *, #332, .F. ) ;
#11 = ADVANCED_FACE ( 'NONE', ( #207 ), #357, .F. ) ;
#12 = CARTESIAN_POINT ( 'NONE',  ( -4.337983220969714317E-16, 7.022222222222222143, 20.00000000000000000 ) ) ;
#13 = COORDINATED_UNIVERSAL_TIME_OFFSET ( 9, 0, .AHEAD. ) ;
#14 = DIRECTION ( 'NONE',  ( -4.049984334930232081E-17, 1.000000000000000000, -0.000000000000000000 ) ) ;
#15 = DESIGN_CONTEXT ( 'detailed design', #60, 'design' ) ;
#16 = PERSON_AND_ORGANIZATION ( #46, #201 ) ;
#17 = CARTESIAN_POINT ( 'NONE',  ( -10.85163036790943636, -1.762962962962962621, 20.00000000000000000 ) ) ;
#18 = EDGE_CURVE ( 'NONE', #212, #344, #236, .T. ) ;
#19 = CALENDAR_DATE ( 2025, 9, 9 ) ;
#20 = DIRECTION ( 'NONE',  ( -1.000000000000000000, -0.000000000000000000, -0.000000000000000000 ) ) ;
#21 = CARTESIAN_POINT ( 'NONE',  ( -7.622000738279807841, 6.459259259259258812, 20.00000000000000000 ) ) ;
#22 = VERTEX_POINT ( 'NONE', #228 ) ;
#23 = DIRECTION ( 'NONE',  ( 0.3468008908925070410, -0.9379387730956447733, 0.000000000000000000 ) ) ;
#24 = ORIENTED_EDGE ( 'NONE', *, *, #162, .T. ) ;
#25 = APPROVAL ( #165, 'UNSPECIFIED' ) ;
#26 = CARTESIAN_POINT ( 'NONE',  ( -4.481259997539068785, 7.022222222222222143, 0.000000000000000000 ) ) ;
#27 = CC_DESIGN_APPROVAL ( #227, ( #101 ) ) ;
#28 = CARTESIAN_POINT ( 'NONE',  ( 0.000000000000000000, -3.688888888888887330, 20.00000000000000000 ) ) ;
#29 =( GEOMETRIC_REPRESENTATION_CONTEXT ( 3 ) GLOBAL_UNCERTAINTY_ASSIGNED_CONTEXT ( ( #202 ) ) GLOBAL_UNIT_ASSIGNED_CONTEXT ( ( #80, #381, #218 ) ) REPRESENTATION_CONTEXT ( 'NONE', 'WORKASPACE' ) );
#30 = ORIENTED_EDGE ( 'NONE', *, *, #210, .F. ) ;
#31 = VECTOR ( 'NONE', #143, 1000.000000000000000 ) ;
#32 = DIRECTION ( 'NONE',  ( -0.000000000000000000, 0.000000000000000000, 1.000000000000000000 ) ) ;
#33 = EDGE_CURVE ( 'NONE', #22, #344, #166, .T. ) ;
#34 = ORIENTED_EDGE ( 'NONE', *, *, #355, .T. ) ;
#35 = PLANE ( 'NONE',  #184 ) ;
#36 = ORIENTED_EDGE ( 'NONE', *, *, #367, .F. ) ;
#37 = APPLICATION_CONTEXT ( 'configuration controlled 3d designs of mechanical parts and assemblies' ) ;
#38 = CARTESIAN_POINT ( 'NONE',  ( -4.337983220969714317E-16, 7.022222222222222143, 0.000000000000000000 ) ) ;
#39 = ORIENTED_EDGE ( 'NONE', *, *, #116, .T. ) ;
#40 = LINE ( 'NONE', #377, #134 ) ;
#41 = VERTEX_POINT ( 'NONE', #55 ) ;
#42 = DIRECTION ( 'NONE',  ( -0.000000000000000000, -0.000000000000000000, -1.000000000000000000 ) ) ;
#43 = CC_DESIGN_DATE_AND_TIME_ASSIGNMENT ( #206, #171, ( #5 ) ) ;
#44 = MECHANICAL_CONTEXT ( 'NONE', #37, 'mechanical' ) ;
#45 = CARTESIAN_POINT ( 'NONE',  ( 0.000000000000000000, -3.688888888888887330, 20.00000000000000000 ) ) ;
#46 = PERSON ( 'UNSPECIFIED', 'UNSPECIFIED', 'UNSPECIFIED', ('UNSPECIFIED'), ('UNSPECIFIED'), ('UNSPECIFIED') ) ;
#47 = ADVANCED_FACE ( 'NONE', ( #292 ), #200, .F. ) ;
#48 = PRODUCT ( 'Part2', 'Part2', '', ( #44 ) ) ;
#49 = CARTESIAN_POINT ( 'NONE',  ( 0.000000000000000000, 0.000000000000000000, 0.000000000000000000 ) ) ;
#50 = PERSON_AND_ORGANIZATION ( #46, #201 ) ;
#51 = CARTESIAN_POINT ( 'NONE',  ( -11.50348221976128826, 0.000000000000000000, 0.000000000000000000 ) ) ;
#52 = VECTOR ( 'NONE', #93, 1000.000000000000227 ) ;
#53 = CC_DESIGN_PERSON_AND_ORGANIZATION_ASSIGNMENT ( #261, #232, ( #101 ) ) ;
#54 = AXIS2_PLACEMENT_3D ( 'NONE', #49, #325, #260 ) ;
#55 = CARTESIAN_POINT ( 'NONE',  ( -9.596514406108617834, -3.218897478651911559, 0.000000000000000000 ) ) ;
#56 = COORDINATED_UNIVERSAL_TIME_OFFSET ( 9, 0, .AHEAD. ) ;
#57 = DIRECTION ( 'NONE',  ( -1.000000000000000000, -4.049984334930232081E-17, 0.000000000000000000 ) ) ;
#58 = CARTESIAN_POINT ( 'NONE',  ( -7.622000738279807841, 6.459259259259258812, 0.000000000000000000 ) ) ;
#59 = VERTEX_POINT ( 'NONE', #87 ) ;
#60 = APPLICATION_CONTEXT ( 'configuration controlled 3d designs of mechanical parts and assemblies' ) ;
#61 = LINE ( 'NONE', #241, #76 ) ;
#62 = ORIENTED_EDGE ( 'NONE', *, *, #210, .T. ) ;
#63 = EDGE_CURVE ( 'NONE', #109, #1, #174, .T. ) ;
#64 = DIRECTION ( 'NONE',  ( -0.000000000000000000, -0.000000000000000000, -1.000000000000000000 ) ) ;
#65 = FACE_OUTER_BOUND ( 'NONE', #99, .T. ) ;
#66 = LOCAL_TIME ( 20, 50, 52.00000000000000000, #56 ) ;
#67 = ORIENTED_EDGE ( 'NONE', *, *, #389, .F. ) ;
#68 = CARTESIAN_POINT ( 'NONE',  ( -11.50348221976128826, 0.000000000000000000, 20.00000000000000000 ) ) ;
#69 = EDGE_CURVE ( 'NONE', #92, #129, #170, .T. ) ;
#70 = ORIENTED_EDGE ( 'NONE', *, *, #78, .T. ) ;
#71 = VECTOR ( 'NONE', #240, 1000.000000000000227 ) ;
#72 = CARTESIAN_POINT ( 'NONE',  ( -10.85163036790943636, -1.762962962962962621, 20.00000000000000000 ) ) ;
#73 = ORIENTED_EDGE ( 'NONE', *, *, #349, .F. ) ;
#74 = APPROVAL_PERSON_ORGANIZATION ( #50, #244, #265 ) ;
#75 = EDGE_LOOP ( 'NONE', ( #24, #125, #10, #3 ) ) ;
#76 = VECTOR ( 'NONE', #176, 1000.000000000000114 ) ;
#77 = ORIENTED_EDGE ( 'NONE', *, *, #224, .T. ) ;
#78 = EDGE_CURVE ( 'NONE', #248, #212, #352, .T. ) ;
#79 = CARTESIAN_POINT ( 'NONE',  ( -10.19977851605758445, 4.237037037037037379, 0.000000000000000000 ) ) ;
#80 =( LENGTH_UNIT ( ) NAMED_UNIT ( * ) SI_UNIT ( .MILLI., .METRE. ) );
#81 = DIRECTION ( 'NONE',  ( -1.000000000000000000, -0.000000000000000000, -0.000000000000000000 ) ) ;
#82 = CALENDAR_DATE ( 2025, 9, 9 ) ;
#83 = CARTESIAN_POINT ( 'NONE',  ( -10.19977851605758445, 4.237037037037037379, 20.00000000000000000 ) ) ;
#84 = LOCAL_TIME ( 20, 50, 52.00000000000000000, #324 ) ;
#85 = DIRECTION ( 'NONE',  ( -0.7574099616005767199, -0.6529396220694627662, -0.000000000000000000 ) ) ;
#86 = VECTOR ( 'NONE', #85, 1000.000000000000000 ) ;
#87 = CARTESIAN_POINT ( 'NONE',  ( -11.50348221976128826, 2.000000000000000000, 20.00000000000000000 ) ) ;
#88 = DIRECTION ( 'NONE',  ( 4.049984334930232081E-17, -1.000000000000000000, 0.000000000000000000 ) ) ;
#89 = CARTESIAN_POINT ( 'NONE',  ( -7.622000738279807841, 6.459259259259258812, 0.000000000000000000 ) ) ;
#90 = EDGE_CURVE ( 'NONE', #280, #401, #330, .T. ) ;
#91 = DIRECTION ( 'NONE',  ( 0.9988028670100592699, -0.04891659076924634308, -0.000000000000000000 ) ) ;
#92 = VERTEX_POINT ( 'NONE', #391 ) ;
#93 = DIRECTION ( 'NONE',  ( 0.3468008908925070410, -0.9379387730956447733, 0.000000000000000000 ) ) ;
#94 = EDGE_CURVE ( 'NONE', #59, #175, #383, .T. ) ;
#95 = FACE_OUTER_BOUND ( 'NONE', #250, .T. ) ;
#96 = ORIENTED_EDGE ( 'NONE', *, *, #167, .T. ) ;
#97 = DIRECTION ( 'NONE',  ( -0.5035152254457535559, -0.8639863527535095455, -0.000000000000000000 ) ) ;
#98 = ORIENTED_EDGE ( 'NONE', *, *, #216, .F. ) ;
#99 = EDGE_LOOP ( 'NONE', ( #108, #328, #312, #102 ) ) ;
#100 = CARTESIAN_POINT ( 'NONE',  ( -4.337983220969714317E-16, 7.022222222222222143, 20.00000000000000000 ) ) ;
#101 = PRODUCT_DEFINITION ( 'UNKNOWN', '', #199, #15 ) ;
#102 = ORIENTED_EDGE ( 'NONE', *, *, #231, .T. ) ;
#103 = APPLICATION_PROTOCOL_DEFINITION ( 'international standard', 'config_control_design', 1994, #60 ) ;
#104 = AXIS2_PLACEMENT_3D ( 'NONE', #161, #256, #372 ) ;
#105 = VECTOR ( 'NONE', #144, 1000.000000000000000 ) ;
#106 = DIRECTION ( 'NONE',  ( 1.000000000000000000, 0.000000000000000000, 0.000000000000000000 ) ) ;
#107 = DIRECTION ( 'NONE',  ( 0.000000000000000000, -1.000000000000000000, 0.000000000000000000 ) ) ;
#108 = ORIENTED_EDGE ( 'NONE', *, *, #257, .T. ) ;
#109 = VERTEX_POINT ( 'NONE', #301 ) ;
#110 = PERSON_AND_ORGANIZATION_ROLE ( 'classification_officer' ) ;
#111 = ORIENTED_EDGE ( 'NONE', *, *, #367, .T. ) ;
#112 = CARTESIAN_POINT ( 'NONE',  ( -11.50348221976128826, 0.000000000000000000, 0.000000000000000000 ) ) ;
#113 = CALENDAR_DATE ( 2025, 9, 9 ) ;
#114 = VECTOR ( 'NONE', #209, 1000.000000000000000 ) ;
#115 = LINE ( 'NONE', #267, #223 ) ;
#116 = EDGE_CURVE ( 'NONE', #1, #248, #388, .T. ) ;
#117 = LINE ( 'NONE', #208, #8 ) ;
#118 = CC_DESIGN_APPROVAL ( #25, ( #5 ) ) ;
#119 = LINE ( 'NONE', #311, #234 ) ;
#120 = AXIS2_PLACEMENT_3D ( 'NONE', #126, #242, #368 ) ;
#121 = LINE ( 'NONE', #68, #222 ) ;
#122 = MANIFOLD_SOLID_BREP ( '\X2\bcf4c2a4\X0\-\X2\b3cccd9c\X0\1', #273 ) ;
#123 = AXIS2_PLACEMENT_3D ( 'NONE', #12, #57, #88 ) ;
#124 = CARTESIAN_POINT ( 'NONE',  ( 0.000000000000000000, 0.000000000000000000, 20.00000000000000000 ) ) ;
#125 = ORIENTED_EDGE ( 'NONE', *, *, #298, .F. ) ;
#126 = CARTESIAN_POINT ( 'NONE',  ( -11.50348221976128826, 0.000000000000000000, 20.00000000000000000 ) ) ;
#127 = VERTEX_POINT ( 'NONE', #139 ) ;
#128 = CARTESIAN_POINT ( 'NONE',  ( -10.85163036790943636, -1.762962962962962621, 0.000000000000000000 ) ) ;
#129 = VERTEX_POINT ( 'NONE', #112 ) ;
#130 = CC_DESIGN_PERSON_AND_ORGANIZATION_ASSIGNMENT ( #385, #353, ( #199 ) ) ;
#131 = ORIENTED_EDGE ( 'NONE', *, *, #150, .T. ) ;
#132 = DIRECTION ( 'NONE',  ( 0.000000000000000000, -0.000000000000000000, -1.000000000000000000 ) ) ;
#133 = LINE ( 'NONE', #281, #272 ) ;
#134 = VECTOR ( 'NONE', #375, 1000.000000000000227 ) ;
#135 = VECTOR ( 'NONE', #393, 1000.000000000000000 ) ;
#136 = SHAPE_DEFINITION_REPRESENTATION ( #263, #189 ) ;
#137 = VERTEX_POINT ( 'NONE', #21 ) ;
#138 = CALENDAR_DATE ( 2025, 9, 9 ) ;
#139 = CARTESIAN_POINT ( 'NONE',  ( 0.000000000000000000, -3.688888888888887330, 0.000000000000000000 ) ) ;
#140 = DIRECTION ( 'NONE',  ( -0.000000000000000000, -0.000000000000000000, -1.000000000000000000 ) ) ;
#141 = CARTESIAN_POINT ( 'NONE',  ( -11.50348221976128826, 0.000000000000000000, 20.00000000000000000 ) ) ;
#142 = DATE_AND_TIME ( #299, #270 ) ;
#143 = DIRECTION ( 'NONE',  ( -0.000000000000000000, -0.000000000000000000, -1.000000000000000000 ) ) ;
#144 = DIRECTION ( 'NONE',  ( -0.000000000000000000, -1.000000000000000000, -0.000000000000000000 ) ) ;
#145 = DIRECTION ( 'NONE',  ( 0.7574099616005767199, 0.6529396220694627662, 0.000000000000000000 ) ) ;
#146 = LINE ( 'NONE', #183, #52 ) ;
#147 = VECTOR ( 'NONE', #342, 1000.000000000000227 ) ;
#148 = FACE_OUTER_BOUND ( 'NONE', #282, .T. ) ;
#149 = AXIS2_PLACEMENT_3D ( 'NONE', #300, #354, #360 ) ;
#150 = EDGE_CURVE ( 'NONE', #369, #248, #115, .T. ) ;
#151 = ORIENTED_EDGE ( 'NONE', *, *, #167, .F. ) ;
#152 = CARTESIAN_POINT ( 'NONE',  ( -10.19977851605758445, 4.237037037037037379, 20.00000000000000000 ) ) ;
#153 = VERTEX_POINT ( 'NONE', #196 ) ;
#154 = CARTESIAN_POINT ( 'NONE',  ( -4.337983220969714317E-16, 7.022222222222222143, 20.00000000000000000 ) ) ;
#155 = EDGE_LOOP ( 'NONE', ( #70, #30, #36, #39 ) ) ;
#156 = ADVANCED_FACE ( 'NONE', ( #198 ), #323, .F. ) ;
#157 = FACE_OUTER_BOUND ( 'NONE', #309, .T. ) ;
#158 = ORIENTED_EDGE ( 'NONE', *, *, #94, .T. ) ;
#159 = APPLICATION_PROTOCOL_DEFINITION ( 'international standard', 'config_control_design', 1994, #37 ) ;
#160 = ORIENTED_EDGE ( 'NONE', *, *, #231, .F. ) ;
#161 = CARTESIAN_POINT ( 'NONE',  ( -11.50348221976128826, 2.000000000000000000, 20.00000000000000000 ) ) ;
#162 = EDGE_CURVE ( 'NONE', #127, #369, #168, .T. ) ;
#163 = CARTESIAN_POINT ( 'NONE',  ( -9.596514406108617834, -3.218897478651911559, 20.00000000000000000 ) ) ;
#164 = DATE_AND_TIME ( #19, #238 ) ;
#165 = APPROVAL_STATUS ( 'not_yet_approved' ) ;
#166 = LINE ( 'NONE', #83, #380 ) ;
#167 = EDGE_CURVE ( 'NONE', #137, #22, #363, .T. ) ;
#168 = LINE ( 'NONE', #294, #310 ) ;
#169 = VECTOR ( 'NONE', #20, 1000.000000000000000 ) ;
#170 = LINE ( 'NONE', #51, #397 ) ;
#171 = DATE_TIME_ROLE ( 'classification_date' ) ;
#172 = DIRECTION ( 'NONE',  ( -0.000000000000000000, -0.000000000000000000, -1.000000000000000000 ) ) ;
#173 = ADVANCED_FACE ( 'NONE', ( #400 ), #269, .F. ) ;
#174 = LINE ( 'NONE', #233, #169 ) ;
#175 = VERTEX_POINT ( 'NONE', #211 ) ;
#176 = DIRECTION ( 'NONE',  ( -0.5035152254457535559, -0.8639863527535095455, -0.000000000000000000 ) ) ;
#177 = ORIENTED_EDGE ( 'NONE', *, *, #298, .T. ) ;
#178 = DIRECTION ( 'NONE',  ( 0.6529396220694627662, -0.7574099616005767199, 0.000000000000000000 ) ) ;
#179 = ADVANCED_FACE ( 'NONE', ( #148 ), #35, .F. ) ;
#180 = LINE ( 'NONE', #271, #287 ) ;
#181 = EDGE_LOOP ( 'NONE', ( #191, #339, #314, #331, #246, #399, #214, #67, #219 ) ) ;
#182 = AXIS2_PLACEMENT_3D ( 'NONE', #190, #320, #192 ) ;
#183 = CARTESIAN_POINT ( 'NONE',  ( -11.50348221976128826, 0.000000000000000000, 0.000000000000000000 ) ) ;
#184 = AXIS2_PLACEMENT_3D ( 'NONE', #152, #178, #145 ) ;
#185 = ORIENTED_EDGE ( 'NONE', *, *, #69, .T. ) ;
#186 = DIRECTION ( 'NONE',  ( 1.000000000000000000, 0.000000000000000000, 0.000000000000000000 ) ) ;
#187 = EDGE_CURVE ( 'NONE', #59, #92, #117, .T. ) ;
#188 = ORIENTED_EDGE ( 'NONE', *, *, #63, .T. ) ;
#189 = ADVANCED_BREP_SHAPE_REPRESENTATION ( 'Part2', ( #122, #182 ), #29 ) ;
#190 = CARTESIAN_POINT ( 'NONE',  ( 0.000000000000000000, 0.000000000000000000, 0.000000000000000000 ) ) ;
#191 = ORIENTED_EDGE ( 'NONE', *, *, #257, .F. ) ;
#192 = DIRECTION ( 'NONE',  ( 1.000000000000000000, 0.000000000000000000, 0.000000000000000000 ) ) ;
#193 = EDGE_LOOP ( 'NONE', ( #34, #73, #98, #264 ) ) ;
#194 = APPROVAL_STATUS ( 'not_yet_approved' ) ;
#195 = APPROVAL_ROLE ( '' ) ;
#196 = CARTESIAN_POINT ( 'NONE',  ( -9.596514406108617834, -3.218897478651911559, 20.00000000000000000 ) ) ;
#197 = CC_DESIGN_PERSON_AND_ORGANIZATION_ASSIGNMENT ( #4, #252, ( #48 ) ) ;
#198 = FACE_OUTER_BOUND ( 'NONE', #181, .T. ) ;
#199 = PRODUCT_DEFINITION_FORMATION_WITH_SPECIFIED_SOURCE ( 'ANY', '', #48, .NOT_KNOWN. ) ;
#200 = PLANE ( 'NONE',  #123 ) ;
#201 = ORGANIZATION ( 'UNSPECIFIED', 'UNSPECIFIED', '' ) ;
#202 = UNCERTAINTY_MEASURE_WITH_UNIT (LENGTH_MEASURE( 1.000000000000000082E-05 ), #80, 'distance_accuracy_value', 'NONE');
#203 = VECTOR ( 'NONE', #262, 1000.000000000000227 ) ;
#204 = PRODUCT_RELATED_PRODUCT_CATEGORY ( 'detail', '', ( #48 ) ) ;
#205 = CARTESIAN_POINT ( 'NONE',  ( -4.481259997539068785, 7.022222222222222143, 20.00000000000000000 ) ) ;
#206 = DATE_AND_TIME ( #138, #84 ) ;
#207 = FACE_OUTER_BOUND ( 'NONE', #155, .T. ) ;
#208 = CARTESIAN_POINT ( 'NONE',  ( -11.50348221976128826, 2.000000000000000000, 20.00000000000000000 ) ) ;
#209 = DIRECTION ( 'NONE',  ( -0.000000000000000000, -0.000000000000000000, -1.000000000000000000 ) ) ;
#210 = EDGE_CURVE ( 'NONE', #137, #212, #119, .T. ) ;
#211 = CARTESIAN_POINT ( 'NONE',  ( -11.50348221976128826, 0.000000000000000000, 20.00000000000000000 ) ) ;
#212 = VERTEX_POINT ( 'NONE', #89 ) ;
#213 = DIRECTION ( 'NONE',  ( -0.000000000000000000, -0.000000000000000000, -1.000000000000000000 ) ) ;
#214 = ORIENTED_EDGE ( 'NONE', *, *, #162, .F. ) ;
#215 = PLANE ( 'NONE',  #120 ) ;
#216 = EDGE_CURVE ( 'NONE', #280, #153, #370, .T. ) ;
#217 = ORIENTED_EDGE ( 'NONE', *, *, #18, .T. ) ;
#218 =( NAMED_UNIT ( * ) SI_UNIT ( $, .STERADIAN. ) SOLID_ANGLE_UNIT ( ) );
#219 = ORIENTED_EDGE ( 'NONE', *, *, #355, .F. ) ;
#220 = CARTESIAN_POINT ( 'NONE',  ( -7.622000738279807841, 6.459259259259258812, 20.00000000000000000 ) ) ;
#221 = ORIENTED_EDGE ( 'NONE', *, *, #349, .T. ) ;
#222 = VECTOR ( 'NONE', #23, 1000.000000000000227 ) ;
#223 = VECTOR ( 'NONE', #81, 1000.000000000000000 ) ;
#224 = EDGE_CURVE ( 'NONE', #22, #59, #180, .T. ) ;
#225 = LINE ( 'NONE', #100, #327 ) ;
#226 = ORIENTED_EDGE ( 'NONE', *, *, #33, .F. ) ;
#227 = APPROVAL ( #194, 'UNSPECIFIED' ) ;
#228 = CARTESIAN_POINT ( 'NONE',  ( -10.19977851605758445, 4.237037037037037379, 20.00000000000000000 ) ) ;
#229 = DATE_TIME_ROLE ( 'creation_date' ) ;
#230 = ORIENTED_EDGE ( 'NONE', *, *, #33, .T. ) ;
#231 = EDGE_CURVE ( 'NONE', #175, #129, #334, .T. ) ;
#232 = PERSON_AND_ORGANIZATION_ROLE ( 'creator' ) ;
#233 = CARTESIAN_POINT ( 'NONE',  ( -4.481259997539068785, 7.022222222222222143, 20.00000000000000000 ) ) ;
#234 = VECTOR ( 'NONE', #213, 1000.000000000000000 ) ;
#235 = APPROVAL_DATE_TIME ( #9, #25 ) ;
#236 = LINE ( 'NONE', #266, #86 ) ;
#237 = CARTESIAN_POINT ( 'NONE',  ( 0.000000000000000000, -3.688888888888887330, 20.00000000000000000 ) ) ;
#238 = LOCAL_TIME ( 20, 50, 52.00000000000000000, #13 ) ;
#239 = EDGE_LOOP ( 'NONE', ( #341, #284, #333, #374, #188, #111, #96, #77, #158 ) ) ;
#240 = DIRECTION ( 'NONE',  ( 0.6529396220694629882, -0.7574099616005764979, 0.000000000000000000 ) ) ;
#241 = CARTESIAN_POINT ( 'NONE',  ( -11.50348221976128826, 2.000000000000000000, 0.000000000000000000 ) ) ;
#242 = DIRECTION ( 'NONE',  ( 0.9379387730956447733, 0.3468008908925071521, -0.000000000000000000 ) ) ;
#243 = EDGE_LOOP ( 'NONE', ( #276, #371, #318, #230 ) ) ;
#244 = APPROVAL ( #290, 'UNSPECIFIED' ) ;
#245 = CARTESIAN_POINT ( 'NONE',  ( -10.85163036790943636, -1.762962962962962621, 20.00000000000000000 ) ) ;
#246 = ORIENTED_EDGE ( 'NONE', *, *, #78, .F. ) ;
#247 = DIRECTION ( 'NONE',  ( 0.9988028670100592699, -0.04891659076924634308, -0.000000000000000000 ) ) ;
#248 = VERTEX_POINT ( 'NONE', #26 ) ;
#249 = LINE ( 'NONE', #322, #286 ) ;
#250 = EDGE_LOOP ( 'NONE', ( #278, #337, #365, #221 ) ) ;
#251 = CC_DESIGN_APPROVAL ( #244, ( #199 ) ) ;
#252 = PERSON_AND_ORGANIZATION_ROLE ( 'design_owner' ) ;
#253 = EDGE_CURVE ( 'NONE', #344, #92, #61, .T. ) ;
#254 = VECTOR ( 'NONE', #6, 1000.000000000000000 ) ;
#255 = LINE ( 'NONE', #163, #254 ) ;
#256 = DIRECTION ( 'NONE',  ( 0.8639863527535096566, -0.5035152254457536669, 0.000000000000000000 ) ) ;
#257 = EDGE_CURVE ( 'NONE', #129, #401, #146, .T. ) ;
#258 = EDGE_LOOP ( 'NONE', ( #131, #315, #376, #177 ) ) ;
#259 = PERSON_AND_ORGANIZATION_ROLE ( 'creator' ) ;
#260 = DIRECTION ( 'NONE',  ( 1.000000000000000000, 0.000000000000000000, 0.000000000000000000 ) ) ;
#261 = PERSON_AND_ORGANIZATION ( #46, #201 ) ;
#262 = DIRECTION ( 'NONE',  ( -0.9843125823683099851, -0.1764333874056405460, -0.000000000000000000 ) ) ;
#263 = PRODUCT_DEFINITION_SHAPE ( 'NONE', 'NONE',  #101 ) ;
#264 = ORIENTED_EDGE ( 'NONE', *, *, #90, .T. ) ;
#265 = APPROVAL_ROLE ( '' ) ;
#266 = CARTESIAN_POINT ( 'NONE',  ( -10.19977851605758445, 4.237037037037037379, 0.000000000000000000 ) ) ;
#267 = CARTESIAN_POINT ( 'NONE',  ( -4.481259997539068785, 7.022222222222222143, 0.000000000000000000 ) ) ;
#268 = ADVANCED_FACE ( 'NONE', ( #65 ), #215, .F. ) ;
#269 = PLANE ( 'NONE',  #361 ) ;
#270 = LOCAL_TIME ( 20, 50, 52.00000000000000000, #387 ) ;
#271 = CARTESIAN_POINT ( 'NONE',  ( -11.50348221976128826, 2.000000000000000000, 20.00000000000000000 ) ) ;
#272 = VECTOR ( 'NONE', #42, 1000.000000000000000 ) ;
#273 = CLOSED_SHELL ( 'NONE', ( #268, #173, #283, #47, #307, #11, #179, #321, #373, #288, #156 ) ) ;
#274 = FACE_OUTER_BOUND ( 'NONE', #239, .T. ) ;
#275 = EDGE_CURVE ( 'NONE', #175, #280, #121, .T. ) ;
#276 = ORIENTED_EDGE ( 'NONE', *, *, #253, .T. ) ;
#277 = DIRECTION ( 'NONE',  ( -0.000000000000000000, -0.000000000000000000, -1.000000000000000000 ) ) ;
#278 = ORIENTED_EDGE ( 'NONE', *, *, #389, .T. ) ;
#279 = CARTESIAN_POINT ( 'NONE',  ( -4.481259997539068785, 7.022222222222222143, 20.00000000000000000 ) ) ;
#280 = VERTEX_POINT ( 'NONE', #245 ) ;
#281 = CARTESIAN_POINT ( 'NONE',  ( 0.000000000000000000, -3.688888888888887330, 20.00000000000000000 ) ) ;
#282 = EDGE_LOOP ( 'NONE', ( #217, #226, #151, #62 ) ) ;
#283 = ADVANCED_FACE ( 'NONE', ( #95 ), #364, .F. ) ;
#284 = ORIENTED_EDGE ( 'NONE', *, *, #216, .T. ) ;
#285 = DIRECTION ( 'NONE',  ( -4.049984334930232081E-17, 1.000000000000000000, -0.000000000000000000 ) ) ;
#286 = VECTOR ( 'NONE', #247, 1000.000000000000000 ) ;
#287 = VECTOR ( 'NONE', #97, 1000.000000000000114 ) ;
#288 = ADVANCED_FACE ( 'NONE', ( #274 ), #398, .T. ) ;
#289 = COORDINATED_UNIVERSAL_TIME_OFFSET ( 9, 0, .AHEAD. ) ;
#290 = APPROVAL_STATUS ( 'not_yet_approved' ) ;
#291 = LOCAL_TIME ( 20, 50, 52.00000000000000000, #289 ) ;
#292 = FACE_OUTER_BOUND ( 'NONE', #75, .T. ) ;
#293 = VECTOR ( 'NONE', #91, 1000.000000000000000 ) ;
#294 = CARTESIAN_POINT ( 'NONE',  ( -4.337983220969714317E-16, 7.022222222222222143, 0.000000000000000000 ) ) ;
#295 = APPROVAL_PERSON_ORGANIZATION ( #347, #227, #319 ) ;
#296 = APPROVAL_DATE_TIME ( #142, #227 ) ;
#297 = DIRECTION ( 'NONE',  ( -0.000000000000000000, -1.000000000000000000, -0.000000000000000000 ) ) ;
#298 = EDGE_CURVE ( 'NONE', #109, #369, #313, .T. ) ;
#299 = CALENDAR_DATE ( 2025, 9, 9 ) ;
#300 = CARTESIAN_POINT ( 'NONE',  ( -7.622000738279807841, 6.459259259259258812, 20.00000000000000000 ) ) ;
#301 = CARTESIAN_POINT ( 'NONE',  ( -4.337983220969714317E-16, 7.022222222222222143, 20.00000000000000000 ) ) ;
#302 = EDGE_CURVE ( 'NONE', #153, #382, #392, .T. ) ;
#303 = DIRECTION ( 'NONE',  ( -0.6529396220694629882, 0.7574099616005764979, 0.000000000000000000 ) ) ;
#304 = PLANE ( 'NONE',  #308 ) ;
#305 = APPROVAL_PERSON_ORGANIZATION ( #16, #25, #195 ) ;
#306 = CARTESIAN_POINT ( 'NONE',  ( -10.19977851605758445, 4.237037037037037379, 20.00000000000000000 ) ) ;
#307 = ADVANCED_FACE ( 'NONE', ( #335 ), #304, .F. ) ;
#308 = AXIS2_PLACEMENT_3D ( 'NONE', #279, #107, #132 ) ;
#309 = EDGE_LOOP ( 'NONE', ( #185, #160, #386, #346 ) ) ;
#310 = VECTOR ( 'NONE', #14, 1000.000000000000000 ) ;
#311 = CARTESIAN_POINT ( 'NONE',  ( -7.622000738279807841, 6.459259259259258812, 20.00000000000000000 ) ) ;
#312 = ORIENTED_EDGE ( 'NONE', *, *, #275, .F. ) ;
#313 = LINE ( 'NONE', #154, #7 ) ;
#314 = ORIENTED_EDGE ( 'NONE', *, *, #253, .F. ) ;
#315 = ORIENTED_EDGE ( 'NONE', *, *, #116, .F. ) ;
#316 = EDGE_CURVE ( 'NONE', #382, #127, #133, .T. ) ;
#317 = PLANE ( 'NONE',  #104 ) ;
#318 = ORIENTED_EDGE ( 'NONE', *, *, #224, .F. ) ;
#319 = APPROVAL_ROLE ( '' ) ;
#320 = DIRECTION ( 'NONE',  ( 0.000000000000000000, 0.000000000000000000, 1.000000000000000000 ) ) ;
#321 = ADVANCED_FACE ( 'NONE', ( #350 ), #317, .F. ) ;
#322 = CARTESIAN_POINT ( 'NONE',  ( 0.000000000000000000, -3.688888888888887330, 0.000000000000000000 ) ) ;
#323 = PLANE ( 'NONE',  #54 ) ;
#324 = COORDINATED_UNIVERSAL_TIME_OFFSET ( 9, 0, .AHEAD. ) ;
#325 = DIRECTION ( 'NONE',  ( -0.000000000000000000, 0.000000000000000000, 1.000000000000000000 ) ) ;
#326 = CC_DESIGN_PERSON_AND_ORGANIZATION_ASSIGNMENT ( #351, #259, ( #199 ) ) ;
#327 = VECTOR ( 'NONE', #285, 1000.000000000000000 ) ;
#328 = ORIENTED_EDGE ( 'NONE', *, *, #90, .F. ) ;
#329 = APPROVAL_DATE_TIME ( #356, #244 ) ;
#330 = LINE ( 'NONE', #17, #31 ) ;
#331 = ORIENTED_EDGE ( 'NONE', *, *, #18, .F. ) ;
#332 = EDGE_CURVE ( 'NONE', #382, #109, #225, .T. ) ;
#333 = ORIENTED_EDGE ( 'NONE', *, *, #302, .T. ) ;
#334 = LINE ( 'NONE', #395, #114 ) ;
#335 = FACE_OUTER_BOUND ( 'NONE', #258, .T. ) ;
#336 = CARTESIAN_POINT ( 'NONE',  ( -10.85163036790943636, -1.762962962962962621, 20.00000000000000000 ) ) ;
#337 = ORIENTED_EDGE ( 'NONE', *, *, #316, .F. ) ;
#338 = DIRECTION ( 'NONE',  ( 0.04891659076924634308, 0.9988028670100592699, -0.000000000000000000 ) ) ;
#339 = ORIENTED_EDGE ( 'NONE', *, *, #69, .F. ) ;
#340 = DIRECTION ( 'NONE',  ( -0.9988028670100592699, 0.04891659076924634308, 0.000000000000000000 ) ) ;
#341 = ORIENTED_EDGE ( 'NONE', *, *, #275, .T. ) ;
#342 = DIRECTION ( 'NONE',  ( -0.9843125823683099851, -0.1764333874056405460, -0.000000000000000000 ) ) ;
#343 = CC_DESIGN_DATE_AND_TIME_ASSIGNMENT ( #164, #229, ( #101 ) ) ;
#344 = VERTEX_POINT ( 'NONE', #79 ) ;
#345 = PLANE ( 'NONE',  #378 ) ;
#346 = ORIENTED_EDGE ( 'NONE', *, *, #187, .T. ) ;
#347 = PERSON_AND_ORGANIZATION ( #46, #201 ) ;
#348 = VECTOR ( 'NONE', #140, 1000.000000000000000 ) ;
#349 = EDGE_CURVE ( 'NONE', #153, #41, #255, .T. ) ;
#350 = FACE_OUTER_BOUND ( 'NONE', #243, .T. ) ;
#351 = PERSON_AND_ORGANIZATION ( #46, #201 ) ;
#352 = LINE ( 'NONE', #58, #203 ) ;
#353 = PERSON_AND_ORGANIZATION_ROLE ( 'design_supplier' ) ;
#354 = DIRECTION ( 'NONE',  ( 0.1764333874056405738, -0.9843125823683100961, 0.000000000000000000 ) ) ;
#355 = EDGE_CURVE ( 'NONE', #401, #41, #40, .T. ) ;
#356 = DATE_AND_TIME ( #82, #291 ) ;
#357 = PLANE ( 'NONE',  #149 ) ;
#358 = PERSON_AND_ORGANIZATION ( #46, #201 ) ;
#359 = AXIS2_PLACEMENT_3D ( 'NONE', #28, #338, #340 ) ;
#360 = DIRECTION ( 'NONE',  ( 0.9843125823683099851, 0.1764333874056405460, 0.000000000000000000 ) ) ;
#361 = AXIS2_PLACEMENT_3D ( 'NONE', #72, #366, #303 ) ;
#362 = CARTESIAN_POINT ( 'NONE',  ( -4.481259997539068785, 7.022222222222222143, 20.00000000000000000 ) ) ;
#363 = LINE ( 'NONE', #306, #135 ) ;
#364 = PLANE ( 'NONE',  #359 ) ;
#365 = ORIENTED_EDGE ( 'NONE', *, *, #302, .F. ) ;
#366 = DIRECTION ( 'NONE',  ( 0.7574099616005766089, 0.6529396220694630992, -0.000000000000000000 ) ) ;
#367 = EDGE_CURVE ( 'NONE', #1, #137, #379, .T. ) ;
#368 = DIRECTION ( 'NONE',  ( -0.3468008908925070966, 0.9379387730956446623, 0.000000000000000000 ) ) ;
#369 = VERTEX_POINT ( 'NONE', #38 ) ;
#370 = LINE ( 'NONE', #336, #71 ) ;
#371 = ORIENTED_EDGE ( 'NONE', *, *, #187, .F. ) ;
#372 = DIRECTION ( 'NONE',  ( 0.5035152254457535559, 0.8639863527535095455, 0.000000000000000000 ) ) ;
#373 = ADVANCED_FACE ( 'NONE', ( #157 ), #345, .F. ) ;
#374 = ORIENTED_EDGE ( 'NONE', *, *, #332, .T. ) ;
#375 = DIRECTION ( 'NONE',  ( 0.6529396220694629882, -0.7574099616005764979, 0.000000000000000000 ) ) ;
#376 = ORIENTED_EDGE ( 'NONE', *, *, #63, .F. ) ;
#377 = CARTESIAN_POINT ( 'NONE',  ( -10.85163036790943636, -1.762962962962962621, 0.000000000000000000 ) ) ;
#378 = AXIS2_PLACEMENT_3D ( 'NONE', #2, #106, #402 ) ;
#379 = LINE ( 'NONE', #220, #147 ) ;
#380 = VECTOR ( 'NONE', #172, 1000.000000000000000 ) ;
#381 =( NAMED_UNIT ( * ) PLANE_ANGLE_UNIT ( ) SI_UNIT ( $, .RADIAN. ) );
#382 = VERTEX_POINT ( 'NONE', #45 ) ;
#383 = LINE ( 'NONE', #141, #105 ) ;
#384 = CC_DESIGN_PERSON_AND_ORGANIZATION_ASSIGNMENT ( #358, #110, ( #5 ) ) ;
#385 = PERSON_AND_ORGANIZATION ( #46, #201 ) ;
#386 = ORIENTED_EDGE ( 'NONE', *, *, #94, .F. ) ;
#387 = COORDINATED_UNIVERSAL_TIME_OFFSET ( 9, 0, .AHEAD. ) ;
#388 = LINE ( 'NONE', #205, #348 ) ;
#389 = EDGE_CURVE ( 'NONE', #41, #127, #249, .T. ) ;
#390 = SECURITY_CLASSIFICATION_LEVEL ( 'unclassified' ) ;
#391 = CARTESIAN_POINT ( 'NONE',  ( -11.50348221976128826, 2.000000000000000000, 0.000000000000000000 ) ) ;
#392 = LINE ( 'NONE', #237, #293 ) ;
#393 = DIRECTION ( 'NONE',  ( -0.7574099616005767199, -0.6529396220694627662, -0.000000000000000000 ) ) ;
#394 = CC_DESIGN_SECURITY_CLASSIFICATION ( #5, ( #199 ) ) ;
#395 = CARTESIAN_POINT ( 'NONE',  ( -11.50348221976128826, 0.000000000000000000, 20.00000000000000000 ) ) ;
#396 = AXIS2_PLACEMENT_3D ( 'NONE', #124, #32, #186 ) ;
#397 = VECTOR ( 'NONE', #297, 1000.000000000000000 ) ;
#398 = PLANE ( 'NONE',  #396 ) ;
#399 = ORIENTED_EDGE ( 'NONE', *, *, #150, .F. ) ;
#400 = FACE_OUTER_BOUND ( 'NONE', #193, .T. ) ;
#401 = VERTEX_POINT ( 'NONE', #128 ) ;
#402 = DIRECTION ( 'NONE',  ( 0.000000000000000000, 0.000000000000000000, -1.000000000000000000 ) ) ;
ENDSEC;
END-ISO-10303-21;
