ISO-10303-21;
HEADER;
FILE_DESCRIPTION (( 'STEP AP214' ),
    '1' );
FILE_NAME ('SimplePart.STEP',
    '2020-09-27T08:28:24',
    ( '' ),
    ( '' ),
    'SwSTEP 2.0',
    'SolidWorks 2019',
    '' );
FILE_SCHEMA (( 'AUTOMOTIVE_DESIGN' ));
ENDSEC;

DATA;
#1 = PLANE ( 'NONE',  #249 ) ;
#2 = VECTOR ( 'NONE', #232, 1000.000000000000000 ) ;
#3 = FACE_OUTER_BOUND ( 'NONE', #71, .T. ) ;
#4 = ORIENTED_EDGE ( 'NONE', *, *, #59, .F. ) ;
#5 = CARTESIAN_POINT ( 'NONE',  ( -2.409044809685608968, -0.5462370437134108636, 74.00000000000001421 ) ) ;
#6 = VECTOR ( 'NONE', #60, 999.9999999999998863 ) ;
#7 = ORIENTED_EDGE ( 'NONE', *, *, #311, .T. ) ;
#8 = ORIENTED_EDGE ( 'NONE', *, *, #291, .F. ) ;
#9 = CARTESIAN_POINT ( 'NONE',  ( -14.98942307692308162, 42.62142857142858787, 74.00000000000001421 ) ) ;
#10 = CARTESIAN_POINT ( 'NONE',  ( -27.37513736263735709, -50.63571428571428612, 74.00000000000001421 ) ) ;
#11 = VECTOR ( 'NONE', #272, 1000.000000000000227 ) ;
#12 = LINE ( 'NONE', #84, #284 ) ;
#13 =( LENGTH_UNIT ( ) NAMED_UNIT ( * ) SI_UNIT ( .MILLI., .METRE. ) );
#14 = SHAPE_DEFINITION_REPRESENTATION ( #197, #314 ) ;
#15 = CARTESIAN_POINT ( 'NONE',  ( 46.69629120879120876, 31.45000000000000639, 74.00000000000001421 ) ) ;
#16 = MECHANICAL_DESIGN_GEOMETRIC_PRESENTATION_REPRESENTATION (  '', ( #245 ), #32 ) ;
#17 = FILL_AREA_STYLE_COLOUR ( '', #277 ) ;
#18 = PRODUCT_CONTEXT ( 'NONE', #114, 'mechanical' ) ;
#19 = CARTESIAN_POINT ( 'NONE',  ( 54.46771978021980232, -14.69285714285713240, 74.00000000000001421 ) ) ;
#20 = EDGE_LOOP ( 'NONE', ( #56, #153, #333, #151, #69, #234, #313, #286 ) ) ;
#21 = AXIS2_PLACEMENT_3D ( 'NONE', #202, #116, #276 ) ;
#22 = CARTESIAN_POINT ( 'NONE',  ( 54.46771978021980232, -14.69285714285713240, 0.0000000000000000000 ) ) ;
#23 = ORIENTED_EDGE ( 'NONE', *, *, #35, .F. ) ;
#24 = SURFACE_STYLE_FILL_AREA ( #312 ) ;
#25 = ORIENTED_EDGE ( 'NONE', *, *, #207, .F. ) ;
#26 = CARTESIAN_POINT ( 'NONE',  ( -2.409044809685608968, -0.5462370437134108636, 74.00000000000001421 ) ) ;
#27 = DIRECTION ( 'NONE',  ( -0.1660820115642900885, 0.9861119436629691704, 0.0000000000000000000 ) ) ;
#28 = VECTOR ( 'NONE', #223, 1000.000000000000114 ) ;
#29 = DIRECTION ( 'NONE',  ( 0.5780173407803389507, -0.8160244811016551525, 0.0000000000000000000 ) ) ;
#30 = CARTESIAN_POINT ( 'NONE',  ( -68.66085164835163823, 7.650000000000003908, 74.00000000000001421 ) ) ;
#31 = CARTESIAN_POINT ( 'NONE',  ( -23.00370879120877632, 10.56428571428572027, 74.00000000000001421 ) ) ;
#32 =( GEOMETRIC_REPRESENTATION_CONTEXT ( 3 ) GLOBAL_UNCERTAINTY_ASSIGNED_CONTEXT ( ( #317 ) ) GLOBAL_UNIT_ASSIGNED_CONTEXT ( ( #129, #46, #263 ) ) REPRESENTATION_CONTEXT ( 'NONE', 'WORKASPACE' ) );
#33 = ORIENTED_EDGE ( 'NONE', *, *, #310, .F. ) ;
#34 = EDGE_LOOP ( 'NONE', ( #79, #145, #4, #125 ) ) ;
#35 = EDGE_CURVE ( 'NONE', #45, #177, #212, .T. ) ;
#36 = ADVANCED_FACE ( 'NONE', ( #105 ), #318, .F. ) ;
#37 = CARTESIAN_POINT ( 'NONE',  ( 54.46771978021980232, -14.69285714285713240, 74.00000000000001421 ) ) ;
#38 = DIRECTION ( 'NONE',  ( 0.0000000000000000000, 0.0000000000000000000, -1.000000000000000000 ) ) ;
#39 = CARTESIAN_POINT ( 'NONE',  ( -14.98942307692308162, 42.62142857142858787, 74.00000000000001421 ) ) ;
#40 = PLANE ( 'NONE',  #222 ) ;
#41 = AXIS2_PLACEMENT_3D ( 'NONE', #31, #58, #183 ) ;
#42 = LINE ( 'NONE', #168, #28 ) ;
#43 = EDGE_LOOP ( 'NONE', ( #305, #180, #25, #241 ) ) ;
#44 = CARTESIAN_POINT ( 'NONE',  ( -2.409044809685608968, -0.5462370437134108636, 0.0000000000000000000 ) ) ;
#45 = VERTEX_POINT ( 'NONE', #159 ) ;
#46 =( NAMED_UNIT ( * ) PLANE_ANGLE_UNIT ( ) SI_UNIT ( $, .RADIAN. ) );
#47 = ORIENTED_EDGE ( 'NONE', *, *, #141, .F. ) ;
#48 = VECTOR ( 'NONE', #293, 1000.000000000000000 ) ;
#49 = ORIENTED_EDGE ( 'NONE', *, *, #93, .T. ) ;
#50 = EDGE_CURVE ( 'NONE', #175, #122, #184, .T. ) ;
#51 = LINE ( 'NONE', #261, #226 ) ;
#52 = ORIENTED_EDGE ( 'NONE', *, *, #275, .T. ) ;
#53 = FILL_AREA_STYLE_COLOUR ( '', #240 ) ;
#54 = CARTESIAN_POINT ( 'NONE',  ( 0.0000000000000000000, 34.12142857142858077, 0.0000000000000000000 ) ) ;
#55 = DIRECTION ( 'NONE',  ( -0.8378367852691606110, -0.5459208012613536720, 0.0000000000000000000 ) ) ;
#56 = ORIENTED_EDGE ( 'NONE', *, *, #208, .F. ) ;
#57 = LINE ( 'NONE', #111, #161 ) ;
#58 = DIRECTION ( 'NONE',  ( -0.7154610918725489155, 0.6986525789092460359, 0.0000000000000000000 ) ) ;
#59 = EDGE_CURVE ( 'NONE', #243, #101, #288, .T. ) ;
#60 = DIRECTION ( 'NONE',  ( -0.8378367852691606110, -0.5459208012613537830, 0.0000000000000000000 ) ) ;
#61 = LINE ( 'NONE', #63, #11 ) ;
#62 = VECTOR ( 'NONE', #169, 999.9999999999998863 ) ;
#63 = CARTESIAN_POINT ( 'NONE',  ( 0.0000000000000000000, 34.12142857142858077, 74.00000000000001421 ) ) ;
#64 = SURFACE_STYLE_FILL_AREA ( #174 ) ;
#65 = PRODUCT ( 'SimplePart', 'SimplePart', '', ( #18 ) ) ;
#66 = DIRECTION ( 'NONE',  ( 0.8160244811016551525, 0.5780173407803389507, -0.0000000000000000000 ) ) ;
#67 = APPLICATION_PROTOCOL_DEFINITION ( 'draft international standard', 'automotive_design', 1998, #289 ) ;
#68 = VECTOR ( 'NONE', #189, 1000.000000000000227 ) ;
#69 = ORIENTED_EDGE ( 'NONE', *, *, #196, .F. ) ;
#70 = PLANE ( 'NONE',  #21 ) ;
#71 = EDGE_LOOP ( 'NONE', ( #203, #270, #8, #282 ) ) ;
#72 = CARTESIAN_POINT ( 'NONE',  ( -14.98942307692308162, 42.62142857142858787, 74.00000000000001421 ) ) ;
#73 = EDGE_CURVE ( 'NONE', #177, #122, #239, .T. ) ;
#74 = ORIENTED_EDGE ( 'NONE', *, *, #259, .T. ) ;
#75 = VECTOR ( 'NONE', #27, 1000.000000000000000 ) ;
#76 = ORIENTED_EDGE ( 'NONE', *, *, #217, .T. ) ;
#77 = FACE_OUTER_BOUND ( 'NONE', #104, .T. ) ;
#78 = VERTEX_POINT ( 'NONE', #292 ) ;
#79 = ORIENTED_EDGE ( 'NONE', *, *, #82, .T. ) ;
#80 = DIRECTION ( 'NONE',  ( 0.8378367852691606110, 0.5459208012613537830, 0.0000000000000000000 ) ) ;
#81 = PRODUCT_RELATED_PRODUCT_CATEGORY ( 'part', '', ( #65 ) ) ;
#82 = EDGE_CURVE ( 'NONE', #228, #132, #57, .T. ) ;
#83 = LINE ( 'NONE', #163, #68 ) ;
#84 = CARTESIAN_POINT ( 'NONE',  ( -14.98942307692308162, 42.62142857142858787, 74.00000000000001421 ) ) ;
#85 = CARTESIAN_POINT ( 'NONE',  ( -2.409044809685608968, -0.5462370437134108636, 74.00000000000001421 ) ) ;
#86 = CARTESIAN_POINT ( 'NONE',  ( 0.0000000000000000000, 0.0000000000000000000, 74.00000000000001421 ) ) ;
#87 =( NAMED_UNIT ( * ) SI_UNIT ( $, .STERADIAN. ) SOLID_ANGLE_UNIT ( ) );
#88 = PRESENTATION_LAYER_ASSIGNMENT (  '', '', ( #245 ) ) ;
#89 =( GEOMETRIC_REPRESENTATION_CONTEXT ( 3 ) GLOBAL_UNCERTAINTY_ASSIGNED_CONTEXT ( ( #238 ) ) GLOBAL_UNIT_ASSIGNED_CONTEXT ( ( #13, #194, #87 ) ) REPRESENTATION_CONTEXT ( 'NONE', 'WORKASPACE' ) );
#90 = CARTESIAN_POINT ( 'NONE',  ( 0.0000000000000000000, 34.12142857142858077, 74.00000000000001421 ) ) ;
#91 = CARTESIAN_POINT ( 'NONE',  ( 0.0000000000000000000, 0.0000000000000000000, 0.0000000000000000000 ) ) ;
#92 = EDGE_CURVE ( 'NONE', #101, #132, #215, .T. ) ;
#93 = EDGE_CURVE ( 'NONE', #101, #45, #268, .T. ) ;
#94 = CARTESIAN_POINT ( 'NONE',  ( -68.66085164835163823, 7.650000000000003908, 74.00000000000001421 ) ) ;
#95 = EDGE_LOOP ( 'NONE', ( #225, #319, #49, #52, #227, #258, #158, #74 ) ) ;
#96 = LINE ( 'NONE', #19, #166 ) ;
#97 = ORIENTED_EDGE ( 'NONE', *, *, #93, .F. ) ;
#98 = CARTESIAN_POINT ( 'NONE',  ( 54.46771978021980232, -14.69285714285713240, 74.00000000000001421 ) ) ;
#99 = VERTEX_POINT ( 'NONE', #131 ) ;
#100 = PLANE ( 'NONE',  #134 ) ;
#101 = VERTEX_POINT ( 'NONE', #237 ) ;
#102 = VECTOR ( 'NONE', #130, 1000.000000000000000 ) ;
#103 = LINE ( 'NONE', #127, #170 ) ;
#104 = EDGE_LOOP ( 'NONE', ( #7, #33, #171, #260 ) ) ;
#105 = FACE_OUTER_BOUND ( 'NONE', #231, .T. ) ;
#106 = PLANE ( 'NONE',  #41 ) ;
#107 = UNCERTAINTY_MEASURE_WITH_UNIT (LENGTH_MEASURE( 1.000000000000000082E-05 ), #327, 'distance_accuracy_value', 'NONE');
#108 = AXIS2_PLACEMENT_3D ( 'NONE', #213, #236, #80 ) ;
#109 = ORIENTED_EDGE ( 'NONE', *, *, #118, .F. ) ;
#110 = EDGE_CURVE ( 'NONE', #132, #177, #83, .T. ) ;
#111 = CARTESIAN_POINT ( 'NONE',  ( -14.98942307692308162, 42.62142857142858787, 0.0000000000000000000 ) ) ;
#112 = DIRECTION ( 'NONE',  ( -0.8378367852691606110, -0.5459208012613536720, 0.0000000000000000000 ) ) ;
#113 = CARTESIAN_POINT ( 'NONE',  ( 46.69629120879120876, 31.45000000000000639, 74.00000000000001421 ) ) ;
#114 = APPLICATION_CONTEXT ( 'automotive_design' ) ;
#115 = CARTESIAN_POINT ( 'NONE',  ( 0.0000000000000000000, 0.0000000000000000000, 0.0000000000000000000 ) ) ;
#116 = DIRECTION ( 'NONE',  ( -0.4932758298364188776, -0.8698729537692228009, 0.0000000000000000000 ) ) ;
#117 = VECTOR ( 'NONE', #266, 1000.000000000000114 ) ;
#118 = EDGE_CURVE ( 'NONE', #173, #278, #218, .T. ) ;
#119 = DIRECTION ( 'NONE',  ( 0.6986525789092460359, 0.7154610918725489155, 0.0000000000000000000 ) ) ;
#120 = ADVANCED_FACE ( 'NONE', ( #77 ), #106, .F. ) ;
#121 = FACE_OUTER_BOUND ( 'NONE', #308, .T. ) ;
#122 = VERTEX_POINT ( 'NONE', #287 ) ;
#123 = VERTEX_POINT ( 'NONE', #54 ) ;
#124 = DIRECTION ( 'NONE',  ( -0.8698729537692226899, 0.4932758298364188221, 0.0000000000000000000 ) ) ;
#125 = ORIENTED_EDGE ( 'NONE', *, *, #154, .T. ) ;
#126 = DIRECTION ( 'NONE',  ( 0.6986525789092460359, 0.7154610918725489155, 0.0000000000000000000 ) ) ;
#127 = CARTESIAN_POINT ( 'NONE',  ( 46.69629120879120876, 31.45000000000000639, 74.00000000000001421 ) ) ;
#128 = ORIENTED_EDGE ( 'NONE', *, *, #275, .F. ) ;
#129 =( LENGTH_UNIT ( ) NAMED_UNIT ( * ) SI_UNIT ( .MILLI., .METRE. ) );
#130 = DIRECTION ( 'NONE',  ( -0.0000000000000000000, -0.0000000000000000000, -1.000000000000000000 ) ) ;
#131 = CARTESIAN_POINT ( 'NONE',  ( 0.0000000000000000000, 34.12142857142858077, 74.00000000000001421 ) ) ;
#132 = VERTEX_POINT ( 'NONE', #157 ) ;
#133 = ADVANCED_FACE ( 'NONE', ( #296 ), #165, .F. ) ;
#134 = AXIS2_PLACEMENT_3D ( 'NONE', #206, #255, #306 ) ;
#135 = MECHANICAL_DESIGN_GEOMETRIC_PRESENTATION_REPRESENTATION (  '', ( #257 ), #89 ) ;
#136 = CARTESIAN_POINT ( 'NONE',  ( 54.46771978021980232, -14.69285714285713240, 74.00000000000001421 ) ) ;
#137 = ORIENTED_EDGE ( 'NONE', *, *, #328, .F. ) ;
#138 = FACE_OUTER_BOUND ( 'NONE', #209, .T. ) ;
#139 = FACE_OUTER_BOUND ( 'NONE', #95, .T. ) ;
#140 = LINE ( 'NONE', #248, #233 ) ;
#141 = EDGE_CURVE ( 'NONE', #99, #243, #61, .T. ) ;
#142 = ADVANCED_FACE ( 'NONE', ( #138 ), #244, .F. ) ;
#143 = VECTOR ( 'NONE', #126, 1000.000000000000000 ) ;
#144 = DIRECTION ( 'NONE',  ( -0.5780173407803389507, 0.8160244811016551525, 0.0000000000000000000 ) ) ;
#145 = ORIENTED_EDGE ( 'NONE', *, *, #92, .F. ) ;
#146 = DIRECTION ( 'NONE',  ( -0.8800946379311889167, 0.4747983027399839684, 0.0000000000000000000 ) ) ;
#147 = VERTEX_POINT ( 'NONE', #113 ) ;
#148 = LINE ( 'NONE', #229, #143 ) ;
#149 = VECTOR ( 'NONE', #55, 1000.000000000000114 ) ;
#150 = DIRECTION ( 'NONE',  ( -0.8800946379311889167, 0.4747983027399839684, 0.0000000000000000000 ) ) ;
#151 = ORIENTED_EDGE ( 'NONE', *, *, #181, .F. ) ;
#152 = DIRECTION ( 'NONE',  ( -0.0000000000000000000, -0.0000000000000000000, -1.000000000000000000 ) ) ;
#153 = ORIENTED_EDGE ( 'NONE', *, *, #311, .F. ) ;
#154 = EDGE_CURVE ( 'NONE', #243, #228, #12, .T. ) ;
#155 = SURFACE_SIDE_STYLE ('',( #24 ) ) ;
#156 = ADVANCED_FACE ( 'NONE', ( #139 ), #247, .F. ) ;
#157 = CARTESIAN_POINT ( 'NONE',  ( -68.66085164835163823, 7.650000000000003908, 0.0000000000000000000 ) ) ;
#158 = ORIENTED_EDGE ( 'NONE', *, *, #207, .T. ) ;
#159 = CARTESIAN_POINT ( 'NONE',  ( -27.37513736263735709, -50.63571428571428612, 74.00000000000001421 ) ) ;
#160 = CARTESIAN_POINT ( 'NONE',  ( -68.66085164835163823, 7.650000000000003908, 74.00000000000001421 ) ) ;
#161 = VECTOR ( 'NONE', #112, 1000.000000000000114 ) ;
#162 = AXIS2_PLACEMENT_3D ( 'NONE', #91, #300, #224 ) ;
#163 = CARTESIAN_POINT ( 'NONE',  ( -68.66085164835163823, 7.650000000000003908, 0.0000000000000000000 ) ) ;
#164 = CARTESIAN_POINT ( 'NONE',  ( -27.37513736263735709, -50.63571428571428612, 0.0000000000000000000 ) ) ;
#165 = PLANE ( 'NONE',  #185 ) ;
#166 = VECTOR ( 'NONE', #274, 1000.000000000000000 ) ;
#167 = DIRECTION ( 'NONE',  ( -1.000000000000000000, 0.0000000000000000000, -0.0000000000000000000 ) ) ;
#168 = CARTESIAN_POINT ( 'NONE',  ( -27.37513736263735709, -50.63571428571428612, 74.00000000000001421 ) ) ;
#169 = DIRECTION ( 'NONE',  ( -0.8378367852691606110, -0.5459208012613537830, 0.0000000000000000000 ) ) ;
#170 = VECTOR ( 'NONE', #152, 1000.000000000000000 ) ;
#171 = ORIENTED_EDGE ( 'NONE', *, *, #259, .F. ) ;
#172 = SURFACE_SIDE_STYLE ('',( #64 ) ) ;
#173 = VERTEX_POINT ( 'NONE', #85 ) ;
#174 = FILL_AREA_STYLE ('',( #17 ) ) ;
#175 = VERTEX_POINT ( 'NONE', #37 ) ;
#176 = PRESENTATION_STYLE_ASSIGNMENT (( #210 ) ) ;
#177 = VERTEX_POINT ( 'NONE', #164 ) ;
#178 = CARTESIAN_POINT ( 'NONE',  ( -23.00370879120877632, 10.56428571428572027, 74.00000000000001421 ) ) ;
#179 = ADVANCED_FACE ( 'NONE', ( #193 ), #192, .T. ) ;
#180 = ORIENTED_EDGE ( 'NONE', *, *, #230, .F. ) ;
#181 = EDGE_CURVE ( 'NONE', #265, #278, #273, .T. ) ;
#182 = DIRECTION ( 'NONE',  ( -0.9861119436629692814, -0.1660820115642901162, 0.0000000000000000000 ) ) ;
#183 = DIRECTION ( 'NONE',  ( -0.6986525789092460359, -0.7154610918725489155, 0.0000000000000000000 ) ) ;
#184 = LINE ( 'NONE', #136, #246 ) ;
#185 = AXIS2_PLACEMENT_3D ( 'NONE', #39, #297, #191 ) ;
#186 = DIRECTION ( 'NONE',  ( -0.0000000000000000000, -0.0000000000000000000, -1.000000000000000000 ) ) ;
#187 = PRODUCT_DEFINITION_CONTEXT ( 'detailed design', #289, 'design' ) ;
#188 = CARTESIAN_POINT ( 'NONE',  ( -27.37513736263735709, -50.63571428571428612, 0.0000000000000000000 ) ) ;
#189 = DIRECTION ( 'NONE',  ( 0.5780173407803389507, -0.8160244811016551525, 0.0000000000000000000 ) ) ;
#190 = AXIS2_PLACEMENT_3D ( 'NONE', #115, #220, #167 ) ;
#191 = DIRECTION ( 'NONE',  ( 0.8378367852691606110, 0.5459208012613537830, 0.0000000000000000000 ) ) ;
#192 = PLANE ( 'NONE',  #190 ) ;
#193 = FACE_OUTER_BOUND ( 'NONE', #20, .T. ) ;
#194 =( NAMED_UNIT ( * ) PLANE_ANGLE_UNIT ( ) SI_UNIT ( $, .RADIAN. ) );
#195 = AXIS2_PLACEMENT_3D ( 'NONE', #86, #38, #322 ) ;
#196 = EDGE_CURVE ( 'NONE', #122, #265, #271, .T. ) ;
#197 = PRODUCT_DEFINITION_SHAPE ( 'NONE', 'NONE',  #242 ) ;
#198 = SURFACE_STYLE_USAGE ( .BOTH. , #172 ) ;
#199 = DIRECTION ( 'NONE',  ( -0.0000000000000000000, -0.0000000000000000000, -1.000000000000000000 ) ) ;
#200 = VECTOR ( 'NONE', #150, 1000.000000000000000 ) ;
#201 = ORIENTED_EDGE ( 'NONE', *, *, #154, .F. ) ;
#202 = CARTESIAN_POINT ( 'NONE',  ( 0.0000000000000000000, 34.12142857142858077, 74.00000000000001421 ) ) ;
#203 = ORIENTED_EDGE ( 'NONE', *, *, #196, .T. ) ;
#204 = LINE ( 'NONE', #178, #2 ) ;
#205 = EDGE_LOOP ( 'NONE', ( #253, #201, #47, #329 ) ) ;
#206 = CARTESIAN_POINT ( 'NONE',  ( -2.409044809685608968, -0.5462370437134108636, 74.00000000000001421 ) ) ;
#207 = EDGE_CURVE ( 'NONE', #173, #78, #332, .T. ) ;
#208 = EDGE_CURVE ( 'NONE', #123, #228, #51, .T. ) ;
#209 = EDGE_LOOP ( 'NONE', ( #285, #304, #128, #251 ) ) ;
#210 = SURFACE_STYLE_USAGE ( .BOTH. , #155 ) ;
#211 = CARTESIAN_POINT ( 'NONE',  ( -23.00370879120877632, 10.56428571428572027, 0.0000000000000000000 ) ) ;
#212 = LINE ( 'NONE', #214, #307 ) ;
#213 = CARTESIAN_POINT ( 'NONE',  ( 46.69629120879120876, 31.45000000000000639, 74.00000000000001421 ) ) ;
#214 = CARTESIAN_POINT ( 'NONE',  ( -27.37513736263735709, -50.63571428571428612, 74.00000000000001421 ) ) ;
#215 = LINE ( 'NONE', #160, #102 ) ;
#216 = ADVANCED_FACE ( 'NONE', ( #3 ), #1, .F. ) ;
#217 = EDGE_CURVE ( 'NONE', #147, #265, #103, .T. ) ;
#218 = LINE ( 'NONE', #5, #48 ) ;
#219 = DIRECTION ( 'NONE',  ( -0.0000000000000000000, -0.0000000000000000000, -1.000000000000000000 ) ) ;
#220 = DIRECTION ( 'NONE',  ( 0.0000000000000000000, 0.0000000000000000000, -1.000000000000000000 ) ) ;
#221 = LINE ( 'NONE', #44, #264 ) ;
#222 = AXIS2_PLACEMENT_3D ( 'NONE', #94, #66, #144 ) ;
#223 = DIRECTION ( 'NONE',  ( 0.9155952412080153868, 0.4021011741803747208, 0.0000000000000000000 ) ) ;
#224 = DIRECTION ( 'NONE',  ( 1.000000000000000000, 0.0000000000000000000, 0.0000000000000000000 ) ) ;
#225 = ORIENTED_EDGE ( 'NONE', *, *, #141, .T. ) ;
#226 = VECTOR ( 'NONE', #124, 1000.000000000000227 ) ;
#227 = ORIENTED_EDGE ( 'NONE', *, *, #291, .T. ) ;
#228 = VERTEX_POINT ( 'NONE', #309 ) ;
#229 = CARTESIAN_POINT ( 'NONE',  ( -23.00370879120877632, 10.56428571428572027, 74.00000000000001421 ) ) ;
#230 = EDGE_CURVE ( 'NONE', #78, #262, #204, .T. ) ;
#231 = EDGE_LOOP ( 'NONE', ( #280, #109, #137, #76 ) ) ;
#232 = DIRECTION ( 'NONE',  ( -0.0000000000000000000, -0.0000000000000000000, -1.000000000000000000 ) ) ;
#233 = VECTOR ( 'NONE', #119, 1000.000000000000000 ) ;
#234 = ORIENTED_EDGE ( 'NONE', *, *, #73, .F. ) ;
#235 = FACE_OUTER_BOUND ( 'NONE', #43, .T. ) ;
#236 = DIRECTION ( 'NONE',  ( 0.5459208012613537830, -0.8378367852691606110, 0.0000000000000000000 ) ) ;
#237 = CARTESIAN_POINT ( 'NONE',  ( -68.66085164835163823, 7.650000000000003908, 74.00000000000001421 ) ) ;
#238 = UNCERTAINTY_MEASURE_WITH_UNIT (LENGTH_MEASURE( 1.000000000000000082E-05 ), #13, 'distance_accuracy_value', 'NONE');
#239 = LINE ( 'NONE', #188, #117 ) ;
#240 = COLOUR_RGB ( '',0.7921568627450980005, 0.8196078431372548767, 0.9333333333333333481 ) ;
#241 = ORIENTED_EDGE ( 'NONE', *, *, #118, .T. ) ;
#242 = PRODUCT_DEFINITION ( 'UNKNOWN', '', #298, #187 ) ;
#243 = VERTEX_POINT ( 'NONE', #72 ) ;
#244 = PLANE ( 'NONE',  #303 ) ;
#245 = STYLED_ITEM ( 'NONE', ( #176 ), #254 ) ;
#246 = VECTOR ( 'NONE', #316, 1000.000000000000000 ) ;
#247 = PLANE ( 'NONE',  #195 ) ;
#248 = CARTESIAN_POINT ( 'NONE',  ( -23.00370879120877632, 10.56428571428572027, 0.0000000000000000000 ) ) ;
#249 = AXIS2_PLACEMENT_3D ( 'NONE', #98, #182, #283 ) ;
#250 = CARTESIAN_POINT ( 'NONE',  ( -2.409044809685608968, -0.5462370437134108636, 0.0000000000000000000 ) ) ;
#251 = ORIENTED_EDGE ( 'NONE', *, *, #35, .T. ) ;
#252 = LINE ( 'NONE', #15, #62 ) ;
#253 = ORIENTED_EDGE ( 'NONE', *, *, #208, .T. ) ;
#254 = MANIFOLD_SOLID_BREP ( '보스-돌출1', #256 ) ;
#255 = DIRECTION ( 'NONE',  ( -0.4747983027399839684, -0.8800946379311889167, 0.0000000000000000000 ) ) ;
#256 = CLOSED_SHELL ( 'NONE', ( #269, #133, #299, #142, #216, #36, #267, #120, #156, #179 ) ) ;
#257 = STYLED_ITEM ( 'NONE', ( #281 ), #314 ) ;
#258 = ORIENTED_EDGE ( 'NONE', *, *, #328, .T. ) ;
#259 = EDGE_CURVE ( 'NONE', #78, #99, #148, .T. ) ;
#260 = ORIENTED_EDGE ( 'NONE', *, *, #230, .T. ) ;
#261 = CARTESIAN_POINT ( 'NONE',  ( 0.0000000000000000000, 34.12142857142858077, 0.0000000000000000000 ) ) ;
#262 = VERTEX_POINT ( 'NONE', #211 ) ;
#263 =( NAMED_UNIT ( * ) SI_UNIT ( $, .STERADIAN. ) SOLID_ANGLE_UNIT ( ) );
#264 = VECTOR ( 'NONE', #146, 1000.000000000000000 ) ;
#265 = VERTEX_POINT ( 'NONE', #334 ) ;
#266 = DIRECTION ( 'NONE',  ( 0.9155952412080153868, 0.4021011741803747208, 0.0000000000000000000 ) ) ;
#267 = ADVANCED_FACE ( 'NONE', ( #235 ), #100, .F. ) ;
#268 = LINE ( 'NONE', #30, #321 ) ;
#269 = ADVANCED_FACE ( 'NONE', ( #301 ), #70, .F. ) ;
#270 = ORIENTED_EDGE ( 'NONE', *, *, #217, .F. ) ;
#271 = LINE ( 'NONE', #22, #75 ) ;
#272 = DIRECTION ( 'NONE',  ( -0.8698729537692226899, 0.4932758298364188221, 0.0000000000000000000 ) ) ;
#273 = LINE ( 'NONE', #295, #6 ) ;
#274 = DIRECTION ( 'NONE',  ( -0.1660820115642900885, 0.9861119436629691704, 0.0000000000000000000 ) ) ;
#275 = EDGE_CURVE ( 'NONE', #45, #175, #42, .T. ) ;
#276 = DIRECTION ( 'NONE',  ( 0.8698729537692226899, -0.4932758298364188221, 0.0000000000000000000 ) ) ;
#277 = COLOUR_RGB ( '',0.7921568627450980005, 0.8196078431372548767, 0.9333333333333333481 ) ;
#278 = VERTEX_POINT ( 'NONE', #250 ) ;
#279 = LINE ( 'NONE', #90, #294 ) ;
#280 = ORIENTED_EDGE ( 'NONE', *, *, #181, .T. ) ;
#281 = PRESENTATION_STYLE_ASSIGNMENT (( #198 ) ) ;
#282 = ORIENTED_EDGE ( 'NONE', *, *, #50, .T. ) ;
#283 = DIRECTION ( 'NONE',  ( 0.1660820115642900885, -0.9861119436629691704, 0.0000000000000000000 ) ) ;
#284 = VECTOR ( 'NONE', #219, 1000.000000000000000 ) ;
#285 = ORIENTED_EDGE ( 'NONE', *, *, #73, .T. ) ;
#286 = ORIENTED_EDGE ( 'NONE', *, *, #82, .F. ) ;
#287 = CARTESIAN_POINT ( 'NONE',  ( 54.46771978021980232, -14.69285714285713240, 0.0000000000000000000 ) ) ;
#288 = LINE ( 'NONE', #9, #149 ) ;
#290 = ORIENTED_EDGE ( 'NONE', *, *, #92, .T. ) ;
#289 = APPLICATION_CONTEXT ( 'automotive_design' ) ;
#291 = EDGE_CURVE ( 'NONE', #175, #147, #96, .T. ) ;
#292 = CARTESIAN_POINT ( 'NONE',  ( -23.00370879120877632, 10.56428571428572027, 74.00000000000001421 ) ) ;
#293 = DIRECTION ( 'NONE',  ( -0.0000000000000000000, -0.0000000000000000000, -1.000000000000000000 ) ) ;
#294 = VECTOR ( 'NONE', #199, 1000.000000000000000 ) ;
#295 = CARTESIAN_POINT ( 'NONE',  ( 46.69629120879120876, 31.45000000000000639, 0.0000000000000000000 ) ) ;
#296 = FACE_OUTER_BOUND ( 'NONE', #34, .T. ) ;
#297 = DIRECTION ( 'NONE',  ( 0.5459208012613537830, -0.8378367852691606110, 0.0000000000000000000 ) ) ;
#298 = PRODUCT_DEFINITION_FORMATION_WITH_SPECIFIED_SOURCE ( 'ANY', '', #65, .NOT_KNOWN. ) ;
#299 = ADVANCED_FACE ( 'NONE', ( #121 ), #40, .F. ) ;
#300 = DIRECTION ( 'NONE',  ( 0.0000000000000000000, 0.0000000000000000000, 1.000000000000000000 ) ) ;
#301 = FACE_OUTER_BOUND ( 'NONE', #205, .T. ) ;
#302 =( NAMED_UNIT ( * ) PLANE_ANGLE_UNIT ( ) SI_UNIT ( $, .RADIAN. ) );
#303 = AXIS2_PLACEMENT_3D ( 'NONE', #10, #320, #323 ) ;
#304 = ORIENTED_EDGE ( 'NONE', *, *, #50, .F. ) ;
#305 = ORIENTED_EDGE ( 'NONE', *, *, #326, .T. ) ;
#306 = DIRECTION ( 'NONE',  ( 0.8800946379311889167, -0.4747983027399839684, 0.0000000000000000000 ) ) ;
#307 = VECTOR ( 'NONE', #186, 1000.000000000000000 ) ;
#308 = EDGE_LOOP ( 'NONE', ( #331, #23, #97, #290 ) ) ;
#309 = CARTESIAN_POINT ( 'NONE',  ( -14.98942307692308162, 42.62142857142858787, 0.0000000000000000000 ) ) ;
#310 = EDGE_CURVE ( 'NONE', #99, #123, #279, .T. ) ;
#311 = EDGE_CURVE ( 'NONE', #262, #123, #140, .T. ) ;
#312 = FILL_AREA_STYLE ('',( #53 ) ) ;
#313 = ORIENTED_EDGE ( 'NONE', *, *, #110, .F. ) ;
#314 = ADVANCED_BREP_SHAPE_REPRESENTATION ( 'SimplePart', ( #254, #162 ), #330 ) ;
#315 = PRESENTATION_LAYER_ASSIGNMENT (  '', '', ( #257 ) ) ;
#316 = DIRECTION ( 'NONE',  ( -0.0000000000000000000, -0.0000000000000000000, -1.000000000000000000 ) ) ;
#317 = UNCERTAINTY_MEASURE_WITH_UNIT (LENGTH_MEASURE( 1.000000000000000082E-05 ), #129, 'distance_accuracy_value', 'NONE');
#318 = PLANE ( 'NONE',  #108 ) ;
#319 = ORIENTED_EDGE ( 'NONE', *, *, #59, .T. ) ;
#320 = DIRECTION ( 'NONE',  ( -0.4021011741803747208, 0.9155952412080153868, 0.0000000000000000000 ) ) ;
#321 = VECTOR ( 'NONE', #29, 1000.000000000000227 ) ;
#322 = DIRECTION ( 'NONE',  ( -1.000000000000000000, 0.0000000000000000000, -0.0000000000000000000 ) ) ;
#323 = DIRECTION ( 'NONE',  ( -0.9155952412080153868, -0.4021011741803747208, 0.0000000000000000000 ) ) ;
#324 =( NAMED_UNIT ( * ) SI_UNIT ( $, .STERADIAN. ) SOLID_ANGLE_UNIT ( ) );
#325 = APPLICATION_PROTOCOL_DEFINITION ( 'draft international standard', 'automotive_design', 1998, #114 ) ;
#326 = EDGE_CURVE ( 'NONE', #278, #262, #221, .T. ) ;
#327 =( LENGTH_UNIT ( ) NAMED_UNIT ( * ) SI_UNIT ( .MILLI., .METRE. ) );
#328 = EDGE_CURVE ( 'NONE', #147, #173, #252, .T. ) ;
#329 = ORIENTED_EDGE ( 'NONE', *, *, #310, .T. ) ;
#330 =( GEOMETRIC_REPRESENTATION_CONTEXT ( 3 ) GLOBAL_UNCERTAINTY_ASSIGNED_CONTEXT ( ( #107 ) ) GLOBAL_UNIT_ASSIGNED_CONTEXT ( ( #327, #302, #324 ) ) REPRESENTATION_CONTEXT ( 'NONE', 'WORKASPACE' ) );
#331 = ORIENTED_EDGE ( 'NONE', *, *, #110, .T. ) ;
#332 = LINE ( 'NONE', #26, #200 ) ;
#333 = ORIENTED_EDGE ( 'NONE', *, *, #326, .F. ) ;
#334 = CARTESIAN_POINT ( 'NONE',  ( 46.69629120879120876, 31.45000000000000639, 0.0000000000000000000 ) ) ;
ENDSEC;
END-ISO-10303-21;
